%TF.GenerationSoftware,KiCad,Pcbnew,9.0.5*%
%TF.CreationDate,2025-11-19T14:43:04+01:00*%
%TF.ProjectId,caelum,6361656c-756d-42e6-9b69-6361645f7063,rev?*%
%TF.SameCoordinates,Original*%
%TF.FileFunction,Copper,L1,Top*%
%TF.FilePolarity,Positive*%
%FSLAX46Y46*%
G04 Gerber Fmt 4.6, Leading zero omitted, Abs format (unit mm)*
G04 Created by KiCad (PCBNEW 9.0.5) date 2025-11-19 14:43:04*
%MOMM*%
%LPD*%
G01*
G04 APERTURE LIST*
G04 Aperture macros list*
%AMRoundRect*
0 Rectangle with rounded corners*
0 $1 Rounding radius*
0 $2 $3 $4 $5 $6 $7 $8 $9 X,Y pos of 4 corners*
0 Add a 4 corners polygon primitive as box body*
4,1,4,$2,$3,$4,$5,$6,$7,$8,$9,$2,$3,0*
0 Add four circle primitives for the rounded corners*
1,1,$1+$1,$2,$3*
1,1,$1+$1,$4,$5*
1,1,$1+$1,$6,$7*
1,1,$1+$1,$8,$9*
0 Add four rect primitives between the rounded corners*
20,1,$1+$1,$2,$3,$4,$5,0*
20,1,$1+$1,$4,$5,$6,$7,0*
20,1,$1+$1,$6,$7,$8,$9,0*
20,1,$1+$1,$8,$9,$2,$3,0*%
G04 Aperture macros list end*
%TA.AperFunction,Conductor*%
%ADD10C,0.200000*%
%TD*%
%TA.AperFunction,ComponentPad*%
%ADD11O,3.000000X1.500000*%
%TD*%
%TA.AperFunction,ComponentPad*%
%ADD12RoundRect,0.250000X1.250000X0.600000X-1.250000X0.600000X-1.250000X-0.600000X1.250000X-0.600000X0*%
%TD*%
%TA.AperFunction,SMDPad,CuDef*%
%ADD13RoundRect,0.150000X-0.625000X0.150000X-0.625000X-0.150000X0.625000X-0.150000X0.625000X0.150000X0*%
%TD*%
%TA.AperFunction,SMDPad,CuDef*%
%ADD14RoundRect,0.250000X-0.650000X0.350000X-0.650000X-0.350000X0.650000X-0.350000X0.650000X0.350000X0*%
%TD*%
%TA.AperFunction,SMDPad,CuDef*%
%ADD15RoundRect,0.250000X-0.475000X0.250000X-0.475000X-0.250000X0.475000X-0.250000X0.475000X0.250000X0*%
%TD*%
%TA.AperFunction,SMDPad,CuDef*%
%ADD16RoundRect,0.250000X-0.650000X0.325000X-0.650000X-0.325000X0.650000X-0.325000X0.650000X0.325000X0*%
%TD*%
%TA.AperFunction,ComponentPad*%
%ADD17R,1.700000X1.700000*%
%TD*%
%TA.AperFunction,ComponentPad*%
%ADD18C,1.700000*%
%TD*%
%TA.AperFunction,ComponentPad*%
%ADD19RoundRect,0.250000X0.845000X-0.620000X0.845000X0.620000X-0.845000X0.620000X-0.845000X-0.620000X0*%
%TD*%
%TA.AperFunction,ComponentPad*%
%ADD20O,2.190000X1.740000*%
%TD*%
%TA.AperFunction,SMDPad,CuDef*%
%ADD21RoundRect,0.050000X-0.730000X-0.150000X0.730000X-0.150000X0.730000X0.150000X-0.730000X0.150000X0*%
%TD*%
%TA.AperFunction,SMDPad,CuDef*%
%ADD22RoundRect,0.150000X0.150000X-0.587500X0.150000X0.587500X-0.150000X0.587500X-0.150000X-0.587500X0*%
%TD*%
%TA.AperFunction,SMDPad,CuDef*%
%ADD23RoundRect,0.250000X-0.450000X0.262500X-0.450000X-0.262500X0.450000X-0.262500X0.450000X0.262500X0*%
%TD*%
%TA.AperFunction,SMDPad,CuDef*%
%ADD24RoundRect,0.150000X0.512500X0.150000X-0.512500X0.150000X-0.512500X-0.150000X0.512500X-0.150000X0*%
%TD*%
%TA.AperFunction,ViaPad*%
%ADD25C,0.600000*%
%TD*%
%TA.AperFunction,Conductor*%
%ADD26C,0.600000*%
%TD*%
%TA.AperFunction,Conductor*%
%ADD27C,0.250000*%
%TD*%
%TA.AperFunction,Conductor*%
%ADD28C,1.000000*%
%TD*%
%TA.AperFunction,Conductor*%
%ADD29C,0.400000*%
%TD*%
G04 APERTURE END LIST*
D10*
%TO.N,BATT-*%
X92700000Y-54200000D02*
X92600000Y-54100000D01*
X92600000Y-54100000D02*
X92200000Y-54300000D01*
%TD*%
D11*
%TO.P,U3,19,IO24*%
%TO.N,GPIO24*%
X101835605Y-47812499D03*
%TO.P,U3,18,IO23*%
%TO.N,unconnected-(U3-IO23-Pad18)*%
X101835605Y-45272499D03*
%TO.P,U3,17,IO0*%
%TO.N,unconnected-(U3-IO0-Pad17)*%
X101835605Y-42732499D03*
%TO.P,U3,16,IO1*%
%TO.N,GPIO1*%
X101835605Y-40192499D03*
%TO.P,U3,15,IO2*%
%TO.N,GPIO2*%
X101835605Y-37652499D03*
%TO.P,U3,14,IO3*%
%TO.N,GPIO3*%
X101835605Y-35112499D03*
%TO.P,U3,13,IO4*%
%TO.N,GPIO4*%
X101835605Y-32572499D03*
%TO.P,U3,12,IO5*%
%TO.N,unconnected-(U3-IO5-Pad12)*%
X101835605Y-30032499D03*
D12*
%TO.P,U3,9,5V*%
%TO.N,unconnected-(U3-5V-Pad9)*%
X85097363Y-47839822D03*
D11*
%TO.P,U3,8,GND*%
%TO.N,OUT-*%
X85097363Y-45299822D03*
%TO.P,U3,7,3V3*%
%TO.N,+3V3*%
X85097363Y-42759822D03*
%TO.P,U3,6,IO14*%
%TO.N,unconnected-(U3-IO14-Pad6)*%
X85097363Y-40219822D03*
%TO.P,U3,5,IO13*%
%TO.N,GPIO13*%
X85097363Y-37679822D03*
%TO.P,U3,4,IO12*%
%TO.N,GPIO12*%
X85097363Y-35139822D03*
%TO.P,U3,3,IO11*%
%TO.N,SCL*%
X85097363Y-32599822D03*
%TO.P,U3,2,IO10*%
%TO.N,SDA*%
X85097363Y-30059822D03*
%TD*%
D13*
%TO.P,J1,1,Pin_1*%
%TO.N,GPIO4*%
X106500000Y-38750000D03*
%TO.P,J1,2,Pin_2*%
%TO.N,GPIO3*%
X106500000Y-39750000D03*
%TO.P,J1,3,Pin_3*%
%TO.N,GPIO2*%
X106500000Y-40750000D03*
%TO.P,J1,4,Pin_4*%
%TO.N,GPIO1*%
X106500000Y-41750000D03*
%TO.P,J1,5,Pin_5*%
%TO.N,OUT-*%
X106500000Y-42750000D03*
%TO.P,J1,6,Pin_6*%
%TO.N,+3V3*%
X106500000Y-43750000D03*
D14*
%TO.P,J1,MP*%
%TO.N,N/C*%
X109025000Y-37450000D03*
X109025000Y-45050000D03*
%TD*%
D15*
%TO.P,0\u002C1\u00B5F,1*%
%TO.N,+3V3*%
X75200000Y-43275000D03*
%TO.P,0\u002C1\u00B5F,2*%
%TO.N,OUT-*%
X75200000Y-45175000D03*
%TD*%
D16*
%TO.P,1\u00B5F,1*%
%TO.N,OUT-*%
X70100000Y-55700000D03*
%TO.P,1\u00B5F,2*%
%TO.N,+3V3*%
X70100000Y-58650000D03*
%TD*%
D17*
%TO.P,J6,1,Pin_1*%
%TO.N,GPIO13*%
X61500000Y-45460000D03*
D18*
%TO.P,J6,2,Pin_2*%
%TO.N,+3V3*%
X61500000Y-48000000D03*
%TD*%
D19*
%TO.P,J8,1,Pin_1*%
%TO.N,+3V3*%
X106500000Y-57080000D03*
D20*
%TO.P,J8,2,Pin_2*%
%TO.N,OUT-*%
X106500000Y-54540000D03*
%TO.P,J8,3,Pin_3*%
%TO.N,GPIO24*%
X106500000Y-52000000D03*
%TD*%
D17*
%TO.P,J3,1,Pin_1*%
%TO.N,GPIO12*%
X61400000Y-36725000D03*
D18*
%TO.P,J3,2,Pin_2*%
%TO.N,+3V3*%
X61400000Y-39265000D03*
%TD*%
D15*
%TO.P,0\u002C1\u00B5F,1*%
%TO.N,OUT-*%
X75100000Y-56225000D03*
%TO.P,0\u002C1\u00B5F,2*%
%TO.N,+3V3*%
X75100000Y-58125000D03*
%TD*%
D16*
%TO.P,1\u00B5F,1*%
%TO.N,+3V3*%
X79200000Y-42750000D03*
%TO.P,1\u00B5F,2*%
%TO.N,OUT-*%
X79200000Y-45700000D03*
%TD*%
%TO.P,1\u00B5F,1*%
%TO.N,BATT+*%
X70100000Y-50200000D03*
%TO.P,1\u00B5F,2*%
%TO.N,OUT-*%
X70100000Y-53150000D03*
%TD*%
D15*
%TO.P,0\u002C1\u00B5F,1*%
%TO.N,Net-(U1-VCC)*%
X86625000Y-58250000D03*
%TO.P,0\u002C1\u00B5F,2*%
%TO.N,BATT-*%
X86625000Y-60150000D03*
%TD*%
D21*
%TO.P,Q1,1,D12*%
%TO.N,Net-(Q1-D12-Pad1)*%
X91340000Y-58300000D03*
%TO.P,Q1,2,S1*%
%TO.N,BATT-*%
X91340000Y-58950000D03*
%TO.P,Q1,3,S1*%
X91340000Y-59600000D03*
%TO.P,Q1,4,G1*%
%TO.N,Net-(Q1-G1)*%
X91340000Y-60250000D03*
%TO.P,Q1,5,G2*%
%TO.N,Net-(Q1-G2)*%
X97100000Y-60250000D03*
%TO.P,Q1,6,S2*%
%TO.N,OUT-*%
X97100000Y-59600000D03*
%TO.P,Q1,7,S2*%
X97100000Y-58950000D03*
%TO.P,Q1,8,D12*%
%TO.N,Net-(Q1-D12-Pad1)*%
X97100000Y-58300000D03*
%TD*%
D22*
%TO.P,U2,1,GND*%
%TO.N,OUT-*%
X79650000Y-54575000D03*
%TO.P,U2,2,VO*%
%TO.N,+3V3*%
X81550000Y-54575000D03*
%TO.P,U2,3,VI*%
%TO.N,BATT+*%
X80600000Y-52700000D03*
%TD*%
D17*
%TO.P,J7,1,Pin_1*%
%TO.N,+3V3*%
X75880000Y-35800000D03*
D18*
%TO.P,J7,2,Pin_2*%
%TO.N,SDA*%
X73340000Y-35800000D03*
%TO.P,J7,3,Pin_3*%
%TO.N,OUT-*%
X70800000Y-35800000D03*
%TO.P,J7,4,Pin_4*%
%TO.N,SCL*%
X68260000Y-35800000D03*
%TD*%
D17*
%TO.P,J4,1,Pin_1*%
%TO.N,BATT+*%
X62750000Y-54460000D03*
D18*
%TO.P,J4,2,Pin_2*%
%TO.N,BATT-*%
X62750000Y-57000000D03*
%TD*%
D17*
%TO.P,J10,1,Pin_1*%
%TO.N,+3V3*%
X75910000Y-31800000D03*
D18*
%TO.P,J10,2,Pin_2*%
%TO.N,OUT-*%
X73370000Y-31800000D03*
%TO.P,J10,3,Pin_3*%
%TO.N,SCL*%
X70830000Y-31800000D03*
%TO.P,J10,4,Pin_4*%
%TO.N,SDA*%
X68290000Y-31800000D03*
%TD*%
D23*
%TO.P,100\u03A9,1*%
%TO.N,BATT+*%
X86600000Y-52375000D03*
%TO.P,100\u03A9,2*%
%TO.N,Net-(U1-VCC)*%
X86600000Y-54200000D03*
%TD*%
D15*
%TO.P,0\u002C1\u00B5F,1*%
%TO.N,BATT+*%
X75100000Y-50725000D03*
%TO.P,0\u002C1\u00B5F,2*%
%TO.N,OUT-*%
X75100000Y-52625000D03*
%TD*%
D24*
%TO.P,U1,1,OD*%
%TO.N,Net-(Q1-G1)*%
X94875000Y-54100000D03*
%TO.P,U1,2,CS*%
%TO.N,Net-(U1-CS)*%
X94875000Y-53150000D03*
%TO.P,U1,3,OC*%
%TO.N,Net-(Q1-G2)*%
X94875000Y-52200000D03*
%TO.P,U1,4,TD*%
%TO.N,unconnected-(U1-TD-Pad4)*%
X92600000Y-52200000D03*
%TO.P,U1,5,VCC*%
%TO.N,Net-(U1-VCC)*%
X92600000Y-53150000D03*
%TO.P,U1,6,GND*%
%TO.N,BATT-*%
X92600000Y-54100000D03*
%TD*%
D25*
%TO.N,OUT-*%
X100100000Y-51800000D03*
X87900000Y-63500000D03*
X103200000Y-62400000D03*
%TO.N,Net-(U1-CS)*%
X95900000Y-53100000D03*
%TO.N,OUT-*%
X64000000Y-33000000D03*
X82250000Y-28500000D03*
X109500000Y-46750000D03*
X107500000Y-45000000D03*
X103750000Y-36500000D03*
X104168402Y-34000000D03*
X105750000Y-48000000D03*
X109000000Y-41000000D03*
X108000000Y-34250000D03*
X82250000Y-31000000D03*
X67100000Y-56700000D03*
X92100000Y-56200000D03*
X87800000Y-56200000D03*
X98000000Y-56700000D03*
X64000000Y-29250000D03*
X76600000Y-41500000D03*
X81500000Y-37300000D03*
X80000000Y-33500000D03*
X84000000Y-54000000D03*
X66000000Y-39700000D03*
X92500000Y-34900000D03*
X92500000Y-45500000D03*
X92500000Y-40100000D03*
X83600000Y-57200000D03*
X68500000Y-48000000D03*
%TO.N,+3V3*%
X81700000Y-48100000D03*
X81550000Y-54575000D03*
%TO.N,GPIO13*%
X74200000Y-40100000D03*
%TO.N,Net-(Q1-G1)*%
X94150000Y-60150000D03*
X95100000Y-56700000D03*
%TD*%
D10*
%TO.N,Net-(Q1-G2)*%
X98850000Y-60250000D02*
X97100000Y-60250000D01*
X99900000Y-55400000D02*
X99900000Y-59200000D01*
X96700000Y-52200000D02*
X99900000Y-55400000D01*
X94875000Y-52200000D02*
X96700000Y-52200000D01*
X99900000Y-59200000D02*
X98850000Y-60250000D01*
%TO.N,Net-(U1-CS)*%
X95850000Y-53150000D02*
X95900000Y-53100000D01*
X94875000Y-53150000D02*
X95850000Y-53150000D01*
D26*
%TO.N,+3V3*%
X99000000Y-50000000D02*
X91759822Y-42759822D01*
X103250000Y-52000000D02*
X101250000Y-50000000D01*
X91759822Y-42759822D02*
X85797363Y-42759822D01*
X104830000Y-57080000D02*
X103250000Y-55500000D01*
X103250000Y-55500000D02*
X103250000Y-52000000D01*
X101250000Y-50000000D02*
X99000000Y-50000000D01*
X106500000Y-57080000D02*
X104830000Y-57080000D01*
D27*
%TO.N,SCL*%
X81349822Y-32599822D02*
X85797363Y-32599822D01*
X72500000Y-29000000D02*
X77750000Y-29000000D01*
X77750000Y-29000000D02*
X81349822Y-32599822D01*
X70830000Y-30670000D02*
X72500000Y-29000000D01*
X70830000Y-31800000D02*
X70830000Y-30670000D01*
%TO.N,SDA*%
X71590000Y-28500000D02*
X68290000Y-31800000D01*
X84987541Y-29500000D02*
X80875000Y-29500000D01*
X85547363Y-30059822D02*
X84987541Y-29500000D01*
X85797363Y-30059822D02*
X85547363Y-30059822D01*
X80875000Y-29500000D02*
X79875000Y-28500000D01*
X79875000Y-28500000D02*
X71590000Y-28500000D01*
D26*
%TO.N,+3V3*%
X109250000Y-48250000D02*
X106500000Y-45500000D01*
X109250000Y-56000000D02*
X109250000Y-48250000D01*
X106500000Y-45500000D02*
X106500000Y-43750000D01*
X108170000Y-57080000D02*
X109250000Y-56000000D01*
X106500000Y-57080000D02*
X108170000Y-57080000D01*
D10*
%TO.N,GPIO1*%
X105000000Y-41750000D02*
X106500000Y-41750000D01*
X103442499Y-40192499D02*
X105000000Y-41750000D01*
X101135605Y-40192499D02*
X103442499Y-40192499D01*
%TO.N,GPIO2*%
X105236768Y-40750000D02*
X106500000Y-40750000D01*
X102139267Y-37652499D02*
X105236768Y-40750000D01*
X101135605Y-37652499D02*
X102139267Y-37652499D01*
%TO.N,GPIO3*%
X105725001Y-39750000D02*
X106500000Y-39750000D01*
X104750000Y-38774999D02*
X105725001Y-39750000D01*
X104750000Y-36000000D02*
X104750000Y-38774999D01*
X103862499Y-35112499D02*
X104750000Y-36000000D01*
X101135605Y-35112499D02*
X103862499Y-35112499D01*
%TO.N,GPIO4*%
X105500000Y-33750000D02*
X104322499Y-32572499D01*
X105500000Y-37750000D02*
X105500000Y-33750000D01*
X106500000Y-38750000D02*
X105500000Y-37750000D01*
X104322499Y-32572499D02*
X101135605Y-32572499D01*
D26*
%TO.N,+3V3*%
X62800000Y-48000000D02*
X61500000Y-48000000D01*
X66450000Y-44350000D02*
X62800000Y-48000000D01*
X66450000Y-42750000D02*
X66450000Y-44350000D01*
D28*
%TO.N,BATT+*%
X67010000Y-50200000D02*
X70100000Y-50200000D01*
X62750000Y-54460000D02*
X67010000Y-50200000D01*
D10*
%TO.N,Net-(Q1-G1)*%
X94100000Y-60200000D02*
X91540000Y-60200000D01*
X94150000Y-60150000D02*
X94100000Y-60200000D01*
D29*
%TO.N,Net-(U1-VCC)*%
X86600000Y-54200000D02*
X88400000Y-54200000D01*
X89450000Y-53150000D02*
X92600000Y-53150000D01*
X86625000Y-54225000D02*
X86600000Y-54200000D01*
X86625000Y-57725000D02*
X86625000Y-54225000D01*
X88400000Y-54200000D02*
X89450000Y-53150000D01*
D28*
%TO.N,BATT-*%
X86625000Y-60675000D02*
X80925000Y-60675000D01*
D29*
X89200000Y-55700000D02*
X90800000Y-54100000D01*
D28*
X80200000Y-61400000D02*
X67000000Y-61400000D01*
D29*
X88325000Y-60675000D02*
X89200000Y-59800000D01*
X89200000Y-59800000D02*
X89200000Y-55700000D01*
D10*
X91540000Y-58900000D02*
X91540000Y-59550000D01*
X88325000Y-60675000D02*
X89450000Y-59550000D01*
D28*
X86625000Y-60675000D02*
X88325000Y-60675000D01*
D26*
X88325000Y-60675000D02*
X90100000Y-58900000D01*
D29*
X89450000Y-59550000D02*
X91540000Y-59550000D01*
D28*
X80925000Y-60675000D02*
X80200000Y-61400000D01*
D29*
X90100000Y-58900000D02*
X91540000Y-58900000D01*
D28*
X67000000Y-61400000D02*
X62800000Y-57200000D01*
D29*
X90800000Y-54100000D02*
X92600000Y-54100000D01*
D10*
X91720000Y-59525000D02*
X90935118Y-59525000D01*
D28*
%TO.N,BATT+*%
X75100000Y-50200000D02*
X79200000Y-50200000D01*
X80600000Y-51600000D02*
X80600000Y-52200000D01*
X70100000Y-50200000D02*
X75100000Y-50200000D01*
X80701000Y-52099000D02*
X80600000Y-52200000D01*
X86600000Y-52375000D02*
X86324000Y-52099000D01*
X80600000Y-52200000D02*
X80600000Y-52700000D01*
X86324000Y-52099000D02*
X80701000Y-52099000D01*
D10*
X69600000Y-50700000D02*
X70100000Y-50200000D01*
D28*
X79200000Y-50200000D02*
X80600000Y-51600000D01*
D26*
%TO.N,+3V3*%
X70100000Y-58650000D02*
X75100000Y-58650000D01*
X75200000Y-42750000D02*
X66450000Y-42750000D01*
X66450000Y-42750000D02*
X64140000Y-40440000D01*
X79200000Y-42750000D02*
X75200000Y-42750000D01*
X62575000Y-40440000D02*
X61400000Y-39265000D01*
X81550000Y-56450000D02*
X79350000Y-58650000D01*
X85797363Y-42759822D02*
X83840178Y-42759822D01*
X85797363Y-42759822D02*
X85787541Y-42750000D01*
X79350000Y-58650000D02*
X75100000Y-58650000D01*
X81550000Y-54575000D02*
X81550000Y-56450000D01*
X81700000Y-44900000D02*
X81700000Y-48100000D01*
X83840178Y-42759822D02*
X81700000Y-44900000D01*
X64140000Y-40440000D02*
X62575000Y-40440000D01*
X75910000Y-31800000D02*
X75910000Y-35770000D01*
X75910000Y-35770000D02*
X75880000Y-35800000D01*
X85787541Y-42750000D02*
X79200000Y-42750000D01*
%TO.N,GPIO12*%
X81560178Y-35139822D02*
X78200000Y-38500000D01*
X85797363Y-35139822D02*
X81560178Y-35139822D01*
X78200000Y-38500000D02*
X65400000Y-38500000D01*
X63625000Y-36725000D02*
X61400000Y-36725000D01*
X65400000Y-38500000D02*
X63625000Y-36725000D01*
D27*
%TO.N,SCL*%
X68260000Y-35800000D02*
X70830000Y-33230000D01*
X70830000Y-33230000D02*
X70830000Y-31800000D01*
D26*
%TO.N,GPIO13*%
X80500000Y-40100000D02*
X82920178Y-37679822D01*
X74200000Y-40100000D02*
X80500000Y-40100000D01*
X82920178Y-37679822D02*
X85797363Y-37679822D01*
D10*
%TO.N,Net-(Q1-D12-Pad1)*%
X97300000Y-58250000D02*
X91540000Y-58250000D01*
%TO.N,Net-(Q1-G1)*%
X94875000Y-54100000D02*
X94875000Y-56475000D01*
X94875000Y-56475000D02*
X95100000Y-56700000D01*
%TO.N,Net-(Q1-G2)*%
X97300000Y-60200000D02*
X97400000Y-60300000D01*
%TD*%
%TA.AperFunction,Conductor*%
%TO.N,OUT-*%
G36*
X87096644Y-30708796D02*
G01*
X87121132Y-30742264D01*
X88249996Y-32999994D01*
X86817767Y-30851651D01*
X86909906Y-30724834D01*
X86965236Y-30682169D01*
X87034849Y-30676190D01*
X87096644Y-30708796D01*
G37*
%TD.AperFunction*%
%TD*%
%TA.AperFunction,Conductor*%
%TO.N,OUT-*%
G36*
X69123204Y-51209368D02*
G01*
X69123810Y-51207542D01*
X69130665Y-51209813D01*
X69130666Y-51209814D01*
X69297203Y-51264999D01*
X69399991Y-51275500D01*
X69411311Y-51275499D01*
X69443407Y-51279724D01*
X69520943Y-51300501D01*
X69520944Y-51300501D01*
X69679056Y-51300501D01*
X69679057Y-51300501D01*
X69756590Y-51279724D01*
X69788685Y-51275499D01*
X70800002Y-51275499D01*
X70800008Y-51275499D01*
X70902797Y-51264999D01*
X71069334Y-51209814D01*
X71069334Y-51209813D01*
X71076190Y-51207542D01*
X71076795Y-51209368D01*
X71116798Y-51200500D01*
X73819551Y-51200500D01*
X73886590Y-51220185D01*
X73932345Y-51272989D01*
X73937256Y-51285493D01*
X73940186Y-51294334D01*
X74032288Y-51443656D01*
X74156344Y-51567712D01*
X74159628Y-51569737D01*
X74159653Y-51569753D01*
X74161445Y-51571746D01*
X74162011Y-51572193D01*
X74161934Y-51572289D01*
X74206379Y-51621699D01*
X74217603Y-51690661D01*
X74189761Y-51754744D01*
X74159665Y-51780826D01*
X74156660Y-51782679D01*
X74156655Y-51782683D01*
X74032684Y-51906654D01*
X73940643Y-52055875D01*
X73940641Y-52055880D01*
X73885494Y-52222302D01*
X73885493Y-52222309D01*
X73875000Y-52325013D01*
X73875000Y-52375000D01*
X76324999Y-52375000D01*
X76324999Y-52325028D01*
X76324998Y-52325013D01*
X76314505Y-52222302D01*
X76259358Y-52055880D01*
X76259356Y-52055875D01*
X76167315Y-51906654D01*
X76043344Y-51782683D01*
X76043341Y-51782681D01*
X76040339Y-51780829D01*
X76038713Y-51779021D01*
X76037677Y-51778202D01*
X76037817Y-51778024D01*
X75993617Y-51728880D01*
X75982397Y-51659917D01*
X76010243Y-51595836D01*
X76040344Y-51569754D01*
X76043656Y-51567712D01*
X76167712Y-51443656D01*
X76259814Y-51294334D01*
X76262744Y-51285493D01*
X76302518Y-51228049D01*
X76367035Y-51201228D01*
X76380449Y-51200500D01*
X78734218Y-51200500D01*
X78801257Y-51220185D01*
X78821899Y-51236819D01*
X79563181Y-51978101D01*
X79596666Y-52039424D01*
X79599500Y-52065782D01*
X79599500Y-52101459D01*
X79599500Y-52798541D01*
X79599500Y-52798543D01*
X79599499Y-52798543D01*
X79637947Y-52991829D01*
X79637950Y-52991839D01*
X79713364Y-53173907D01*
X79713371Y-53173919D01*
X79778602Y-53271543D01*
X79799480Y-53338220D01*
X79799500Y-53340434D01*
X79799500Y-53353201D01*
X79802401Y-53390067D01*
X79802402Y-53390073D01*
X79848254Y-53547893D01*
X79848255Y-53547896D01*
X79848256Y-53547898D01*
X79882732Y-53606194D01*
X79900000Y-53669314D01*
X79900000Y-54325000D01*
X80450000Y-54325000D01*
X80450000Y-54062000D01*
X80452550Y-54053314D01*
X80451262Y-54044353D01*
X80462240Y-54020312D01*
X80469685Y-53994961D01*
X80476525Y-53989033D01*
X80480287Y-53980797D01*
X80502521Y-53966507D01*
X80522489Y-53949206D01*
X80533003Y-53946918D01*
X80539065Y-53943023D01*
X80574000Y-53938000D01*
X80625500Y-53938000D01*
X80692539Y-53957685D01*
X80738294Y-54010489D01*
X80749500Y-54062000D01*
X80749500Y-56067060D01*
X80729815Y-56134099D01*
X80713181Y-56154741D01*
X79054741Y-57813181D01*
X78993418Y-57846666D01*
X78967060Y-57849500D01*
X76439981Y-57849500D01*
X76372942Y-57829815D01*
X76327187Y-57777011D01*
X76316623Y-57738101D01*
X76314999Y-57722203D01*
X76314998Y-57722200D01*
X76304468Y-57690423D01*
X76259814Y-57555666D01*
X76167712Y-57406344D01*
X76043656Y-57282288D01*
X76040342Y-57280243D01*
X76038546Y-57278248D01*
X76037989Y-57277807D01*
X76038064Y-57277711D01*
X75993618Y-57228297D01*
X75982397Y-57159334D01*
X76010240Y-57095252D01*
X76040348Y-57069165D01*
X76043342Y-57067318D01*
X76167315Y-56943345D01*
X76259356Y-56794124D01*
X76259358Y-56794119D01*
X76314505Y-56627697D01*
X76314506Y-56627690D01*
X76324999Y-56524986D01*
X76325000Y-56524973D01*
X76325000Y-56475000D01*
X73875001Y-56475000D01*
X73875001Y-56524986D01*
X73885494Y-56627697D01*
X73940641Y-56794119D01*
X73940643Y-56794124D01*
X74032684Y-56943345D01*
X74156655Y-57067316D01*
X74156659Y-57067319D01*
X74159656Y-57069168D01*
X74161279Y-57070972D01*
X74162323Y-57071798D01*
X74162181Y-57071976D01*
X74206381Y-57121116D01*
X74217602Y-57190079D01*
X74189759Y-57254161D01*
X74159661Y-57280241D01*
X74156349Y-57282283D01*
X74156343Y-57282288D01*
X74032289Y-57406342D01*
X73940187Y-57555663D01*
X73940185Y-57555668D01*
X73930465Y-57585001D01*
X73889769Y-57707816D01*
X73885001Y-57722204D01*
X73885000Y-57722205D01*
X73883377Y-57738101D01*
X73856982Y-57802793D01*
X73799802Y-57842945D01*
X73760019Y-57849500D01*
X71387230Y-57849500D01*
X71320191Y-57829815D01*
X71299549Y-57813181D01*
X71218657Y-57732289D01*
X71218656Y-57732288D01*
X71125888Y-57675069D01*
X71069336Y-57640187D01*
X71069331Y-57640185D01*
X71038036Y-57629815D01*
X70902797Y-57585001D01*
X70902795Y-57585000D01*
X70800010Y-57574500D01*
X69399998Y-57574500D01*
X69399981Y-57574501D01*
X69297203Y-57585000D01*
X69297200Y-57585001D01*
X69130668Y-57640185D01*
X69130663Y-57640187D01*
X68981342Y-57732289D01*
X68857289Y-57856342D01*
X68765187Y-58005663D01*
X68765186Y-58005666D01*
X68710001Y-58172203D01*
X68710001Y-58172204D01*
X68710000Y-58172204D01*
X68699500Y-58274983D01*
X68699500Y-59025001D01*
X68699501Y-59025019D01*
X68710000Y-59127796D01*
X68710001Y-59127799D01*
X68760123Y-59279056D01*
X68765186Y-59294334D01*
X68857288Y-59443656D01*
X68981344Y-59567712D01*
X69130666Y-59659814D01*
X69297203Y-59714999D01*
X69399991Y-59725500D01*
X70800008Y-59725499D01*
X70902797Y-59714999D01*
X71069334Y-59659814D01*
X71218656Y-59567712D01*
X71299549Y-59486819D01*
X71360872Y-59453334D01*
X71387230Y-59450500D01*
X79428844Y-59450500D01*
X79428845Y-59450499D01*
X79583497Y-59419737D01*
X79729179Y-59359394D01*
X79860289Y-59271789D01*
X82171789Y-56960289D01*
X82259394Y-56829179D01*
X82319737Y-56683497D01*
X82350500Y-56528842D01*
X82350500Y-56371157D01*
X82350500Y-54496158D01*
X82350500Y-53921806D01*
X82347598Y-53884931D01*
X82343870Y-53872100D01*
X82301745Y-53727106D01*
X82301744Y-53727103D01*
X82301744Y-53727102D01*
X82218081Y-53585635D01*
X82218079Y-53585633D01*
X82218076Y-53585629D01*
X82101870Y-53469423D01*
X82101862Y-53469417D01*
X81984483Y-53400000D01*
X81960398Y-53385756D01*
X81960397Y-53385755D01*
X81960396Y-53385755D01*
X81960393Y-53385754D01*
X81811774Y-53342576D01*
X81752888Y-53304970D01*
X81723682Y-53241497D01*
X81733428Y-53172311D01*
X81779032Y-53119376D01*
X81846015Y-53099501D01*
X81846369Y-53099500D01*
X85499270Y-53099500D01*
X85528710Y-53108144D01*
X85558697Y-53114668D01*
X85563712Y-53118422D01*
X85566309Y-53119185D01*
X85586951Y-53135819D01*
X85650951Y-53199819D01*
X85684436Y-53261142D01*
X85679452Y-53330834D01*
X85650951Y-53375181D01*
X85557289Y-53468842D01*
X85465187Y-53618163D01*
X85465185Y-53618168D01*
X85448237Y-53669314D01*
X85410001Y-53784703D01*
X85410001Y-53784704D01*
X85410000Y-53784704D01*
X85399500Y-53887483D01*
X85399500Y-54512501D01*
X85399501Y-54512519D01*
X85410000Y-54615296D01*
X85410001Y-54615299D01*
X85434968Y-54690643D01*
X85465186Y-54781834D01*
X85557288Y-54931156D01*
X85681344Y-55055212D01*
X85830666Y-55147314D01*
X85839498Y-55150240D01*
X85896944Y-55190008D01*
X85923771Y-55254522D01*
X85924500Y-55267948D01*
X85924500Y-57194551D01*
X85904815Y-57261590D01*
X85852011Y-57307345D01*
X85839507Y-57312256D01*
X85830667Y-57315185D01*
X85681342Y-57407289D01*
X85557289Y-57531342D01*
X85465187Y-57680663D01*
X85465185Y-57680668D01*
X85451421Y-57722205D01*
X85410001Y-57847203D01*
X85410001Y-57847204D01*
X85410000Y-57847204D01*
X85399500Y-57949983D01*
X85399500Y-58550001D01*
X85399501Y-58550019D01*
X85410000Y-58652796D01*
X85410001Y-58652799D01*
X85461953Y-58809577D01*
X85465186Y-58819334D01*
X85546561Y-58951265D01*
X85557289Y-58968657D01*
X85681346Y-59092714D01*
X85684182Y-59094463D01*
X85685717Y-59096170D01*
X85687011Y-59097193D01*
X85686836Y-59097414D01*
X85730905Y-59146411D01*
X85742126Y-59215374D01*
X85714282Y-59279456D01*
X85684182Y-59305537D01*
X85681346Y-59307285D01*
X85557289Y-59431342D01*
X85465185Y-59580667D01*
X85462256Y-59589507D01*
X85422482Y-59646951D01*
X85357965Y-59673772D01*
X85344551Y-59674500D01*
X80826458Y-59674500D01*
X80797865Y-59680187D01*
X80797836Y-59680193D01*
X80796195Y-59680520D01*
X80633164Y-59712949D01*
X80617395Y-59719481D01*
X80607705Y-59723494D01*
X80607703Y-59723495D01*
X80451092Y-59788364D01*
X80451079Y-59788371D01*
X80287219Y-59897859D01*
X80229631Y-59955448D01*
X80147861Y-60037218D01*
X80147858Y-60037221D01*
X79821899Y-60363181D01*
X79760576Y-60396666D01*
X79734218Y-60399500D01*
X67465782Y-60399500D01*
X67398743Y-60379815D01*
X67378101Y-60363181D01*
X64136819Y-57121899D01*
X64103334Y-57060576D01*
X64100500Y-57034218D01*
X64100500Y-56893713D01*
X64090279Y-56829179D01*
X64067246Y-56683757D01*
X64001557Y-56481588D01*
X63905051Y-56292184D01*
X63905049Y-56292181D01*
X63905048Y-56292179D01*
X63780109Y-56120213D01*
X63734882Y-56074986D01*
X68700001Y-56074986D01*
X68710494Y-56177697D01*
X68765641Y-56344119D01*
X68765643Y-56344124D01*
X68857684Y-56493345D01*
X68981654Y-56617315D01*
X69130875Y-56709356D01*
X69130880Y-56709358D01*
X69297302Y-56764505D01*
X69297309Y-56764506D01*
X69400019Y-56774999D01*
X69849999Y-56774999D01*
X70350000Y-56774999D01*
X70799972Y-56774999D01*
X70799986Y-56774998D01*
X70902697Y-56764505D01*
X71069119Y-56709358D01*
X71069124Y-56709356D01*
X71218345Y-56617315D01*
X71342315Y-56493345D01*
X71434356Y-56344124D01*
X71434358Y-56344119D01*
X71489505Y-56177697D01*
X71489506Y-56177690D01*
X71499999Y-56074986D01*
X71500000Y-56074973D01*
X71500000Y-55950000D01*
X70350000Y-55950000D01*
X70350000Y-56774999D01*
X69849999Y-56774999D01*
X69850000Y-56774998D01*
X69850000Y-55950000D01*
X68700001Y-55950000D01*
X68700001Y-56074986D01*
X63734882Y-56074986D01*
X63666569Y-56006673D01*
X63666191Y-56005982D01*
X63648387Y-55973375D01*
X63633084Y-55945350D01*
X63633326Y-55941973D01*
X63634313Y-55928162D01*
X63634538Y-55925013D01*
X73875000Y-55925013D01*
X73875000Y-55975000D01*
X74850000Y-55975000D01*
X75350000Y-55975000D01*
X76324999Y-55975000D01*
X76324999Y-55925028D01*
X76324998Y-55925013D01*
X76314505Y-55822302D01*
X76259358Y-55655880D01*
X76259356Y-55655875D01*
X76167315Y-55506654D01*
X76043345Y-55382684D01*
X75894124Y-55290643D01*
X75894119Y-55290641D01*
X75727697Y-55235494D01*
X75727690Y-55235493D01*
X75655808Y-55228149D01*
X78850000Y-55228149D01*
X78852899Y-55264989D01*
X78852900Y-55264995D01*
X78898716Y-55422693D01*
X78898717Y-55422696D01*
X78982314Y-55564052D01*
X78982321Y-55564061D01*
X79098438Y-55680178D01*
X79098447Y-55680185D01*
X79239801Y-55763781D01*
X79397514Y-55809600D01*
X79397511Y-55809600D01*
X79399998Y-55809795D01*
X79400000Y-55809795D01*
X79900000Y-55809795D01*
X79900001Y-55809795D01*
X79902486Y-55809600D01*
X80060198Y-55763781D01*
X80201552Y-55680185D01*
X80201561Y-55680178D01*
X80317678Y-55564061D01*
X80317685Y-55564052D01*
X80401282Y-55422696D01*
X80401283Y-55422693D01*
X80447099Y-55264995D01*
X80447100Y-55264989D01*
X80449999Y-55228149D01*
X80450000Y-55228134D01*
X80450000Y-54825000D01*
X79900000Y-54825000D01*
X79900000Y-55809795D01*
X79400000Y-55809795D01*
X79400000Y-54825000D01*
X78850000Y-54825000D01*
X78850000Y-55228149D01*
X75655808Y-55228149D01*
X75624986Y-55225000D01*
X75350000Y-55225000D01*
X75350000Y-55975000D01*
X74850000Y-55975000D01*
X74850000Y-55225000D01*
X74575029Y-55225000D01*
X74575012Y-55225001D01*
X74472302Y-55235494D01*
X74305880Y-55290641D01*
X74305875Y-55290643D01*
X74156654Y-55382684D01*
X74032684Y-55506654D01*
X73940643Y-55655875D01*
X73940641Y-55655880D01*
X73885494Y-55822302D01*
X73885493Y-55822309D01*
X73875000Y-55925013D01*
X63634538Y-55925013D01*
X63638068Y-55875658D01*
X63679940Y-55819725D01*
X63679940Y-55819724D01*
X63679941Y-55819724D01*
X63710918Y-55802810D01*
X63723740Y-55798027D01*
X63765489Y-55782456D01*
X63765490Y-55782456D01*
X63842328Y-55753797D01*
X63842327Y-55753797D01*
X63842331Y-55753796D01*
X63957546Y-55667546D01*
X64043796Y-55552331D01*
X64094091Y-55417483D01*
X64100500Y-55357873D01*
X64100500Y-55325013D01*
X68700000Y-55325013D01*
X68700000Y-55450000D01*
X69850000Y-55450000D01*
X70350000Y-55450000D01*
X71499999Y-55450000D01*
X71499999Y-55325028D01*
X71499998Y-55325013D01*
X71489505Y-55222302D01*
X71434358Y-55055880D01*
X71434356Y-55055875D01*
X71342315Y-54906654D01*
X71218345Y-54782684D01*
X71069124Y-54690643D01*
X71069119Y-54690641D01*
X70902697Y-54635494D01*
X70902690Y-54635493D01*
X70799986Y-54625000D01*
X70350000Y-54625000D01*
X70350000Y-55450000D01*
X69850000Y-55450000D01*
X69850000Y-54625000D01*
X69400028Y-54625000D01*
X69400012Y-54625001D01*
X69297302Y-54635494D01*
X69130880Y-54690641D01*
X69130875Y-54690643D01*
X68981654Y-54782684D01*
X68857684Y-54906654D01*
X68765643Y-55055875D01*
X68765641Y-55055880D01*
X68710494Y-55222302D01*
X68710493Y-55222309D01*
X68700000Y-55325013D01*
X64100500Y-55325013D01*
X64100499Y-54575780D01*
X64120183Y-54508742D01*
X64136813Y-54488105D01*
X65099933Y-53524986D01*
X68700001Y-53524986D01*
X68710494Y-53627697D01*
X68765641Y-53794119D01*
X68765643Y-53794124D01*
X68857684Y-53943345D01*
X68981654Y-54067315D01*
X69130875Y-54159356D01*
X69130880Y-54159358D01*
X69297302Y-54214505D01*
X69297309Y-54214506D01*
X69400019Y-54224999D01*
X69849999Y-54224999D01*
X70350000Y-54224999D01*
X70799972Y-54224999D01*
X70799986Y-54224998D01*
X70902697Y-54214505D01*
X71069119Y-54159358D01*
X71069124Y-54159356D01*
X71218345Y-54067315D01*
X71342315Y-53943345D01*
X71355573Y-53921850D01*
X78850000Y-53921850D01*
X78850000Y-54325000D01*
X79400000Y-54325000D01*
X79400000Y-53340203D01*
X79397503Y-53340400D01*
X79239806Y-53386216D01*
X79239803Y-53386217D01*
X79098447Y-53469814D01*
X79098438Y-53469821D01*
X78982321Y-53585938D01*
X78982314Y-53585947D01*
X78898717Y-53727303D01*
X78898716Y-53727306D01*
X78852900Y-53885004D01*
X78852899Y-53885010D01*
X78850000Y-53921850D01*
X71355573Y-53921850D01*
X71397223Y-53854326D01*
X71397225Y-53854323D01*
X71434353Y-53794130D01*
X71434358Y-53794119D01*
X71489505Y-53627697D01*
X71489506Y-53627690D01*
X71499999Y-53524986D01*
X71500000Y-53524973D01*
X71500000Y-53400000D01*
X70350000Y-53400000D01*
X70350000Y-54224999D01*
X69849999Y-54224999D01*
X69850000Y-54224998D01*
X69850000Y-53400000D01*
X68700001Y-53400000D01*
X68700001Y-53524986D01*
X65099933Y-53524986D01*
X65699934Y-52924986D01*
X73875001Y-52924986D01*
X73885494Y-53027697D01*
X73940641Y-53194119D01*
X73940643Y-53194124D01*
X74032684Y-53343345D01*
X74156654Y-53467315D01*
X74305875Y-53559356D01*
X74305880Y-53559358D01*
X74472302Y-53614505D01*
X74472309Y-53614506D01*
X74575019Y-53624999D01*
X74849999Y-53624999D01*
X75350000Y-53624999D01*
X75624972Y-53624999D01*
X75624986Y-53624998D01*
X75727697Y-53614505D01*
X75894119Y-53559358D01*
X75894124Y-53559356D01*
X76043345Y-53467315D01*
X76167315Y-53343345D01*
X76259356Y-53194124D01*
X76259358Y-53194119D01*
X76314505Y-53027697D01*
X76314506Y-53027690D01*
X76324999Y-52924986D01*
X76325000Y-52924973D01*
X76325000Y-52875000D01*
X75350000Y-52875000D01*
X75350000Y-53624999D01*
X74849999Y-53624999D01*
X74850000Y-53624998D01*
X74850000Y-52875000D01*
X73875001Y-52875000D01*
X73875001Y-52924986D01*
X65699934Y-52924986D01*
X65849907Y-52775013D01*
X68700000Y-52775013D01*
X68700000Y-52900000D01*
X69850000Y-52900000D01*
X70350000Y-52900000D01*
X71499999Y-52900000D01*
X71499999Y-52775028D01*
X71499998Y-52775013D01*
X71489505Y-52672302D01*
X71434358Y-52505880D01*
X71434356Y-52505875D01*
X71342315Y-52356654D01*
X71218345Y-52232684D01*
X71069124Y-52140643D01*
X71069119Y-52140641D01*
X70902697Y-52085494D01*
X70902690Y-52085493D01*
X70799986Y-52075000D01*
X70350000Y-52075000D01*
X70350000Y-52900000D01*
X69850000Y-52900000D01*
X69850000Y-52075000D01*
X69400028Y-52075000D01*
X69400012Y-52075001D01*
X69297302Y-52085494D01*
X69130880Y-52140641D01*
X69130875Y-52140643D01*
X68981654Y-52232684D01*
X68857684Y-52356654D01*
X68765643Y-52505875D01*
X68765641Y-52505880D01*
X68710494Y-52672302D01*
X68710493Y-52672309D01*
X68700000Y-52775013D01*
X65849907Y-52775013D01*
X67388102Y-51236819D01*
X67449425Y-51203334D01*
X67475783Y-51200500D01*
X69083202Y-51200500D01*
X69123204Y-51209368D01*
G37*
%TD.AperFunction*%
%TA.AperFunction,Conductor*%
G36*
X88894198Y-54799449D02*
G01*
X88940889Y-54851428D01*
X88952067Y-54920397D01*
X88924182Y-54984461D01*
X88916714Y-54992627D01*
X88655890Y-55253451D01*
X88655884Y-55253458D01*
X88610794Y-55320942D01*
X88610794Y-55320943D01*
X88579223Y-55368191D01*
X88579222Y-55368193D01*
X88526421Y-55495667D01*
X88526418Y-55495677D01*
X88499500Y-55631004D01*
X88499500Y-59317060D01*
X88479815Y-59384099D01*
X88463181Y-59404741D01*
X88229741Y-59638181D01*
X88202813Y-59652884D01*
X88176995Y-59669477D01*
X88170794Y-59670368D01*
X88168418Y-59671666D01*
X88142060Y-59674500D01*
X87905449Y-59674500D01*
X87838410Y-59654815D01*
X87792655Y-59602011D01*
X87787744Y-59589507D01*
X87784814Y-59580667D01*
X87784814Y-59580666D01*
X87692712Y-59431344D01*
X87568656Y-59307288D01*
X87565819Y-59305538D01*
X87564283Y-59303830D01*
X87562989Y-59302807D01*
X87563163Y-59302585D01*
X87519096Y-59253594D01*
X87507872Y-59184632D01*
X87535713Y-59120549D01*
X87565817Y-59094462D01*
X87568656Y-59092712D01*
X87692712Y-58968656D01*
X87784814Y-58819334D01*
X87839999Y-58652797D01*
X87850500Y-58550009D01*
X87850499Y-57949992D01*
X87839999Y-57847203D01*
X87784814Y-57680666D01*
X87692712Y-57531344D01*
X87568656Y-57407288D01*
X87419334Y-57315186D01*
X87419333Y-57315185D01*
X87419332Y-57315185D01*
X87410493Y-57312256D01*
X87353049Y-57272482D01*
X87326228Y-57207965D01*
X87325500Y-57194551D01*
X87325500Y-55243557D01*
X87345185Y-55176518D01*
X87384401Y-55138020D01*
X87518656Y-55055212D01*
X87637049Y-54936819D01*
X87698372Y-54903334D01*
X87724730Y-54900500D01*
X88468996Y-54900500D01*
X88561305Y-54882138D01*
X88604328Y-54873580D01*
X88731811Y-54820775D01*
X88760142Y-54801844D01*
X88826818Y-54780966D01*
X88894198Y-54799449D01*
G37*
%TD.AperFunction*%
%TA.AperFunction,Conductor*%
G36*
X93815167Y-54618006D02*
G01*
X93839355Y-54645921D01*
X93839639Y-54645702D01*
X93843679Y-54650911D01*
X93844232Y-54651548D01*
X93844419Y-54651865D01*
X93844421Y-54651867D01*
X93844423Y-54651870D01*
X93960629Y-54768076D01*
X93960633Y-54768079D01*
X93960635Y-54768081D01*
X94102102Y-54851744D01*
X94185097Y-54875856D01*
X94243980Y-54913462D01*
X94273187Y-54976934D01*
X94274500Y-54994932D01*
X94274500Y-56388330D01*
X94274499Y-56388348D01*
X94274499Y-56395943D01*
X94274499Y-56554057D01*
X94291449Y-56617315D01*
X94295275Y-56631592D01*
X94299500Y-56663686D01*
X94299500Y-56778846D01*
X94330261Y-56933489D01*
X94330264Y-56933501D01*
X94390602Y-57079172D01*
X94390609Y-57079185D01*
X94478210Y-57210288D01*
X94478213Y-57210292D01*
X94589707Y-57321786D01*
X94589711Y-57321789D01*
X94720814Y-57409390D01*
X94720821Y-57409394D01*
X94724549Y-57410938D01*
X94778953Y-57454778D01*
X94801019Y-57521072D01*
X94783741Y-57588771D01*
X94732605Y-57636383D01*
X94677098Y-57649500D01*
X91460943Y-57649500D01*
X91308216Y-57690423D01*
X91308209Y-57690426D01*
X91171290Y-57769475D01*
X91171282Y-57769481D01*
X91059479Y-57881284D01*
X91055892Y-57887499D01*
X91005325Y-57935715D01*
X90948504Y-57949500D01*
X90590247Y-57949500D01*
X90531770Y-57961131D01*
X90531769Y-57961132D01*
X90465446Y-58005448D01*
X90422382Y-58069897D01*
X90368769Y-58114702D01*
X90299444Y-58123408D01*
X90295090Y-58122622D01*
X90178846Y-58099500D01*
X90178842Y-58099500D01*
X90024500Y-58099500D01*
X89957461Y-58079815D01*
X89911706Y-58027011D01*
X89900500Y-57975500D01*
X89900500Y-56041519D01*
X89920185Y-55974480D01*
X89936819Y-55953838D01*
X91053838Y-54836819D01*
X91115161Y-54803334D01*
X91141519Y-54800500D01*
X91706531Y-54800500D01*
X91769651Y-54817767D01*
X91827102Y-54851744D01*
X91858304Y-54860809D01*
X91984926Y-54897597D01*
X91984929Y-54897597D01*
X91984931Y-54897598D01*
X92021806Y-54900500D01*
X92181990Y-54900500D01*
X92242937Y-54904158D01*
X92260813Y-54900500D01*
X93178194Y-54900500D01*
X93215069Y-54897598D01*
X93215071Y-54897597D01*
X93215073Y-54897597D01*
X93297735Y-54873581D01*
X93372898Y-54851744D01*
X93514365Y-54768081D01*
X93630581Y-54651865D01*
X93630767Y-54651549D01*
X93630977Y-54651353D01*
X93635361Y-54645702D01*
X93636272Y-54646409D01*
X93681836Y-54603866D01*
X93750577Y-54591362D01*
X93815167Y-54618006D01*
G37*
%TD.AperFunction*%
%TA.AperFunction,Conductor*%
G36*
X85004418Y-27000816D02*
G01*
X85204561Y-27015130D01*
X85222063Y-27017647D01*
X85413795Y-27059355D01*
X85430756Y-27064335D01*
X85509674Y-27093770D01*
X85565606Y-27135641D01*
X85577248Y-27154497D01*
X86243173Y-28486347D01*
X86253311Y-28514902D01*
X86292956Y-28693305D01*
X86288283Y-28763018D01*
X86246662Y-28819138D01*
X86181308Y-28843847D01*
X86142977Y-28840781D01*
X86140199Y-28840114D01*
X85945785Y-28809322D01*
X85945780Y-28809322D01*
X84374101Y-28809322D01*
X84364240Y-28808929D01*
X84317458Y-28805197D01*
X84317445Y-28805196D01*
X83101265Y-28869619D01*
X83091178Y-28870562D01*
X83060611Y-28873423D01*
X83060607Y-28873424D01*
X83054955Y-28873953D01*
X83054906Y-28873434D01*
X83043359Y-28874500D01*
X81185453Y-28874500D01*
X81118414Y-28854815D01*
X81097772Y-28838181D01*
X80370822Y-28111232D01*
X80360859Y-28101269D01*
X80360858Y-28101267D01*
X80273733Y-28014142D01*
X80222509Y-27979915D01*
X80171286Y-27945688D01*
X80171283Y-27945686D01*
X80171280Y-27945685D01*
X80097603Y-27915168D01*
X80097601Y-27915167D01*
X80090792Y-27912347D01*
X80057452Y-27898537D01*
X79997029Y-27886518D01*
X79992306Y-27885578D01*
X79992304Y-27885578D01*
X79936610Y-27874500D01*
X79936607Y-27874500D01*
X79936606Y-27874500D01*
X71651607Y-27874500D01*
X71528393Y-27874500D01*
X71528389Y-27874500D01*
X71477535Y-27884615D01*
X71477530Y-27884616D01*
X71467971Y-27886518D01*
X71407548Y-27898537D01*
X71360397Y-27918067D01*
X71293715Y-27945688D01*
X71293714Y-27945689D01*
X71271347Y-27960633D01*
X71271344Y-27960635D01*
X71191268Y-28014140D01*
X71156960Y-28048449D01*
X71104142Y-28101267D01*
X71104139Y-28101270D01*
X68747837Y-30457571D01*
X68686514Y-30491056D01*
X68621838Y-30487821D01*
X68614219Y-30485345D01*
X68606241Y-30482753D01*
X68435797Y-30455757D01*
X68396287Y-30449500D01*
X68183713Y-30449500D01*
X68135042Y-30457208D01*
X67973760Y-30482753D01*
X67771585Y-30548444D01*
X67582179Y-30644951D01*
X67410213Y-30769890D01*
X67259890Y-30920213D01*
X67134951Y-31092179D01*
X67038444Y-31281585D01*
X67038443Y-31281587D01*
X67038443Y-31281588D01*
X67011338Y-31365008D01*
X66972753Y-31483760D01*
X66939500Y-31693713D01*
X66939500Y-31906286D01*
X66968988Y-32092469D01*
X66972754Y-32116243D01*
X67034733Y-32306995D01*
X67038444Y-32318414D01*
X67134951Y-32507820D01*
X67259890Y-32679786D01*
X67410213Y-32830109D01*
X67582179Y-32955048D01*
X67582181Y-32955049D01*
X67582184Y-32955051D01*
X67771588Y-33051557D01*
X67973757Y-33117246D01*
X68183713Y-33150500D01*
X68183714Y-33150500D01*
X68396286Y-33150500D01*
X68396287Y-33150500D01*
X68606243Y-33117246D01*
X68808412Y-33051557D01*
X68997816Y-32955051D01*
X69084138Y-32892335D01*
X69169786Y-32830109D01*
X69169788Y-32830106D01*
X69169792Y-32830104D01*
X69320104Y-32679792D01*
X69320106Y-32679788D01*
X69320109Y-32679786D01*
X69445048Y-32507820D01*
X69445047Y-32507820D01*
X69445051Y-32507816D01*
X69449514Y-32499054D01*
X69497488Y-32448259D01*
X69565308Y-32431463D01*
X69631444Y-32453999D01*
X69670484Y-32499054D01*
X69674591Y-32507115D01*
X69674951Y-32507820D01*
X69799890Y-32679786D01*
X69950209Y-32830105D01*
X69950214Y-32830109D01*
X70061587Y-32911026D01*
X70104253Y-32966355D01*
X70110232Y-33035969D01*
X70077627Y-33097764D01*
X70076383Y-33099025D01*
X68717837Y-34457571D01*
X68656514Y-34491056D01*
X68591838Y-34487821D01*
X68584219Y-34485345D01*
X68576241Y-34482753D01*
X68405797Y-34455757D01*
X68366287Y-34449500D01*
X68153713Y-34449500D01*
X68105773Y-34457093D01*
X67943760Y-34482753D01*
X67741585Y-34548444D01*
X67552179Y-34644951D01*
X67380213Y-34769890D01*
X67229890Y-34920213D01*
X67104951Y-35092179D01*
X67008444Y-35281585D01*
X66942753Y-35483760D01*
X66919169Y-35632664D01*
X66909500Y-35693713D01*
X66909500Y-35906287D01*
X66917257Y-35955261D01*
X66940689Y-36103210D01*
X66942754Y-36116243D01*
X67004107Y-36305068D01*
X67008444Y-36318414D01*
X67104951Y-36507820D01*
X67229890Y-36679786D01*
X67380213Y-36830109D01*
X67552179Y-36955048D01*
X67552181Y-36955049D01*
X67552184Y-36955051D01*
X67741588Y-37051557D01*
X67943757Y-37117246D01*
X68153713Y-37150500D01*
X68153714Y-37150500D01*
X68366286Y-37150500D01*
X68366287Y-37150500D01*
X68576243Y-37117246D01*
X68778412Y-37051557D01*
X68967816Y-36955051D01*
X69054138Y-36892335D01*
X69139786Y-36830109D01*
X69139788Y-36830106D01*
X69139792Y-36830104D01*
X69290104Y-36679792D01*
X69290106Y-36679788D01*
X69290109Y-36679786D01*
X69375890Y-36561717D01*
X69415051Y-36507816D01*
X69419793Y-36498508D01*
X69467763Y-36447711D01*
X69535583Y-36430911D01*
X69601719Y-36453445D01*
X69640763Y-36498500D01*
X69645373Y-36507547D01*
X69684728Y-36561716D01*
X70317037Y-35929408D01*
X70334075Y-35992993D01*
X70399901Y-36107007D01*
X70492993Y-36200099D01*
X70607007Y-36265925D01*
X70670590Y-36282962D01*
X70038282Y-36915269D01*
X70038282Y-36915270D01*
X70092449Y-36954624D01*
X70281782Y-37051095D01*
X70483870Y-37116757D01*
X70693754Y-37150000D01*
X70906246Y-37150000D01*
X71116127Y-37116757D01*
X71116130Y-37116757D01*
X71318217Y-37051095D01*
X71507554Y-36954622D01*
X71561716Y-36915270D01*
X71561717Y-36915270D01*
X70929408Y-36282962D01*
X70992993Y-36265925D01*
X71107007Y-36200099D01*
X71200099Y-36107007D01*
X71265925Y-35992993D01*
X71282962Y-35929408D01*
X71915270Y-36561717D01*
X71915270Y-36561716D01*
X71954622Y-36507555D01*
X71959232Y-36498507D01*
X72007205Y-36447709D01*
X72075025Y-36430912D01*
X72141161Y-36453447D01*
X72180204Y-36498504D01*
X72184949Y-36507817D01*
X72309890Y-36679786D01*
X72460213Y-36830109D01*
X72632179Y-36955048D01*
X72632181Y-36955049D01*
X72632184Y-36955051D01*
X72821588Y-37051557D01*
X73023757Y-37117246D01*
X73233713Y-37150500D01*
X73233714Y-37150500D01*
X73446286Y-37150500D01*
X73446287Y-37150500D01*
X73656243Y-37117246D01*
X73858412Y-37051557D01*
X74047816Y-36955051D01*
X74152049Y-36879322D01*
X74219784Y-36830110D01*
X74219784Y-36830109D01*
X74219792Y-36830104D01*
X74333329Y-36716566D01*
X74394648Y-36683084D01*
X74464340Y-36688068D01*
X74520274Y-36729939D01*
X74537189Y-36760917D01*
X74586202Y-36892328D01*
X74586206Y-36892335D01*
X74672452Y-37007544D01*
X74672455Y-37007547D01*
X74787664Y-37093793D01*
X74787671Y-37093797D01*
X74922517Y-37144091D01*
X74922516Y-37144091D01*
X74929444Y-37144835D01*
X74982127Y-37150500D01*
X76777872Y-37150499D01*
X76837483Y-37144091D01*
X76972331Y-37093796D01*
X77087546Y-37007546D01*
X77173796Y-36892331D01*
X77224091Y-36757483D01*
X77230500Y-36697873D01*
X77230499Y-34902128D01*
X77224577Y-34847042D01*
X77224091Y-34842516D01*
X77173797Y-34707671D01*
X77173793Y-34707664D01*
X77087547Y-34592455D01*
X77087544Y-34592452D01*
X76972335Y-34506206D01*
X76972328Y-34506202D01*
X76837483Y-34455909D01*
X76821240Y-34454162D01*
X76756690Y-34427421D01*
X76716844Y-34370027D01*
X76710500Y-34330873D01*
X76710500Y-33272351D01*
X76730185Y-33205312D01*
X76782989Y-33159557D01*
X76821247Y-33149061D01*
X76867483Y-33144091D01*
X77002331Y-33093796D01*
X77117546Y-33007546D01*
X77203796Y-32892331D01*
X77254091Y-32757483D01*
X77260500Y-32697873D01*
X77260499Y-30902128D01*
X77254589Y-30847146D01*
X77254091Y-30842516D01*
X77203797Y-30707671D01*
X77203793Y-30707664D01*
X77117547Y-30592455D01*
X77117544Y-30592452D01*
X77002335Y-30506206D01*
X77002328Y-30506202D01*
X76867482Y-30455908D01*
X76867483Y-30455908D01*
X76807883Y-30449501D01*
X76807881Y-30449500D01*
X76807873Y-30449500D01*
X76807864Y-30449500D01*
X75012129Y-30449500D01*
X75012123Y-30449501D01*
X74952516Y-30455908D01*
X74817671Y-30506202D01*
X74817664Y-30506206D01*
X74702455Y-30592452D01*
X74702452Y-30592455D01*
X74616206Y-30707664D01*
X74616202Y-30707671D01*
X74565908Y-30842517D01*
X74559501Y-30902116D01*
X74559501Y-30902123D01*
X74559500Y-30902135D01*
X74559500Y-30912690D01*
X74539815Y-30979729D01*
X74523181Y-31000371D01*
X73852962Y-31670590D01*
X73835925Y-31607007D01*
X73770099Y-31492993D01*
X73677007Y-31399901D01*
X73562993Y-31334075D01*
X73499409Y-31317037D01*
X74131716Y-30684728D01*
X74077550Y-30645375D01*
X73888217Y-30548904D01*
X73686129Y-30483242D01*
X73476246Y-30450000D01*
X73263754Y-30450000D01*
X73053872Y-30483242D01*
X73053869Y-30483242D01*
X72851782Y-30548904D01*
X72662439Y-30645380D01*
X72608282Y-30684727D01*
X72608282Y-30684728D01*
X73240591Y-31317037D01*
X73177007Y-31334075D01*
X73062993Y-31399901D01*
X72969901Y-31492993D01*
X72904075Y-31607007D01*
X72887037Y-31670591D01*
X72254728Y-31038282D01*
X72254727Y-31038282D01*
X72215380Y-31092440D01*
X72215376Y-31092446D01*
X72210760Y-31101505D01*
X72162781Y-31152297D01*
X72094959Y-31169087D01*
X72028826Y-31146543D01*
X71989794Y-31101493D01*
X71985051Y-31092184D01*
X71985049Y-31092181D01*
X71985048Y-31092179D01*
X71860109Y-30920213D01*
X71749923Y-30810027D01*
X71716438Y-30748704D01*
X71721422Y-30679012D01*
X71749920Y-30634668D01*
X72722772Y-29661819D01*
X72784095Y-29628334D01*
X72810453Y-29625500D01*
X77439548Y-29625500D01*
X77506587Y-29645185D01*
X77527229Y-29661819D01*
X80863961Y-32998551D01*
X80863964Y-32998555D01*
X80951089Y-33085680D01*
X80998331Y-33117246D01*
X81053536Y-33154134D01*
X81130672Y-33186084D01*
X81167370Y-33201285D01*
X81227793Y-33213303D01*
X81288215Y-33225322D01*
X81288216Y-33225322D01*
X82711458Y-33225322D01*
X82763876Y-33236945D01*
X83073313Y-33381285D01*
X83701885Y-33674488D01*
X83705761Y-33676379D01*
X83867251Y-33758662D01*
X83918047Y-33806636D01*
X83934842Y-33874457D01*
X83912305Y-33940592D01*
X83857590Y-33984044D01*
X83849309Y-33987067D01*
X82958206Y-34276892D01*
X82792238Y-34330873D01*
X82784954Y-34333242D01*
X82746601Y-34339322D01*
X81481333Y-34339322D01*
X81395072Y-34356481D01*
X81395071Y-34356481D01*
X81326688Y-34370083D01*
X81326676Y-34370086D01*
X81181005Y-34430424D01*
X81180992Y-34430431D01*
X81049890Y-34518031D01*
X81019479Y-34548443D01*
X80938389Y-34629533D01*
X77904741Y-37663181D01*
X77843418Y-37696666D01*
X77817060Y-37699500D01*
X65782940Y-37699500D01*
X65715901Y-37679815D01*
X65695259Y-37663181D01*
X64135292Y-36103213D01*
X64135288Y-36103210D01*
X64004185Y-36015609D01*
X64004172Y-36015602D01*
X63858501Y-35955264D01*
X63858489Y-35955261D01*
X63703845Y-35924500D01*
X63703842Y-35924500D01*
X62872351Y-35924500D01*
X62805312Y-35904815D01*
X62759557Y-35852011D01*
X62749061Y-35813752D01*
X62744091Y-35767516D01*
X62693797Y-35632671D01*
X62693793Y-35632664D01*
X62607547Y-35517455D01*
X62607544Y-35517452D01*
X62492335Y-35431206D01*
X62492328Y-35431202D01*
X62357482Y-35380908D01*
X62357483Y-35380908D01*
X62297883Y-35374501D01*
X62297881Y-35374500D01*
X62297873Y-35374500D01*
X62297864Y-35374500D01*
X60502129Y-35374500D01*
X60502123Y-35374501D01*
X60442516Y-35380908D01*
X60307671Y-35431202D01*
X60307664Y-35431206D01*
X60192455Y-35517452D01*
X60192452Y-35517455D01*
X60106206Y-35632664D01*
X60106202Y-35632671D01*
X60055908Y-35767517D01*
X60049501Y-35827116D01*
X60049500Y-35827135D01*
X60049500Y-37622870D01*
X60049501Y-37622876D01*
X60055908Y-37682483D01*
X60106202Y-37817328D01*
X60106206Y-37817335D01*
X60192452Y-37932544D01*
X60192455Y-37932547D01*
X60307664Y-38018793D01*
X60307671Y-38018797D01*
X60439082Y-38067810D01*
X60495016Y-38109681D01*
X60519433Y-38175145D01*
X60504582Y-38243418D01*
X60483431Y-38271673D01*
X60369889Y-38385215D01*
X60244951Y-38557179D01*
X60148444Y-38746585D01*
X60082753Y-38948760D01*
X60055349Y-39121786D01*
X60049500Y-39158713D01*
X60049500Y-39371287D01*
X60050540Y-39377851D01*
X60075318Y-39534298D01*
X60082754Y-39581243D01*
X60131286Y-39730609D01*
X60148444Y-39783414D01*
X60244951Y-39972820D01*
X60369890Y-40144786D01*
X60520213Y-40295109D01*
X60692179Y-40420048D01*
X60692181Y-40420049D01*
X60692184Y-40420051D01*
X60881588Y-40516557D01*
X61083757Y-40582246D01*
X61293713Y-40615500D01*
X61293714Y-40615500D01*
X61506285Y-40615500D01*
X61506287Y-40615500D01*
X61540686Y-40610051D01*
X61609977Y-40619005D01*
X61647765Y-40644843D01*
X61953211Y-40950289D01*
X62010067Y-41007145D01*
X62064712Y-41061790D01*
X62195814Y-41149390D01*
X62195827Y-41149397D01*
X62341498Y-41209735D01*
X62341503Y-41209737D01*
X62496153Y-41240499D01*
X62496156Y-41240500D01*
X62496158Y-41240500D01*
X63757060Y-41240500D01*
X63824099Y-41260185D01*
X63844741Y-41276819D01*
X65613181Y-43045258D01*
X65646666Y-43106581D01*
X65649500Y-43132939D01*
X65649500Y-43967059D01*
X65629815Y-44034098D01*
X65613181Y-44054740D01*
X63005441Y-46662479D01*
X62944118Y-46695964D01*
X62874426Y-46690980D01*
X62818493Y-46649108D01*
X62794076Y-46583644D01*
X62801577Y-46531467D01*
X62844091Y-46417483D01*
X62850500Y-46357873D01*
X62850499Y-44562128D01*
X62844341Y-44504843D01*
X62844091Y-44502516D01*
X62793797Y-44367671D01*
X62793793Y-44367664D01*
X62707547Y-44252455D01*
X62707544Y-44252452D01*
X62592335Y-44166206D01*
X62592328Y-44166202D01*
X62457482Y-44115908D01*
X62457483Y-44115908D01*
X62397883Y-44109501D01*
X62397881Y-44109500D01*
X62397873Y-44109500D01*
X62397864Y-44109500D01*
X60602129Y-44109500D01*
X60602123Y-44109501D01*
X60542516Y-44115908D01*
X60407671Y-44166202D01*
X60407664Y-44166206D01*
X60292455Y-44252452D01*
X60292452Y-44252455D01*
X60206206Y-44367664D01*
X60206202Y-44367671D01*
X60155908Y-44502517D01*
X60150538Y-44552471D01*
X60149501Y-44562123D01*
X60149500Y-44562135D01*
X60149500Y-46357870D01*
X60149501Y-46357876D01*
X60155908Y-46417483D01*
X60206202Y-46552328D01*
X60206206Y-46552335D01*
X60292452Y-46667544D01*
X60292455Y-46667547D01*
X60407664Y-46753793D01*
X60407671Y-46753797D01*
X60539082Y-46802810D01*
X60595016Y-46844681D01*
X60619433Y-46910145D01*
X60604582Y-46978418D01*
X60583431Y-47006673D01*
X60469889Y-47120215D01*
X60344951Y-47292179D01*
X60248444Y-47481585D01*
X60182753Y-47683760D01*
X60153127Y-47870814D01*
X60149500Y-47893713D01*
X60149500Y-48106287D01*
X60182754Y-48316243D01*
X60239159Y-48489840D01*
X60248444Y-48518414D01*
X60344951Y-48707820D01*
X60469890Y-48879786D01*
X60620213Y-49030109D01*
X60792179Y-49155048D01*
X60792181Y-49155049D01*
X60792184Y-49155051D01*
X60981588Y-49251557D01*
X61183757Y-49317246D01*
X61393713Y-49350500D01*
X61393714Y-49350500D01*
X61606286Y-49350500D01*
X61606287Y-49350500D01*
X61816243Y-49317246D01*
X62018412Y-49251557D01*
X62207816Y-49155051D01*
X62334516Y-49062999D01*
X62379786Y-49030109D01*
X62379788Y-49030106D01*
X62379792Y-49030104D01*
X62530104Y-48879792D01*
X62550577Y-48851613D01*
X62605906Y-48808949D01*
X62650894Y-48800500D01*
X62878844Y-48800500D01*
X62878845Y-48800499D01*
X63033497Y-48769737D01*
X63179179Y-48709394D01*
X63310289Y-48621789D01*
X64962182Y-46969896D01*
X66457093Y-45474986D01*
X73975001Y-45474986D01*
X73985494Y-45577697D01*
X74040641Y-45744119D01*
X74040643Y-45744124D01*
X74132684Y-45893345D01*
X74256654Y-46017315D01*
X74405875Y-46109356D01*
X74405880Y-46109358D01*
X74572302Y-46164505D01*
X74572309Y-46164506D01*
X74675019Y-46174999D01*
X74949999Y-46174999D01*
X75450000Y-46174999D01*
X75724972Y-46174999D01*
X75724986Y-46174998D01*
X75827697Y-46164505D01*
X75994119Y-46109358D01*
X75994124Y-46109356D01*
X76049846Y-46074986D01*
X77800001Y-46074986D01*
X77810494Y-46177697D01*
X77865641Y-46344119D01*
X77865643Y-46344124D01*
X77957684Y-46493345D01*
X78081654Y-46617315D01*
X78230875Y-46709356D01*
X78230880Y-46709358D01*
X78397302Y-46764505D01*
X78397309Y-46764506D01*
X78500019Y-46774999D01*
X78949999Y-46774999D01*
X79450000Y-46774999D01*
X79899972Y-46774999D01*
X79899986Y-46774998D01*
X80002697Y-46764505D01*
X80169119Y-46709358D01*
X80169124Y-46709356D01*
X80318345Y-46617315D01*
X80442315Y-46493345D01*
X80534356Y-46344124D01*
X80534358Y-46344119D01*
X80589505Y-46177697D01*
X80589506Y-46177690D01*
X80599999Y-46074986D01*
X80600000Y-46074973D01*
X80600000Y-45950000D01*
X79450000Y-45950000D01*
X79450000Y-46774999D01*
X78949999Y-46774999D01*
X78950000Y-46774998D01*
X78950000Y-45950000D01*
X77800001Y-45950000D01*
X77800001Y-46074986D01*
X76049846Y-46074986D01*
X76143345Y-46017315D01*
X76267317Y-45893343D01*
X76304203Y-45833542D01*
X76304203Y-45833541D01*
X76359353Y-45744130D01*
X76359358Y-45744119D01*
X76414505Y-45577697D01*
X76414506Y-45577690D01*
X76424999Y-45474986D01*
X76425000Y-45474973D01*
X76425000Y-45425000D01*
X75450000Y-45425000D01*
X75450000Y-46174999D01*
X74949999Y-46174999D01*
X74950000Y-46174998D01*
X74950000Y-45425000D01*
X73975001Y-45425000D01*
X73975001Y-45474986D01*
X66457093Y-45474986D01*
X66607066Y-45325013D01*
X77800000Y-45325013D01*
X77800000Y-45450000D01*
X78950000Y-45450000D01*
X79450000Y-45450000D01*
X80599999Y-45450000D01*
X80599999Y-45325028D01*
X80599998Y-45325013D01*
X80589505Y-45222302D01*
X80534358Y-45055880D01*
X80534356Y-45055875D01*
X80442315Y-44906654D01*
X80318345Y-44782684D01*
X80169124Y-44690643D01*
X80169119Y-44690641D01*
X80002697Y-44635494D01*
X80002690Y-44635493D01*
X79899986Y-44625000D01*
X79450000Y-44625000D01*
X79450000Y-45450000D01*
X78950000Y-45450000D01*
X78950000Y-44625000D01*
X78500028Y-44625000D01*
X78500012Y-44625001D01*
X78397302Y-44635494D01*
X78230880Y-44690641D01*
X78230875Y-44690643D01*
X78081654Y-44782684D01*
X77957684Y-44906654D01*
X77865643Y-45055875D01*
X77865641Y-45055880D01*
X77810494Y-45222302D01*
X77810493Y-45222309D01*
X77800000Y-45325013D01*
X66607066Y-45325013D01*
X66646122Y-45285957D01*
X67071786Y-44860292D01*
X67071789Y-44860289D01*
X67159394Y-44729179D01*
X67219738Y-44583497D01*
X67250500Y-44428842D01*
X67250500Y-44271157D01*
X67250500Y-43674500D01*
X67270185Y-43607461D01*
X67322989Y-43561706D01*
X67374500Y-43550500D01*
X73860019Y-43550500D01*
X73927058Y-43570185D01*
X73972813Y-43622989D01*
X73983377Y-43661899D01*
X73985000Y-43677796D01*
X73985001Y-43677799D01*
X74012963Y-43762181D01*
X74040186Y-43844334D01*
X74132288Y-43993656D01*
X74256344Y-44117712D01*
X74259628Y-44119737D01*
X74259653Y-44119753D01*
X74261445Y-44121746D01*
X74262011Y-44122193D01*
X74261934Y-44122289D01*
X74306379Y-44171699D01*
X74317603Y-44240661D01*
X74289761Y-44304744D01*
X74259665Y-44330826D01*
X74256660Y-44332679D01*
X74256655Y-44332683D01*
X74132684Y-44456654D01*
X74040643Y-44605875D01*
X74040641Y-44605880D01*
X73985494Y-44772302D01*
X73985493Y-44772309D01*
X73975000Y-44875013D01*
X73975000Y-44925000D01*
X76424999Y-44925000D01*
X76424999Y-44875028D01*
X76424998Y-44875013D01*
X76414505Y-44772302D01*
X76359358Y-44605880D01*
X76359356Y-44605875D01*
X76267315Y-44456654D01*
X76143344Y-44332683D01*
X76143341Y-44332681D01*
X76140339Y-44330829D01*
X76138713Y-44329021D01*
X76137677Y-44328202D01*
X76137817Y-44328024D01*
X76093617Y-44278880D01*
X76082397Y-44209917D01*
X76110243Y-44145836D01*
X76140344Y-44119754D01*
X76143656Y-44117712D01*
X76267712Y-43993656D01*
X76359814Y-43844334D01*
X76414999Y-43677797D01*
X76416623Y-43661898D01*
X76443018Y-43597207D01*
X76500198Y-43557055D01*
X76539981Y-43550500D01*
X77912770Y-43550500D01*
X77979809Y-43570185D01*
X78000451Y-43586819D01*
X78081344Y-43667712D01*
X78230666Y-43759814D01*
X78397203Y-43814999D01*
X78499991Y-43825500D01*
X79900008Y-43825499D01*
X80002797Y-43814999D01*
X80169334Y-43759814D01*
X80318656Y-43667712D01*
X80399549Y-43586819D01*
X80460872Y-43553334D01*
X80487230Y-43550500D01*
X81618060Y-43550500D01*
X81685099Y-43570185D01*
X81730854Y-43622989D01*
X81740798Y-43692147D01*
X81711773Y-43755703D01*
X81705741Y-43762181D01*
X81189711Y-44278211D01*
X81149251Y-44318671D01*
X81078209Y-44389712D01*
X80990609Y-44520814D01*
X80990602Y-44520827D01*
X80930264Y-44666498D01*
X80930261Y-44666510D01*
X80899500Y-44821153D01*
X80899500Y-48178846D01*
X80930261Y-48333489D01*
X80930264Y-48333501D01*
X80990602Y-48479172D01*
X80990609Y-48479185D01*
X81078210Y-48610288D01*
X81078213Y-48610292D01*
X81189707Y-48721786D01*
X81189711Y-48721789D01*
X81320814Y-48809390D01*
X81320827Y-48809397D01*
X81466498Y-48869735D01*
X81466503Y-48869737D01*
X81621153Y-48900499D01*
X81621156Y-48900500D01*
X81621158Y-48900500D01*
X81778844Y-48900500D01*
X81778845Y-48900499D01*
X81933497Y-48869737D01*
X82079179Y-48809394D01*
X82210289Y-48721789D01*
X82321789Y-48610289D01*
X82409394Y-48479179D01*
X82469737Y-48333497D01*
X82500500Y-48178842D01*
X82500500Y-48021158D01*
X82500500Y-45282939D01*
X82520185Y-45215900D01*
X82536814Y-45195262D01*
X82956978Y-44775099D01*
X83018298Y-44741616D01*
X83087989Y-44746600D01*
X83143923Y-44788471D01*
X83168340Y-44853936D01*
X83162587Y-44901100D01*
X83128144Y-45007103D01*
X83121379Y-45049822D01*
X85364351Y-45049822D01*
X85331438Y-45106829D01*
X85297363Y-45233996D01*
X85297363Y-45365648D01*
X85331438Y-45492815D01*
X85364351Y-45549822D01*
X83121379Y-45549822D01*
X83128144Y-45592538D01*
X83188944Y-45779659D01*
X83278267Y-45954965D01*
X83393918Y-46114143D01*
X83533041Y-46253266D01*
X83621218Y-46317331D01*
X83663883Y-46372662D01*
X83669862Y-46442275D01*
X83637256Y-46504070D01*
X83587338Y-46535354D01*
X83528034Y-46555006D01*
X83528026Y-46555009D01*
X83378705Y-46647111D01*
X83254652Y-46771164D01*
X83162550Y-46920485D01*
X83162549Y-46920488D01*
X83107364Y-47087025D01*
X83107364Y-47087026D01*
X83107363Y-47087026D01*
X83096863Y-47189805D01*
X83096863Y-48489823D01*
X83096864Y-48489840D01*
X83107363Y-48592618D01*
X83107364Y-48592621D01*
X83145538Y-48707820D01*
X83162549Y-48759156D01*
X83254651Y-48908478D01*
X83378707Y-49032534D01*
X83528029Y-49124636D01*
X83694566Y-49179821D01*
X83797354Y-49190322D01*
X86397371Y-49190321D01*
X86500160Y-49179821D01*
X86666697Y-49124636D01*
X86816019Y-49032534D01*
X86940075Y-48908478D01*
X87032177Y-48759156D01*
X87087362Y-48592619D01*
X87097863Y-48489831D01*
X87097862Y-47189814D01*
X87087362Y-47087025D01*
X87032177Y-46920488D01*
X86940075Y-46771166D01*
X86816019Y-46647110D01*
X86713124Y-46583644D01*
X86666699Y-46555009D01*
X86666698Y-46555008D01*
X86666697Y-46555008D01*
X86607387Y-46535354D01*
X86549943Y-46495581D01*
X86523121Y-46431065D01*
X86535437Y-46362290D01*
X86573508Y-46317331D01*
X86661679Y-46253270D01*
X86661685Y-46253265D01*
X86800807Y-46114143D01*
X86916458Y-45954965D01*
X87005781Y-45779659D01*
X87066581Y-45592538D01*
X87073347Y-45549822D01*
X86230375Y-45549822D01*
X86263288Y-45492815D01*
X86297363Y-45365648D01*
X86297363Y-45233996D01*
X86263288Y-45106829D01*
X86230375Y-45049822D01*
X87073347Y-45049822D01*
X87066581Y-45007105D01*
X87005781Y-44819984D01*
X86916458Y-44644678D01*
X86800807Y-44485500D01*
X86661684Y-44346377D01*
X86502506Y-44230726D01*
X86326797Y-44141198D01*
X86276001Y-44093223D01*
X86259206Y-44025403D01*
X86281743Y-43959268D01*
X86336458Y-43915816D01*
X86344714Y-43912802D01*
X87409769Y-43566401D01*
X87448121Y-43560322D01*
X91376882Y-43560322D01*
X91443921Y-43580007D01*
X91464563Y-43596641D01*
X98378211Y-50510289D01*
X98489711Y-50621789D01*
X98489712Y-50621790D01*
X98620814Y-50709390D01*
X98620827Y-50709397D01*
X98766498Y-50769735D01*
X98766503Y-50769737D01*
X98921153Y-50800499D01*
X98921156Y-50800500D01*
X98921158Y-50800500D01*
X100867060Y-50800500D01*
X100934099Y-50820185D01*
X100954741Y-50836819D01*
X102413181Y-52295259D01*
X102446666Y-52356582D01*
X102449500Y-52382940D01*
X102449500Y-55578846D01*
X102480261Y-55733489D01*
X102480264Y-55733501D01*
X102540602Y-55879172D01*
X102540609Y-55879185D01*
X102628210Y-56010288D01*
X102628213Y-56010292D01*
X104208211Y-57590289D01*
X104267422Y-57649500D01*
X104319712Y-57701790D01*
X104450814Y-57789390D01*
X104450821Y-57789394D01*
X104536763Y-57824992D01*
X104596502Y-57849737D01*
X104747568Y-57879786D01*
X104751152Y-57880499D01*
X104751155Y-57880500D01*
X104751157Y-57880500D01*
X104751158Y-57880500D01*
X104834640Y-57880500D01*
X104901679Y-57900185D01*
X104947434Y-57952989D01*
X104952345Y-57965493D01*
X104970186Y-58019334D01*
X105062288Y-58168656D01*
X105186344Y-58292712D01*
X105335666Y-58384814D01*
X105502203Y-58439999D01*
X105604991Y-58450500D01*
X107395008Y-58450499D01*
X107497797Y-58439999D01*
X107664334Y-58384814D01*
X107813656Y-58292712D01*
X107937712Y-58168656D01*
X108029814Y-58019334D01*
X108047654Y-57965495D01*
X108087427Y-57908051D01*
X108151943Y-57881228D01*
X108165360Y-57880500D01*
X108248844Y-57880500D01*
X108248845Y-57880499D01*
X108403497Y-57849737D01*
X108549179Y-57789394D01*
X108680289Y-57701789D01*
X109871789Y-56510289D01*
X109959394Y-56379179D01*
X110011439Y-56253531D01*
X110055280Y-56199129D01*
X110121574Y-56177064D01*
X110189274Y-56194343D01*
X110236884Y-56245481D01*
X110250000Y-56300985D01*
X110250000Y-64784728D01*
X110243761Y-64805973D01*
X110242182Y-64828061D01*
X110231568Y-64847497D01*
X110230315Y-64851767D01*
X110225267Y-64859038D01*
X110156942Y-64950310D01*
X110101009Y-64992182D01*
X110057675Y-65000000D01*
X57942325Y-65000000D01*
X57875286Y-64980315D01*
X57843058Y-64950310D01*
X57774733Y-64859038D01*
X57750316Y-64793574D01*
X57750000Y-64784728D01*
X57750000Y-62893713D01*
X58649500Y-62893713D01*
X58649500Y-63106286D01*
X58682753Y-63316239D01*
X58748444Y-63518414D01*
X58844951Y-63707820D01*
X58969890Y-63879786D01*
X59120213Y-64030109D01*
X59292179Y-64155048D01*
X59292181Y-64155049D01*
X59292184Y-64155051D01*
X59481588Y-64251557D01*
X59683757Y-64317246D01*
X59893713Y-64350500D01*
X59893714Y-64350500D01*
X60106286Y-64350500D01*
X60106287Y-64350500D01*
X60316243Y-64317246D01*
X60518412Y-64251557D01*
X60707816Y-64155051D01*
X60729789Y-64139086D01*
X60879786Y-64030109D01*
X60879788Y-64030106D01*
X60879792Y-64030104D01*
X61030104Y-63879792D01*
X61030106Y-63879788D01*
X61030109Y-63879786D01*
X61155048Y-63707820D01*
X61155047Y-63707820D01*
X61155051Y-63707816D01*
X61251557Y-63518412D01*
X61317246Y-63316243D01*
X61350500Y-63106287D01*
X61350500Y-62893713D01*
X106649500Y-62893713D01*
X106649500Y-63106286D01*
X106682753Y-63316239D01*
X106748444Y-63518414D01*
X106844951Y-63707820D01*
X106969890Y-63879786D01*
X107120213Y-64030109D01*
X107292179Y-64155048D01*
X107292181Y-64155049D01*
X107292184Y-64155051D01*
X107481588Y-64251557D01*
X107683757Y-64317246D01*
X107893713Y-64350500D01*
X107893714Y-64350500D01*
X108106286Y-64350500D01*
X108106287Y-64350500D01*
X108316243Y-64317246D01*
X108518412Y-64251557D01*
X108707816Y-64155051D01*
X108729789Y-64139086D01*
X108879786Y-64030109D01*
X108879788Y-64030106D01*
X108879792Y-64030104D01*
X109030104Y-63879792D01*
X109030106Y-63879788D01*
X109030109Y-63879786D01*
X109155048Y-63707820D01*
X109155047Y-63707820D01*
X109155051Y-63707816D01*
X109251557Y-63518412D01*
X109317246Y-63316243D01*
X109350500Y-63106287D01*
X109350500Y-62893713D01*
X109317246Y-62683757D01*
X109251557Y-62481588D01*
X109155051Y-62292184D01*
X109155049Y-62292181D01*
X109155048Y-62292179D01*
X109030109Y-62120213D01*
X108879786Y-61969890D01*
X108707820Y-61844951D01*
X108518414Y-61748444D01*
X108518413Y-61748443D01*
X108518412Y-61748443D01*
X108316243Y-61682754D01*
X108316241Y-61682753D01*
X108316240Y-61682753D01*
X108154957Y-61657208D01*
X108106287Y-61649500D01*
X107893713Y-61649500D01*
X107845042Y-61657208D01*
X107683760Y-61682753D01*
X107481585Y-61748444D01*
X107292179Y-61844951D01*
X107120213Y-61969890D01*
X106969890Y-62120213D01*
X106844951Y-62292179D01*
X106748444Y-62481585D01*
X106682753Y-62683760D01*
X106649500Y-62893713D01*
X61350500Y-62893713D01*
X61317246Y-62683757D01*
X61251557Y-62481588D01*
X61155051Y-62292184D01*
X61155049Y-62292181D01*
X61155048Y-62292179D01*
X61030109Y-62120213D01*
X60879786Y-61969890D01*
X60707820Y-61844951D01*
X60518414Y-61748444D01*
X60518413Y-61748443D01*
X60518412Y-61748443D01*
X60316243Y-61682754D01*
X60316241Y-61682753D01*
X60316240Y-61682753D01*
X60154957Y-61657208D01*
X60106287Y-61649500D01*
X59893713Y-61649500D01*
X59845042Y-61657208D01*
X59683760Y-61682753D01*
X59481585Y-61748444D01*
X59292179Y-61844951D01*
X59120213Y-61969890D01*
X58969890Y-62120213D01*
X58844951Y-62292179D01*
X58748444Y-62481585D01*
X58682753Y-62683760D01*
X58649500Y-62893713D01*
X57750000Y-62893713D01*
X57750000Y-53562135D01*
X61399500Y-53562135D01*
X61399500Y-55357870D01*
X61399501Y-55357876D01*
X61405908Y-55417483D01*
X61456202Y-55552328D01*
X61456206Y-55552335D01*
X61542452Y-55667544D01*
X61542455Y-55667547D01*
X61657664Y-55753793D01*
X61657671Y-55753797D01*
X61789082Y-55802810D01*
X61845016Y-55844681D01*
X61869433Y-55910145D01*
X61854582Y-55978418D01*
X61833431Y-56006673D01*
X61719889Y-56120215D01*
X61594951Y-56292179D01*
X61498444Y-56481585D01*
X61432753Y-56683760D01*
X61399500Y-56893713D01*
X61399500Y-57106286D01*
X61432586Y-57315186D01*
X61432754Y-57316243D01*
X61495012Y-57507853D01*
X61498444Y-57518414D01*
X61594951Y-57707820D01*
X61719890Y-57879786D01*
X61870213Y-58030109D01*
X62042179Y-58155048D01*
X62042181Y-58155049D01*
X62042184Y-58155051D01*
X62075847Y-58172203D01*
X62231583Y-58251555D01*
X62231585Y-58251555D01*
X62231588Y-58251557D01*
X62306474Y-58275889D01*
X62433750Y-58317244D01*
X62433751Y-58317244D01*
X62433757Y-58317246D01*
X62475438Y-58323847D01*
X62538570Y-58353775D01*
X62543719Y-58358639D01*
X66219735Y-62034655D01*
X66219764Y-62034686D01*
X66362214Y-62177136D01*
X66362218Y-62177139D01*
X66526079Y-62286628D01*
X66526092Y-62286635D01*
X66654833Y-62339961D01*
X66697744Y-62357735D01*
X66708164Y-62362051D01*
X66804812Y-62381275D01*
X66853135Y-62390887D01*
X66901458Y-62400500D01*
X66901459Y-62400500D01*
X80298542Y-62400500D01*
X80329566Y-62394328D01*
X80395188Y-62381275D01*
X80491836Y-62362051D01*
X80545165Y-62339961D01*
X80673914Y-62286632D01*
X80837782Y-62177139D01*
X80977139Y-62037782D01*
X80977141Y-62037778D01*
X81303102Y-61711816D01*
X81364424Y-61678334D01*
X81390782Y-61675500D01*
X88423543Y-61675500D01*
X88554250Y-61649500D01*
X88616835Y-61637051D01*
X88798914Y-61561632D01*
X88962782Y-61452139D01*
X89102139Y-61312782D01*
X89211632Y-61148914D01*
X89287051Y-60966835D01*
X89309958Y-60851668D01*
X89342341Y-60789763D01*
X89343834Y-60788242D01*
X89845259Y-60286819D01*
X89906582Y-60253334D01*
X89932940Y-60250500D01*
X90285500Y-60250500D01*
X90352539Y-60270185D01*
X90398294Y-60322989D01*
X90409500Y-60374500D01*
X90409500Y-60419752D01*
X90421131Y-60478229D01*
X90421132Y-60478230D01*
X90465447Y-60544552D01*
X90531769Y-60588867D01*
X90531770Y-60588868D01*
X90590247Y-60600499D01*
X90590250Y-60600500D01*
X90590252Y-60600500D01*
X91039902Y-60600500D01*
X91106941Y-60620185D01*
X91127583Y-60636819D01*
X91171284Y-60680520D01*
X91171286Y-60680521D01*
X91171290Y-60680524D01*
X91257887Y-60730520D01*
X91308216Y-60759577D01*
X91460943Y-60800500D01*
X93645065Y-60800500D01*
X93712104Y-60820185D01*
X93713909Y-60821366D01*
X93770821Y-60859394D01*
X93770823Y-60859395D01*
X93770827Y-60859397D01*
X93870060Y-60900500D01*
X93916503Y-60919737D01*
X94071153Y-60950499D01*
X94071156Y-60950500D01*
X94071158Y-60950500D01*
X94228844Y-60950500D01*
X94228845Y-60950499D01*
X94383497Y-60919737D01*
X94529179Y-60859394D01*
X94660289Y-60771789D01*
X94771789Y-60660289D01*
X94859394Y-60529179D01*
X94919737Y-60383497D01*
X94950500Y-60228842D01*
X94950500Y-60071158D01*
X94950500Y-60071155D01*
X94950499Y-60071153D01*
X94940676Y-60021769D01*
X94919737Y-59916503D01*
X94912015Y-59897861D01*
X94859397Y-59770827D01*
X94859390Y-59770814D01*
X94771789Y-59639711D01*
X94771786Y-59639707D01*
X94660292Y-59528213D01*
X94660288Y-59528210D01*
X94529185Y-59440609D01*
X94529172Y-59440602D01*
X94383501Y-59380264D01*
X94383489Y-59380261D01*
X94228845Y-59349500D01*
X94228842Y-59349500D01*
X94071158Y-59349500D01*
X94071155Y-59349500D01*
X93916510Y-59380261D01*
X93916498Y-59380264D01*
X93770827Y-59440602D01*
X93770814Y-59440609D01*
X93639711Y-59528210D01*
X93639707Y-59528213D01*
X93604742Y-59563180D01*
X93543420Y-59596666D01*
X93517060Y-59599500D01*
X92444500Y-59599500D01*
X92377461Y-59579815D01*
X92331706Y-59527011D01*
X92320500Y-59475500D01*
X92320500Y-59445945D01*
X92320500Y-59445943D01*
X92279577Y-59293216D01*
X92270361Y-59277254D01*
X92253888Y-59209355D01*
X92254047Y-59206647D01*
X92255693Y-59182979D01*
X92258867Y-59178231D01*
X92270500Y-59119748D01*
X92270500Y-58970190D01*
X92270799Y-58965893D01*
X92281508Y-58937010D01*
X92290185Y-58907461D01*
X92293544Y-58904550D01*
X92295090Y-58900381D01*
X92319719Y-58881869D01*
X92342989Y-58861706D01*
X92347995Y-58860616D01*
X92350942Y-58858402D01*
X92361865Y-58857599D01*
X92394500Y-58850500D01*
X97379055Y-58850500D01*
X97379057Y-58850500D01*
X97531784Y-58809577D01*
X97606200Y-58766612D01*
X97668200Y-58750000D01*
X98379167Y-58750000D01*
X98369386Y-58668557D01*
X98369386Y-58668556D01*
X98313920Y-58527904D01*
X98222564Y-58407435D01*
X98102090Y-58316075D01*
X98094701Y-58311921D01*
X98096361Y-58308967D01*
X98053859Y-58275889D01*
X98030672Y-58209979D01*
X98030500Y-58203451D01*
X98030500Y-58130249D01*
X98030499Y-58130247D01*
X98018868Y-58071770D01*
X98018867Y-58071769D01*
X97974552Y-58005447D01*
X97908230Y-57961132D01*
X97871134Y-57953753D01*
X97809224Y-57921367D01*
X97787939Y-57894134D01*
X97780522Y-57881287D01*
X97780518Y-57881282D01*
X97668717Y-57769481D01*
X97668709Y-57769475D01*
X97531790Y-57690426D01*
X97531786Y-57690424D01*
X97531784Y-57690423D01*
X97379057Y-57649500D01*
X95522902Y-57649500D01*
X95455863Y-57629815D01*
X95410108Y-57577011D01*
X95400164Y-57507853D01*
X95429189Y-57444297D01*
X95475451Y-57410938D01*
X95479179Y-57409394D01*
X95610289Y-57321789D01*
X95721789Y-57210289D01*
X95809394Y-57079179D01*
X95812794Y-57070972D01*
X95869735Y-56933501D01*
X95869737Y-56933497D01*
X95900500Y-56778842D01*
X95900500Y-56621158D01*
X95900500Y-56621155D01*
X95900499Y-56621153D01*
X95878447Y-56510292D01*
X95869737Y-56466503D01*
X95869735Y-56466498D01*
X95809397Y-56320827D01*
X95809390Y-56320814D01*
X95721789Y-56189711D01*
X95721786Y-56189707D01*
X95610292Y-56078213D01*
X95610288Y-56078210D01*
X95530609Y-56024970D01*
X95485804Y-55971358D01*
X95475500Y-55921868D01*
X95475500Y-54994932D01*
X95495185Y-54927893D01*
X95547989Y-54882138D01*
X95564893Y-54875859D01*
X95647898Y-54851744D01*
X95789365Y-54768081D01*
X95905581Y-54651865D01*
X95989244Y-54510398D01*
X96035098Y-54352569D01*
X96038000Y-54315694D01*
X96038000Y-53990496D01*
X96057685Y-53923457D01*
X96110489Y-53877702D01*
X96127844Y-53872100D01*
X96127664Y-53871506D01*
X96133486Y-53869739D01*
X96133497Y-53869737D01*
X96279179Y-53809394D01*
X96410289Y-53721789D01*
X96521789Y-53610289D01*
X96609394Y-53479179D01*
X96669737Y-53333497D01*
X96673802Y-53313056D01*
X96676662Y-53298685D01*
X96709047Y-53236774D01*
X96769762Y-53202200D01*
X96839532Y-53205939D01*
X96885960Y-53235195D01*
X99263181Y-55612416D01*
X99296666Y-55673739D01*
X99299500Y-55700097D01*
X99299500Y-58899903D01*
X99279815Y-58966942D01*
X99263181Y-58987584D01*
X98637584Y-59613181D01*
X98576261Y-59646666D01*
X98549903Y-59649500D01*
X97578364Y-59649500D01*
X97570190Y-59647874D01*
X97565117Y-59648790D01*
X97530919Y-59640064D01*
X97527297Y-59638564D01*
X97472891Y-59594727D01*
X97450821Y-59528434D01*
X97468096Y-59460734D01*
X97519230Y-59413120D01*
X97574742Y-59400000D01*
X98379167Y-59400000D01*
X98369386Y-59318557D01*
X98367437Y-59310845D01*
X98369238Y-59310389D01*
X98363865Y-59250912D01*
X98368175Y-59236231D01*
X98369386Y-59231442D01*
X98379167Y-59150000D01*
X95820833Y-59150000D01*
X95830614Y-59231443D01*
X95832564Y-59239161D01*
X95830765Y-59239615D01*
X95836128Y-59299115D01*
X95831817Y-59313794D01*
X95830614Y-59318556D01*
X95820832Y-59400000D01*
X97025258Y-59400000D01*
X97036074Y-59403176D01*
X97047283Y-59401972D01*
X97068998Y-59412843D01*
X97092297Y-59419685D01*
X97099678Y-59428203D01*
X97109760Y-59433251D01*
X97122151Y-59454138D01*
X97138052Y-59472489D01*
X97139656Y-59483646D01*
X97145408Y-59493342D01*
X97144539Y-59517610D01*
X97147996Y-59541647D01*
X97143313Y-59551901D01*
X97142910Y-59563167D01*
X97129058Y-59583113D01*
X97118971Y-59605203D01*
X97108454Y-59612785D01*
X97103058Y-59620557D01*
X97072703Y-59638564D01*
X97069081Y-59640064D01*
X97028951Y-59648045D01*
X97029003Y-59648439D01*
X97022989Y-59649230D01*
X97021636Y-59649500D01*
X97020943Y-59649500D01*
X96868216Y-59690423D01*
X96868209Y-59690426D01*
X96731289Y-59769475D01*
X96724908Y-59774373D01*
X96659740Y-59799570D01*
X96649418Y-59800000D01*
X95820833Y-59800000D01*
X95830613Y-59881442D01*
X95830613Y-59881443D01*
X95886079Y-60022095D01*
X95977435Y-60142564D01*
X96097906Y-60233921D01*
X96105297Y-60238077D01*
X96103631Y-60241039D01*
X96146102Y-60274056D01*
X96169325Y-60339953D01*
X96169500Y-60346548D01*
X96169500Y-60419752D01*
X96181131Y-60478229D01*
X96181132Y-60478230D01*
X96225447Y-60544552D01*
X96291769Y-60588867D01*
X96291770Y-60588868D01*
X96350247Y-60600499D01*
X96350250Y-60600500D01*
X96350252Y-60600500D01*
X96549902Y-60600500D01*
X96616941Y-60620185D01*
X96637583Y-60636819D01*
X96731284Y-60730520D01*
X96731286Y-60730521D01*
X96731290Y-60730524D01*
X96831160Y-60788183D01*
X96868216Y-60809577D01*
X97020943Y-60850500D01*
X97121638Y-60850500D01*
X97160177Y-60858166D01*
X97160364Y-60857472D01*
X97168214Y-60859575D01*
X97168215Y-60859576D01*
X97320942Y-60900500D01*
X97320944Y-60900500D01*
X97479055Y-60900500D01*
X97479057Y-60900500D01*
X97631784Y-60859576D01*
X97631784Y-60859575D01*
X97639635Y-60857472D01*
X97639821Y-60858166D01*
X97678361Y-60850500D01*
X98763331Y-60850500D01*
X98763347Y-60850501D01*
X98770943Y-60850501D01*
X98929054Y-60850501D01*
X98929057Y-60850501D01*
X99081785Y-60809577D01*
X99163811Y-60762219D01*
X99218716Y-60730520D01*
X99330520Y-60618716D01*
X99330520Y-60618714D01*
X99340724Y-60608511D01*
X99340728Y-60608506D01*
X100258506Y-59690728D01*
X100258511Y-59690724D01*
X100268714Y-59680520D01*
X100268716Y-59680520D01*
X100380520Y-59568716D01*
X100403777Y-59528434D01*
X100438559Y-59468190D01*
X100438560Y-59468188D01*
X100459574Y-59431790D01*
X100459573Y-59431790D01*
X100459577Y-59431785D01*
X100500500Y-59279058D01*
X100500500Y-59120943D01*
X100500500Y-55320943D01*
X100459577Y-55168216D01*
X100440400Y-55135000D01*
X100380524Y-55031290D01*
X100380521Y-55031286D01*
X100380520Y-55031284D01*
X100268716Y-54919480D01*
X100268715Y-54919479D01*
X100264385Y-54915149D01*
X100264374Y-54915139D01*
X97187590Y-51838355D01*
X97187588Y-51838352D01*
X97068717Y-51719481D01*
X97068709Y-51719475D01*
X96945143Y-51648135D01*
X96945140Y-51648134D01*
X96945131Y-51648129D01*
X96931785Y-51640423D01*
X96779057Y-51599499D01*
X96620943Y-51599499D01*
X96613347Y-51599499D01*
X96613331Y-51599500D01*
X95908308Y-51599500D01*
X95841269Y-51579815D01*
X95820626Y-51563180D01*
X95789370Y-51531923D01*
X95789362Y-51531917D01*
X95647896Y-51448255D01*
X95647893Y-51448254D01*
X95490073Y-51402402D01*
X95490067Y-51402401D01*
X95453201Y-51399500D01*
X95453194Y-51399500D01*
X94296806Y-51399500D01*
X94296798Y-51399500D01*
X94259932Y-51402401D01*
X94259926Y-51402402D01*
X94102106Y-51448254D01*
X94102103Y-51448255D01*
X93960637Y-51531917D01*
X93960629Y-51531923D01*
X93844423Y-51648129D01*
X93844414Y-51648140D01*
X93844229Y-51648455D01*
X93844019Y-51648650D01*
X93839639Y-51654298D01*
X93838727Y-51653591D01*
X93793157Y-51696136D01*
X93724415Y-51708637D01*
X93659827Y-51681988D01*
X93635643Y-51654078D01*
X93635361Y-51654298D01*
X93631323Y-51649092D01*
X93630771Y-51648455D01*
X93630585Y-51648140D01*
X93630576Y-51648129D01*
X93514370Y-51531923D01*
X93514362Y-51531917D01*
X93372896Y-51448255D01*
X93372893Y-51448254D01*
X93215073Y-51402402D01*
X93215067Y-51402401D01*
X93178201Y-51399500D01*
X93178194Y-51399500D01*
X92021806Y-51399500D01*
X92021798Y-51399500D01*
X91984932Y-51402401D01*
X91984926Y-51402402D01*
X91827106Y-51448254D01*
X91827103Y-51448255D01*
X91685637Y-51531917D01*
X91685629Y-51531923D01*
X91569423Y-51648129D01*
X91569419Y-51648135D01*
X91485755Y-51789603D01*
X91485754Y-51789606D01*
X91439902Y-51947426D01*
X91439901Y-51947432D01*
X91437000Y-51984298D01*
X91437000Y-52325500D01*
X91417315Y-52392539D01*
X91364511Y-52438294D01*
X91313000Y-52449500D01*
X89381003Y-52449500D01*
X89272590Y-52471065D01*
X89272589Y-52471065D01*
X89245671Y-52476420D01*
X89118190Y-52529224D01*
X89003454Y-52605887D01*
X89003453Y-52605888D01*
X88146162Y-53463181D01*
X88084839Y-53496666D01*
X88058481Y-53499500D01*
X87724730Y-53499500D01*
X87695289Y-53490855D01*
X87665303Y-53484332D01*
X87660287Y-53480577D01*
X87657691Y-53479815D01*
X87637049Y-53463181D01*
X87549049Y-53375181D01*
X87515564Y-53313858D01*
X87520548Y-53244166D01*
X87549049Y-53199819D01*
X87582666Y-53166202D01*
X87642712Y-53106156D01*
X87734814Y-52956834D01*
X87789999Y-52790297D01*
X87800500Y-52687509D01*
X87800499Y-52062492D01*
X87795588Y-52014420D01*
X87789999Y-51959703D01*
X87789998Y-51959700D01*
X87767608Y-51892133D01*
X87734814Y-51793166D01*
X87642712Y-51643844D01*
X87518656Y-51519788D01*
X87425888Y-51462569D01*
X87369336Y-51427687D01*
X87369331Y-51427685D01*
X87367862Y-51427198D01*
X87202797Y-51372501D01*
X87202795Y-51372500D01*
X87100016Y-51362000D01*
X87100009Y-51362000D01*
X87053284Y-51362000D01*
X86986245Y-51342315D01*
X86965603Y-51325681D01*
X86961785Y-51321863D01*
X86961781Y-51321860D01*
X86797920Y-51212371D01*
X86797911Y-51212366D01*
X86719449Y-51179866D01*
X86669165Y-51159038D01*
X86615836Y-51136949D01*
X86519125Y-51117712D01*
X86514503Y-51116792D01*
X86514501Y-51116792D01*
X86422543Y-51098500D01*
X86422541Y-51098500D01*
X81534479Y-51098500D01*
X81467440Y-51078815D01*
X81431377Y-51043390D01*
X81377142Y-50962222D01*
X81377136Y-50962214D01*
X81234686Y-50819764D01*
X81234655Y-50819735D01*
X79981479Y-49566559D01*
X79981459Y-49566537D01*
X79837785Y-49422863D01*
X79837781Y-49422860D01*
X79673920Y-49313371D01*
X79673907Y-49313364D01*
X79532564Y-49254819D01*
X79532561Y-49254818D01*
X79524688Y-49251557D01*
X79491836Y-49237949D01*
X79395188Y-49218724D01*
X79391607Y-49218011D01*
X79391593Y-49218008D01*
X79298544Y-49199500D01*
X79298541Y-49199500D01*
X75198541Y-49199500D01*
X71116798Y-49199500D01*
X71076795Y-49190631D01*
X71076190Y-49192458D01*
X71069334Y-49190186D01*
X70902797Y-49135001D01*
X70902795Y-49135000D01*
X70800010Y-49124500D01*
X69399998Y-49124500D01*
X69399981Y-49124501D01*
X69297203Y-49135000D01*
X69297200Y-49135001D01*
X69123810Y-49192458D01*
X69123204Y-49190631D01*
X69083202Y-49199500D01*
X66911455Y-49199500D01*
X66814812Y-49218724D01*
X66718170Y-49237946D01*
X66718161Y-49237949D01*
X66685310Y-49251556D01*
X66685311Y-49251557D01*
X66536088Y-49313366D01*
X66536079Y-49313371D01*
X66439043Y-49378210D01*
X66372216Y-49422861D01*
X66372213Y-49422864D01*
X62721897Y-53073181D01*
X62660574Y-53106666D01*
X62634216Y-53109500D01*
X61852129Y-53109500D01*
X61852123Y-53109501D01*
X61792516Y-53115908D01*
X61657671Y-53166202D01*
X61657664Y-53166206D01*
X61542455Y-53252452D01*
X61542452Y-53252455D01*
X61456206Y-53367664D01*
X61456202Y-53367671D01*
X61405908Y-53502517D01*
X61399501Y-53562116D01*
X61399500Y-53562135D01*
X57750000Y-53562135D01*
X57750000Y-29393713D01*
X58649500Y-29393713D01*
X58649500Y-29606286D01*
X58681874Y-29810691D01*
X58682754Y-29816243D01*
X58736600Y-29981964D01*
X58748444Y-30018414D01*
X58844951Y-30207820D01*
X58969890Y-30379786D01*
X59120213Y-30530109D01*
X59292179Y-30655048D01*
X59292181Y-30655049D01*
X59292184Y-30655051D01*
X59481588Y-30751557D01*
X59683757Y-30817246D01*
X59893713Y-30850500D01*
X59893714Y-30850500D01*
X60106286Y-30850500D01*
X60106287Y-30850500D01*
X60316243Y-30817246D01*
X60518412Y-30751557D01*
X60707816Y-30655051D01*
X60761963Y-30615711D01*
X60879786Y-30530109D01*
X60879788Y-30530106D01*
X60879792Y-30530104D01*
X61030104Y-30379792D01*
X61030106Y-30379788D01*
X61030109Y-30379786D01*
X61155048Y-30207820D01*
X61155047Y-30207820D01*
X61155051Y-30207816D01*
X61251557Y-30018412D01*
X61317246Y-29816243D01*
X61350500Y-29606287D01*
X61350500Y-29393713D01*
X61317246Y-29183757D01*
X61251557Y-28981588D01*
X61155051Y-28792184D01*
X61155049Y-28792181D01*
X61155048Y-28792179D01*
X61030109Y-28620213D01*
X60879786Y-28469890D01*
X60707820Y-28344951D01*
X60518414Y-28248444D01*
X60518413Y-28248443D01*
X60518412Y-28248443D01*
X60316243Y-28182754D01*
X60316241Y-28182753D01*
X60316240Y-28182753D01*
X60154957Y-28157208D01*
X60106287Y-28149500D01*
X59893713Y-28149500D01*
X59845042Y-28157208D01*
X59683760Y-28182753D01*
X59481585Y-28248444D01*
X59292179Y-28344951D01*
X59120213Y-28469890D01*
X58969890Y-28620213D01*
X58844951Y-28792179D01*
X58748444Y-28981585D01*
X58682753Y-29183760D01*
X58649500Y-29393713D01*
X57750000Y-29393713D01*
X57750000Y-27715271D01*
X57756238Y-27694025D01*
X57757818Y-27671937D01*
X57768431Y-27652499D01*
X57769685Y-27648232D01*
X57774722Y-27640974D01*
X57861448Y-27525123D01*
X57873020Y-27511769D01*
X58011769Y-27373020D01*
X58025123Y-27361448D01*
X58182221Y-27243845D01*
X58197089Y-27234291D01*
X58369298Y-27140258D01*
X58385385Y-27132911D01*
X58569248Y-27064333D01*
X58586199Y-27059356D01*
X58777938Y-27017646D01*
X58795436Y-27015130D01*
X58995582Y-27000816D01*
X59004428Y-27000500D01*
X59065892Y-27000500D01*
X84934108Y-27000500D01*
X84995572Y-27000500D01*
X85004418Y-27000816D01*
G37*
%TD.AperFunction*%
%TA.AperFunction,Conductor*%
G36*
X107964594Y-38428641D02*
G01*
X108055666Y-38484814D01*
X108222203Y-38539999D01*
X108324991Y-38550500D01*
X109725008Y-38550499D01*
X109827797Y-38539999D01*
X109994334Y-38484814D01*
X110060903Y-38443753D01*
X110128295Y-38425313D01*
X110194959Y-38446235D01*
X110239728Y-38499877D01*
X110250000Y-38549292D01*
X110250000Y-43950707D01*
X110230315Y-44017746D01*
X110177511Y-44063501D01*
X110108353Y-44073445D01*
X110060904Y-44056246D01*
X109994340Y-44015189D01*
X109994335Y-44015187D01*
X109994334Y-44015186D01*
X109827797Y-43960001D01*
X109827795Y-43960000D01*
X109725010Y-43949500D01*
X108324998Y-43949500D01*
X108324981Y-43949501D01*
X108222203Y-43960000D01*
X108222200Y-43960001D01*
X108055668Y-44015185D01*
X108055659Y-44015190D01*
X107964596Y-44071357D01*
X107897203Y-44089797D01*
X107830540Y-44068874D01*
X107785771Y-44015231D01*
X107775500Y-43965818D01*
X107775500Y-43534313D01*
X107775499Y-43534298D01*
X107772598Y-43497432D01*
X107772597Y-43497426D01*
X107726745Y-43339606D01*
X107726745Y-43339605D01*
X107726744Y-43339604D01*
X107726744Y-43339602D01*
X107710791Y-43312627D01*
X107693611Y-43244905D01*
X107710794Y-43186386D01*
X107726281Y-43160199D01*
X107772100Y-43002486D01*
X107772295Y-43000001D01*
X107772295Y-43000000D01*
X107409050Y-43000000D01*
X107374455Y-42995076D01*
X107227573Y-42952402D01*
X107227567Y-42952401D01*
X107190701Y-42949500D01*
X107190694Y-42949500D01*
X105809306Y-42949500D01*
X105809298Y-42949500D01*
X105772432Y-42952401D01*
X105772426Y-42952402D01*
X105625545Y-42995076D01*
X105590950Y-43000000D01*
X105227705Y-43000000D01*
X105227704Y-43000001D01*
X105227899Y-43002488D01*
X105227900Y-43002494D01*
X105273716Y-43160193D01*
X105273717Y-43160196D01*
X105289207Y-43186388D01*
X105306389Y-43254112D01*
X105289207Y-43312627D01*
X105273258Y-43339595D01*
X105273254Y-43339605D01*
X105227402Y-43497426D01*
X105227401Y-43497432D01*
X105224500Y-43534298D01*
X105224500Y-43965701D01*
X105227401Y-44002567D01*
X105227402Y-44002573D01*
X105273254Y-44160393D01*
X105273255Y-44160396D01*
X105273256Y-44160398D01*
X105294744Y-44196733D01*
X105356917Y-44301862D01*
X105356923Y-44301870D01*
X105473129Y-44418076D01*
X105473133Y-44418079D01*
X105473135Y-44418081D01*
X105538359Y-44456654D01*
X105614600Y-44501743D01*
X105621764Y-44504843D01*
X105620729Y-44507233D01*
X105668957Y-44538013D01*
X105698182Y-44601477D01*
X105699500Y-44619510D01*
X105699500Y-45578846D01*
X105730261Y-45733489D01*
X105730264Y-45733501D01*
X105790602Y-45879172D01*
X105790609Y-45879185D01*
X105878210Y-46010288D01*
X105878213Y-46010292D01*
X108413181Y-48545258D01*
X108446666Y-48606581D01*
X108449500Y-48632939D01*
X108449500Y-55617059D01*
X108429815Y-55684098D01*
X108413181Y-55704740D01*
X108119633Y-55998287D01*
X108058310Y-56031772D01*
X107988618Y-56026788D01*
X107944560Y-55994709D01*
X107942819Y-55996451D01*
X107813657Y-55867289D01*
X107813656Y-55867288D01*
X107664334Y-55775186D01*
X107664332Y-55775185D01*
X107664325Y-55775181D01*
X107663165Y-55774640D01*
X107662503Y-55774057D01*
X107658187Y-55771395D01*
X107658642Y-55770657D01*
X107610727Y-55728466D01*
X107591577Y-55661272D01*
X107611795Y-55594392D01*
X107627892Y-55574578D01*
X107769977Y-55432493D01*
X107896728Y-55258036D01*
X107994627Y-55065901D01*
X108061266Y-54860809D01*
X108072481Y-54790000D01*
X107042709Y-54790000D01*
X107054452Y-54769661D01*
X107095000Y-54618333D01*
X107095000Y-54461667D01*
X107054452Y-54310339D01*
X107042709Y-54290000D01*
X108072481Y-54290000D01*
X108061266Y-54219190D01*
X107994627Y-54014098D01*
X107896728Y-53821963D01*
X107769974Y-53647503D01*
X107769974Y-53647502D01*
X107617497Y-53495025D01*
X107446279Y-53370627D01*
X107403614Y-53315297D01*
X107397635Y-53245683D01*
X107430241Y-53183888D01*
X107446280Y-53169991D01*
X107451490Y-53166206D01*
X107617821Y-53045359D01*
X107770359Y-52892821D01*
X107897157Y-52718299D01*
X107995092Y-52526089D01*
X108061754Y-52320926D01*
X108090308Y-52140643D01*
X108095500Y-52107866D01*
X108095500Y-51892133D01*
X108068154Y-51719481D01*
X108061754Y-51679074D01*
X107995092Y-51473911D01*
X107897157Y-51281701D01*
X107770359Y-51107179D01*
X107617821Y-50954641D01*
X107443299Y-50827843D01*
X107389633Y-50800499D01*
X107251091Y-50729909D01*
X107251090Y-50729908D01*
X107251089Y-50729908D01*
X107045926Y-50663246D01*
X107045924Y-50663245D01*
X107045922Y-50663245D01*
X106832866Y-50629500D01*
X106832861Y-50629500D01*
X106167139Y-50629500D01*
X106167134Y-50629500D01*
X105954077Y-50663245D01*
X105748908Y-50729909D01*
X105556700Y-50827843D01*
X105457129Y-50900186D01*
X105382179Y-50954641D01*
X105382177Y-50954643D01*
X105382176Y-50954643D01*
X105229643Y-51107176D01*
X105229643Y-51107177D01*
X105229641Y-51107179D01*
X105175186Y-51182129D01*
X105102843Y-51281700D01*
X105004909Y-51473908D01*
X104938245Y-51679077D01*
X104904500Y-51892133D01*
X104904500Y-52107866D01*
X104938245Y-52320922D01*
X104938246Y-52320926D01*
X105004908Y-52526089D01*
X105102843Y-52718299D01*
X105229641Y-52892821D01*
X105382179Y-53045359D01*
X105548510Y-53166206D01*
X105553720Y-53169991D01*
X105596385Y-53225321D01*
X105602364Y-53294935D01*
X105569758Y-53356730D01*
X105553720Y-53370627D01*
X105382503Y-53495024D01*
X105230025Y-53647502D01*
X105230025Y-53647503D01*
X105103271Y-53821963D01*
X105005372Y-54014098D01*
X104938733Y-54219190D01*
X104927519Y-54290000D01*
X105957291Y-54290000D01*
X105945548Y-54310339D01*
X105905000Y-54461667D01*
X105905000Y-54618333D01*
X105945548Y-54769661D01*
X105957291Y-54790000D01*
X104927519Y-54790000D01*
X104938733Y-54860809D01*
X105005372Y-55065901D01*
X105103271Y-55258036D01*
X105230025Y-55432496D01*
X105230025Y-55432497D01*
X105372107Y-55574579D01*
X105405592Y-55635902D01*
X105400608Y-55705594D01*
X105358736Y-55761527D01*
X105336840Y-55774638D01*
X105335672Y-55775182D01*
X105186342Y-55867289D01*
X105057181Y-55996451D01*
X105055324Y-55994594D01*
X105008274Y-56027901D01*
X104938475Y-56031029D01*
X104880366Y-55998288D01*
X104086819Y-55204741D01*
X104053334Y-55143418D01*
X104050500Y-55117060D01*
X104050500Y-51921156D01*
X104048571Y-51911460D01*
X104048571Y-51911458D01*
X104025041Y-51793168D01*
X104019737Y-51766503D01*
X103998404Y-51714999D01*
X103959397Y-51620827D01*
X103959390Y-51620814D01*
X103871790Y-51489712D01*
X103825734Y-51443656D01*
X103760289Y-51378211D01*
X102892367Y-50510289D01*
X101760292Y-49378213D01*
X101760288Y-49378210D01*
X101628424Y-49290101D01*
X101583619Y-49236489D01*
X101574912Y-49167164D01*
X101605066Y-49104136D01*
X101664510Y-49067417D01*
X101697315Y-49062999D01*
X102684027Y-49062999D01*
X102878431Y-49032208D01*
X102884906Y-49030104D01*
X103065630Y-48971383D01*
X103241010Y-48882023D01*
X103400251Y-48766327D01*
X103539433Y-48627145D01*
X103655129Y-48467904D01*
X103744489Y-48292524D01*
X103805314Y-48105325D01*
X103822555Y-47996469D01*
X103836105Y-47910921D01*
X103836105Y-47714076D01*
X103805314Y-47519672D01*
X103744487Y-47332469D01*
X103697348Y-47239954D01*
X103655129Y-47157094D01*
X103539433Y-46997853D01*
X103400251Y-46858671D01*
X103285086Y-46774998D01*
X103241008Y-46742973D01*
X103064392Y-46652984D01*
X103013595Y-46605010D01*
X102996800Y-46537189D01*
X103019337Y-46471054D01*
X103064392Y-46432014D01*
X103241008Y-46342024D01*
X103241007Y-46342024D01*
X103241010Y-46342023D01*
X103400251Y-46226327D01*
X103539433Y-46087145D01*
X103655129Y-45927904D01*
X103744489Y-45752524D01*
X103805314Y-45565325D01*
X103816096Y-45497248D01*
X103836105Y-45370921D01*
X103836105Y-45174076D01*
X103805314Y-44979672D01*
X103771308Y-44875013D01*
X103744489Y-44792474D01*
X103744487Y-44792471D01*
X103744487Y-44792469D01*
X103692603Y-44690641D01*
X103655129Y-44617094D01*
X103539433Y-44457853D01*
X103400251Y-44318671D01*
X103292880Y-44240661D01*
X103241008Y-44202973D01*
X103064392Y-44112984D01*
X103013595Y-44065010D01*
X102996800Y-43997189D01*
X103019337Y-43931054D01*
X103064392Y-43892014D01*
X103241008Y-43802024D01*
X103241007Y-43802024D01*
X103241010Y-43802023D01*
X103400251Y-43686327D01*
X103539433Y-43547145D01*
X103655129Y-43387904D01*
X103744489Y-43212524D01*
X103805314Y-43025325D01*
X103816864Y-42952401D01*
X103836105Y-42830921D01*
X103836105Y-42634076D01*
X103805314Y-42439672D01*
X103751646Y-42274501D01*
X103744489Y-42252474D01*
X103744487Y-42252471D01*
X103744487Y-42252469D01*
X103676335Y-42118713D01*
X103655129Y-42077094D01*
X103539433Y-41917853D01*
X103400251Y-41778671D01*
X103241010Y-41662975D01*
X103123600Y-41603152D01*
X103105030Y-41593690D01*
X103054234Y-41545716D01*
X103037439Y-41477895D01*
X103059976Y-41411760D01*
X103114691Y-41368308D01*
X103136634Y-41361688D01*
X103591504Y-41269271D01*
X103661118Y-41275213D01*
X103703872Y-41303107D01*
X104515139Y-42114374D01*
X104515149Y-42114385D01*
X104519479Y-42118715D01*
X104519480Y-42118716D01*
X104631284Y-42230520D01*
X104707462Y-42274501D01*
X104768215Y-42309577D01*
X104920943Y-42350501D01*
X104920946Y-42350501D01*
X105086653Y-42350501D01*
X105086669Y-42350500D01*
X105106051Y-42350500D01*
X105173090Y-42370185D01*
X105218845Y-42422989D01*
X105228789Y-42492147D01*
X105228033Y-42496777D01*
X105227900Y-42497503D01*
X105227704Y-42499998D01*
X105227705Y-42500000D01*
X105590950Y-42500000D01*
X105625545Y-42504924D01*
X105772426Y-42547597D01*
X105772429Y-42547597D01*
X105772431Y-42547598D01*
X105809306Y-42550500D01*
X105809314Y-42550500D01*
X107190686Y-42550500D01*
X107190694Y-42550500D01*
X107227569Y-42547598D01*
X107227571Y-42547597D01*
X107227573Y-42547597D01*
X107374455Y-42504924D01*
X107409050Y-42500000D01*
X107772295Y-42500000D01*
X107772295Y-42499998D01*
X107772100Y-42497511D01*
X107772099Y-42497505D01*
X107726283Y-42339806D01*
X107726282Y-42339803D01*
X107710792Y-42313610D01*
X107693611Y-42245886D01*
X107710793Y-42187369D01*
X107726744Y-42160398D01*
X107772598Y-42002569D01*
X107775500Y-41965694D01*
X107775500Y-41534306D01*
X107772598Y-41497431D01*
X107766922Y-41477895D01*
X107726745Y-41339606D01*
X107726744Y-41339602D01*
X107711084Y-41313122D01*
X107693900Y-41245399D01*
X107711084Y-41186878D01*
X107726742Y-41160401D01*
X107726744Y-41160398D01*
X107772598Y-41002569D01*
X107775500Y-40965694D01*
X107775500Y-40534306D01*
X107772598Y-40497431D01*
X107767295Y-40479179D01*
X107726745Y-40339606D01*
X107726744Y-40339602D01*
X107723136Y-40333501D01*
X107711084Y-40313122D01*
X107693900Y-40245399D01*
X107711084Y-40186878D01*
X107726742Y-40160401D01*
X107726744Y-40160398D01*
X107772598Y-40002569D01*
X107775500Y-39965694D01*
X107775500Y-39534306D01*
X107772598Y-39497431D01*
X107764073Y-39468089D01*
X107726745Y-39339606D01*
X107726744Y-39339602D01*
X107711084Y-39313122D01*
X107693900Y-39245399D01*
X107711084Y-39186878D01*
X107726742Y-39160401D01*
X107726744Y-39160398D01*
X107772598Y-39002569D01*
X107775500Y-38965694D01*
X107775500Y-38534306D01*
X107775500Y-38534181D01*
X107795185Y-38467142D01*
X107847989Y-38421387D01*
X107917147Y-38411443D01*
X107964594Y-38428641D01*
G37*
%TD.AperFunction*%
%TA.AperFunction,Conductor*%
G36*
X88250000Y-33000000D02*
G01*
X98749999Y-33000000D01*
X98750000Y-33000000D01*
X100250000Y-31250000D01*
X100261432Y-31192835D01*
X100293881Y-31130960D01*
X100354632Y-31096448D01*
X100424398Y-31100260D01*
X100439314Y-31106667D01*
X100512177Y-31143792D01*
X100606818Y-31192014D01*
X100657614Y-31239989D01*
X100674409Y-31307810D01*
X100651872Y-31373944D01*
X100606818Y-31412984D01*
X100430199Y-31502975D01*
X100270960Y-31618670D01*
X100198656Y-31690973D01*
X100198650Y-31690979D01*
X100131777Y-31757853D01*
X100078622Y-31831013D01*
X100078616Y-31831021D01*
X100016083Y-31917090D01*
X99926722Y-32092469D01*
X99865895Y-32279672D01*
X99835105Y-32474076D01*
X99835105Y-32670921D01*
X99865895Y-32865325D01*
X99926722Y-33052528D01*
X99994773Y-33186084D01*
X100016081Y-33227904D01*
X100131777Y-33387145D01*
X100270959Y-33526327D01*
X100430200Y-33642023D01*
X100493917Y-33674488D01*
X100606818Y-33732014D01*
X100657614Y-33779988D01*
X100674409Y-33847809D01*
X100651872Y-33913944D01*
X100606818Y-33952984D01*
X100430199Y-34042975D01*
X100392593Y-34070298D01*
X100270959Y-34158671D01*
X100270957Y-34158673D01*
X100270956Y-34158673D01*
X100131779Y-34297850D01*
X100131779Y-34297851D01*
X100131777Y-34297853D01*
X100101648Y-34339322D01*
X100016081Y-34457093D01*
X99926722Y-34632469D01*
X99865895Y-34819672D01*
X99835105Y-35014076D01*
X99835105Y-35210921D01*
X99865895Y-35405325D01*
X99926722Y-35592528D01*
X99978279Y-35693713D01*
X100016081Y-35767904D01*
X100131777Y-35927145D01*
X100270959Y-36066327D01*
X100430200Y-36182023D01*
X100553597Y-36244896D01*
X100606818Y-36272014D01*
X100657614Y-36319988D01*
X100674409Y-36387809D01*
X100651872Y-36453944D01*
X100606818Y-36492984D01*
X100430199Y-36582975D01*
X100392593Y-36610298D01*
X100270959Y-36698671D01*
X100270957Y-36698673D01*
X100270956Y-36698673D01*
X100131779Y-36837850D01*
X100131779Y-36837851D01*
X100131777Y-36837853D01*
X100111928Y-36865173D01*
X100016081Y-36997093D01*
X99926722Y-37172469D01*
X99865895Y-37359672D01*
X99835105Y-37554076D01*
X99835105Y-37750921D01*
X99865895Y-37945325D01*
X99926722Y-38132528D01*
X100016081Y-38307904D01*
X100131777Y-38467145D01*
X100270959Y-38606327D01*
X100430200Y-38722023D01*
X100502417Y-38758819D01*
X100606818Y-38812014D01*
X100657614Y-38859988D01*
X100674409Y-38927809D01*
X100651872Y-38993944D01*
X100606818Y-39032984D01*
X100430199Y-39122975D01*
X100342246Y-39186878D01*
X100270959Y-39238671D01*
X100270957Y-39238673D01*
X100270956Y-39238673D01*
X100131779Y-39377850D01*
X100131779Y-39377851D01*
X100131777Y-39377853D01*
X100085064Y-39442147D01*
X100016081Y-39537093D01*
X99926722Y-39712469D01*
X99865895Y-39899672D01*
X99835105Y-40094076D01*
X99835105Y-40290921D01*
X99865895Y-40485325D01*
X99926722Y-40672528D01*
X99996457Y-40809390D01*
X100016081Y-40847904D01*
X100131777Y-41007145D01*
X100270959Y-41146327D01*
X100430200Y-41262023D01*
X100530488Y-41313122D01*
X100606818Y-41352014D01*
X100657614Y-41399988D01*
X100674409Y-41467809D01*
X100651872Y-41533944D01*
X100606818Y-41572984D01*
X100430199Y-41662975D01*
X100339346Y-41728984D01*
X100270959Y-41778671D01*
X100270957Y-41778673D01*
X100270956Y-41778673D01*
X100131779Y-41917850D01*
X100131779Y-41917851D01*
X100131777Y-41917853D01*
X100101648Y-41959322D01*
X100016081Y-42077093D01*
X99926722Y-42252469D01*
X99865895Y-42439672D01*
X99835105Y-42634076D01*
X99835105Y-42830921D01*
X99865895Y-43025325D01*
X99926722Y-43212528D01*
X99991472Y-43339606D01*
X100016081Y-43387904D01*
X100131777Y-43547145D01*
X100270959Y-43686327D01*
X100430200Y-43802023D01*
X100553597Y-43864896D01*
X100606818Y-43892014D01*
X100657614Y-43939988D01*
X100674409Y-44007809D01*
X100651872Y-44073944D01*
X100606818Y-44112984D01*
X100430199Y-44202975D01*
X100378330Y-44240661D01*
X100270959Y-44318671D01*
X100270957Y-44318673D01*
X100270956Y-44318673D01*
X100131779Y-44457850D01*
X100131779Y-44457851D01*
X100131777Y-44457853D01*
X100082117Y-44526204D01*
X100016081Y-44617093D01*
X99926722Y-44792469D01*
X99865895Y-44979672D01*
X99835105Y-45174076D01*
X99835105Y-45370921D01*
X99865895Y-45565325D01*
X99926722Y-45752528D01*
X99998471Y-45893343D01*
X100016081Y-45927904D01*
X100131777Y-46087145D01*
X100270959Y-46226327D01*
X100430200Y-46342023D01*
X100490333Y-46372662D01*
X100606818Y-46432014D01*
X100657614Y-46479988D01*
X100674409Y-46547809D01*
X100651872Y-46613944D01*
X100606818Y-46652984D01*
X100430199Y-46742975D01*
X100339346Y-46808984D01*
X100270959Y-46858671D01*
X100270957Y-46858673D01*
X100270956Y-46858673D01*
X100131779Y-46997850D01*
X100131779Y-46997851D01*
X100131777Y-46997853D01*
X100125369Y-47006673D01*
X100016081Y-47157093D01*
X99926722Y-47332469D01*
X99865895Y-47519672D01*
X99835105Y-47714076D01*
X99835105Y-47910921D01*
X99865895Y-48105325D01*
X99926722Y-48292528D01*
X100016081Y-48467904D01*
X100131777Y-48627145D01*
X100270959Y-48766327D01*
X100430200Y-48882023D01*
X100590400Y-48963648D01*
X100593082Y-48965015D01*
X100643878Y-49012989D01*
X100660673Y-49080810D01*
X100638136Y-49146945D01*
X100583421Y-49190397D01*
X100536787Y-49199500D01*
X99382940Y-49199500D01*
X99315901Y-49179815D01*
X99295259Y-49163181D01*
X92270114Y-42138035D01*
X92270110Y-42138032D01*
X92139007Y-42050431D01*
X92138994Y-42050424D01*
X91993323Y-41990086D01*
X91993311Y-41990083D01*
X91838667Y-41959322D01*
X91838664Y-41959322D01*
X87448123Y-41959322D01*
X87409770Y-41953242D01*
X87389551Y-41946666D01*
X86754708Y-41740187D01*
X86345415Y-41607067D01*
X86287751Y-41567612D01*
X86260572Y-41503246D01*
X86272507Y-41434403D01*
X86319766Y-41382941D01*
X86327474Y-41378662D01*
X86381013Y-41351383D01*
X86502768Y-41289346D01*
X86662009Y-41173650D01*
X86801191Y-41034468D01*
X86916887Y-40875227D01*
X87006247Y-40699847D01*
X87067072Y-40512648D01*
X87069483Y-40497426D01*
X87097863Y-40318244D01*
X87097863Y-40121399D01*
X87067072Y-39926995D01*
X87006245Y-39739792D01*
X86945502Y-39620577D01*
X86916887Y-39564417D01*
X86801191Y-39405176D01*
X86662009Y-39265994D01*
X86516674Y-39160401D01*
X86502766Y-39150296D01*
X86326150Y-39060307D01*
X86275353Y-39012333D01*
X86258558Y-38944512D01*
X86281095Y-38878377D01*
X86326150Y-38839337D01*
X86502766Y-38749347D01*
X86502765Y-38749347D01*
X86502768Y-38749346D01*
X86662009Y-38633650D01*
X86801191Y-38494468D01*
X86916887Y-38335227D01*
X87006247Y-38159847D01*
X87067072Y-37972648D01*
X87070738Y-37949500D01*
X87097863Y-37778244D01*
X87097863Y-37581399D01*
X87067072Y-37386995D01*
X87006245Y-37199792D01*
X86934015Y-37058033D01*
X86916887Y-37024417D01*
X86801191Y-36865176D01*
X86662009Y-36725994D01*
X86582388Y-36668146D01*
X86502766Y-36610296D01*
X86326150Y-36520307D01*
X86275353Y-36472333D01*
X86258558Y-36404512D01*
X86281095Y-36338377D01*
X86326150Y-36299337D01*
X86502766Y-36209347D01*
X86502765Y-36209347D01*
X86502768Y-36209346D01*
X86662009Y-36093650D01*
X86801191Y-35954468D01*
X86916887Y-35795227D01*
X87006247Y-35619847D01*
X87067072Y-35432648D01*
X87067301Y-35431202D01*
X87097863Y-35238244D01*
X87097863Y-35041399D01*
X87067072Y-34846995D01*
X87035832Y-34750851D01*
X87006247Y-34659797D01*
X87006245Y-34659794D01*
X87006245Y-34659792D01*
X86951792Y-34552922D01*
X86916887Y-34484417D01*
X86801191Y-34325176D01*
X86662009Y-34185994D01*
X86582388Y-34128146D01*
X86502766Y-34070296D01*
X86326150Y-33980307D01*
X86275353Y-33932333D01*
X86258558Y-33864512D01*
X86281095Y-33798377D01*
X86326150Y-33759337D01*
X86502766Y-33669347D01*
X86502765Y-33669347D01*
X86502768Y-33669346D01*
X86662009Y-33553650D01*
X86801191Y-33414468D01*
X86916887Y-33255227D01*
X87006247Y-33079847D01*
X87067072Y-32892648D01*
X87067123Y-32892328D01*
X87097863Y-32698244D01*
X87097863Y-32501399D01*
X87067072Y-32306995D01*
X87035832Y-32210851D01*
X87006247Y-32119797D01*
X87006245Y-32119794D01*
X87006245Y-32119792D01*
X86951792Y-32012922D01*
X86916887Y-31944417D01*
X86801191Y-31785176D01*
X86662009Y-31645994D01*
X86582388Y-31588146D01*
X86502766Y-31530296D01*
X86326150Y-31440307D01*
X86275353Y-31392333D01*
X86258558Y-31324512D01*
X86281095Y-31258377D01*
X86326150Y-31219337D01*
X86502766Y-31129347D01*
X86502765Y-31129347D01*
X86502768Y-31129346D01*
X86662009Y-31013650D01*
X86801191Y-30874468D01*
X86817767Y-30851652D01*
X88250000Y-33000000D01*
G37*
%TD.AperFunction*%
%TA.AperFunction,Conductor*%
G36*
X110194959Y-46046235D02*
G01*
X110239728Y-46099877D01*
X110250000Y-46149292D01*
X110250000Y-47949017D01*
X110230315Y-48016056D01*
X110177511Y-48061811D01*
X110108353Y-48071755D01*
X110044797Y-48042730D01*
X110011439Y-47996469D01*
X109959397Y-47870827D01*
X109959390Y-47870814D01*
X109871789Y-47739711D01*
X109871786Y-47739707D01*
X109755970Y-47623891D01*
X109755947Y-47623870D01*
X108494258Y-46362180D01*
X108460773Y-46300857D01*
X108465757Y-46231165D01*
X108507629Y-46175232D01*
X108573093Y-46150815D01*
X108581916Y-46150499D01*
X109725008Y-46150499D01*
X109827797Y-46139999D01*
X109994334Y-46084814D01*
X110060903Y-46043753D01*
X110128295Y-46025313D01*
X110194959Y-46046235D01*
G37*
%TD.AperFunction*%
%TA.AperFunction,Conductor*%
G36*
X107578534Y-44471738D02*
G01*
X107622297Y-44526204D01*
X107631027Y-44586096D01*
X107624500Y-44649981D01*
X107624500Y-45193060D01*
X107618261Y-45214305D01*
X107616682Y-45236394D01*
X107608609Y-45247177D01*
X107604815Y-45260099D01*
X107588081Y-45274598D01*
X107574810Y-45292327D01*
X107562189Y-45297034D01*
X107552011Y-45305854D01*
X107530093Y-45309005D01*
X107509346Y-45316744D01*
X107496185Y-45313881D01*
X107482853Y-45315798D01*
X107462709Y-45306598D01*
X107441073Y-45301892D01*
X107423347Y-45288623D01*
X107419297Y-45286773D01*
X107412819Y-45280741D01*
X107336819Y-45204741D01*
X107303334Y-45143418D01*
X107300500Y-45117060D01*
X107300500Y-44619510D01*
X107320185Y-44552471D01*
X107372989Y-44506716D01*
X107379450Y-44504317D01*
X107385392Y-44501745D01*
X107385398Y-44501744D01*
X107444551Y-44466760D01*
X107512271Y-44449579D01*
X107578534Y-44471738D01*
G37*
%TD.AperFunction*%
%TA.AperFunction,Conductor*%
G36*
X63309099Y-37545185D02*
G01*
X63329741Y-37561819D01*
X64889707Y-39121786D01*
X64889711Y-39121789D01*
X65020814Y-39209390D01*
X65020827Y-39209397D01*
X65157471Y-39265996D01*
X65166503Y-39269737D01*
X65316131Y-39299500D01*
X65321153Y-39300499D01*
X65321156Y-39300500D01*
X65321158Y-39300500D01*
X65478842Y-39300500D01*
X73568059Y-39300500D01*
X73635098Y-39320185D01*
X73680853Y-39372989D01*
X73690797Y-39442147D01*
X73661772Y-39505703D01*
X73655740Y-39512181D01*
X73578213Y-39589707D01*
X73578210Y-39589711D01*
X73490609Y-39720814D01*
X73490602Y-39720827D01*
X73430264Y-39866498D01*
X73430261Y-39866510D01*
X73399500Y-40021153D01*
X73399500Y-40178846D01*
X73430261Y-40333489D01*
X73430264Y-40333501D01*
X73490602Y-40479172D01*
X73490609Y-40479185D01*
X73578210Y-40610288D01*
X73578213Y-40610292D01*
X73689707Y-40721786D01*
X73689711Y-40721789D01*
X73820814Y-40809390D01*
X73820827Y-40809397D01*
X73913793Y-40847904D01*
X73966503Y-40869737D01*
X74121153Y-40900499D01*
X74121156Y-40900500D01*
X74121158Y-40900500D01*
X80578844Y-40900500D01*
X80578845Y-40900499D01*
X80733497Y-40869737D01*
X80879179Y-40809394D01*
X81010289Y-40721789D01*
X83138821Y-38593255D01*
X83200142Y-38559772D01*
X83269833Y-38564756D01*
X83276499Y-38567466D01*
X83707377Y-38757420D01*
X83713626Y-38760386D01*
X83813713Y-38811383D01*
X83868576Y-38839337D01*
X83919372Y-38887312D01*
X83936167Y-38955133D01*
X83913630Y-39021268D01*
X83868576Y-39060307D01*
X83691957Y-39150298D01*
X83678052Y-39160401D01*
X83532717Y-39265994D01*
X83532715Y-39265996D01*
X83532714Y-39265996D01*
X83393537Y-39405173D01*
X83393537Y-39405174D01*
X83393535Y-39405176D01*
X83393166Y-39405684D01*
X83277839Y-39564416D01*
X83188480Y-39739792D01*
X83127653Y-39926995D01*
X83096863Y-40121399D01*
X83096863Y-40318244D01*
X83127653Y-40512648D01*
X83188480Y-40699851D01*
X83244297Y-40809397D01*
X83277839Y-40875227D01*
X83393535Y-41034468D01*
X83532717Y-41173650D01*
X83637803Y-41250000D01*
X83691959Y-41289347D01*
X83865501Y-41377770D01*
X83916298Y-41425744D01*
X83933093Y-41493565D01*
X83910556Y-41559700D01*
X83855841Y-41603152D01*
X83846775Y-41606427D01*
X82785957Y-41943672D01*
X82748389Y-41949500D01*
X80487230Y-41949500D01*
X80420191Y-41929815D01*
X80399549Y-41913181D01*
X80318657Y-41832289D01*
X80318656Y-41832288D01*
X80169334Y-41740186D01*
X80002797Y-41685001D01*
X80002795Y-41685000D01*
X79900010Y-41674500D01*
X78499998Y-41674500D01*
X78499981Y-41674501D01*
X78397203Y-41685000D01*
X78397200Y-41685001D01*
X78230668Y-41740185D01*
X78230663Y-41740187D01*
X78081342Y-41832289D01*
X78000451Y-41913181D01*
X77939128Y-41946666D01*
X77912770Y-41949500D01*
X66832939Y-41949500D01*
X66765900Y-41929815D01*
X66745258Y-41913181D01*
X64650292Y-39818213D01*
X64650288Y-39818210D01*
X64519185Y-39730609D01*
X64519172Y-39730602D01*
X64373501Y-39670264D01*
X64373489Y-39670261D01*
X64218845Y-39639500D01*
X64218842Y-39639500D01*
X62957940Y-39639500D01*
X62928499Y-39630855D01*
X62898513Y-39624332D01*
X62893497Y-39620577D01*
X62890901Y-39619815D01*
X62870259Y-39603181D01*
X62779843Y-39512765D01*
X62746358Y-39451442D01*
X62745051Y-39405687D01*
X62750500Y-39371287D01*
X62750500Y-39158713D01*
X62717246Y-38948757D01*
X62651557Y-38746588D01*
X62555051Y-38557184D01*
X62555049Y-38557181D01*
X62555048Y-38557179D01*
X62430109Y-38385213D01*
X62316569Y-38271673D01*
X62283084Y-38210350D01*
X62288068Y-38140658D01*
X62329940Y-38084725D01*
X62360915Y-38067810D01*
X62492331Y-38018796D01*
X62607546Y-37932546D01*
X62693796Y-37817331D01*
X62744091Y-37682483D01*
X62749062Y-37636242D01*
X62775799Y-37571694D01*
X62833191Y-37531846D01*
X62872351Y-37525500D01*
X63242060Y-37525500D01*
X63309099Y-37545185D01*
G37*
%TD.AperFunction*%
%TA.AperFunction,Conductor*%
G36*
X82784956Y-35946402D02*
G01*
X82997721Y-36015602D01*
X83849312Y-36292575D01*
X83867571Y-36305068D01*
X83888075Y-36313391D01*
X83895845Y-36324414D01*
X83906975Y-36332029D01*
X83915582Y-36352412D01*
X83928331Y-36370498D01*
X83928908Y-36383971D01*
X83934155Y-36396396D01*
X83930375Y-36418197D01*
X83931323Y-36440304D01*
X83924523Y-36451952D01*
X83922220Y-36465239D01*
X83907255Y-36481534D01*
X83896100Y-36500645D01*
X83877967Y-36513426D01*
X83874961Y-36516701D01*
X83867253Y-36520980D01*
X83815586Y-36547305D01*
X83802065Y-36553209D01*
X82935384Y-36871711D01*
X82892611Y-36879322D01*
X82841331Y-36879322D01*
X82686688Y-36910082D01*
X82686680Y-36910084D01*
X82541002Y-36970426D01*
X82540992Y-36970431D01*
X82409889Y-37058032D01*
X82409885Y-37058035D01*
X80204741Y-39263181D01*
X80143418Y-39296666D01*
X80117060Y-39299500D01*
X78831941Y-39299500D01*
X78764902Y-39279815D01*
X78719147Y-39227011D01*
X78709203Y-39157853D01*
X78738228Y-39094297D01*
X78744260Y-39087819D01*
X81855436Y-35976641D01*
X81916759Y-35943156D01*
X81943117Y-35940322D01*
X82746604Y-35940322D01*
X82784956Y-35946402D01*
G37*
%TD.AperFunction*%
%TA.AperFunction,Conductor*%
G36*
X103884695Y-35984160D02*
G01*
X103889301Y-35988536D01*
X104113181Y-36212416D01*
X104146666Y-36273739D01*
X104149500Y-36300097D01*
X104149500Y-38514135D01*
X104143261Y-38535380D01*
X104141682Y-38557469D01*
X104133609Y-38568252D01*
X104129815Y-38581174D01*
X104113081Y-38595673D01*
X104099810Y-38613402D01*
X104087189Y-38618109D01*
X104077011Y-38626929D01*
X104055093Y-38630080D01*
X104034346Y-38637819D01*
X104021185Y-38634956D01*
X104007853Y-38636873D01*
X103987709Y-38627673D01*
X103966073Y-38622967D01*
X103948347Y-38609698D01*
X103944297Y-38607848D01*
X103937819Y-38601816D01*
X103925163Y-38589160D01*
X103891678Y-38527837D01*
X103891562Y-38527297D01*
X103888760Y-38514135D01*
X103789495Y-38047827D01*
X103792846Y-37983693D01*
X103805314Y-37945325D01*
X103822109Y-37839283D01*
X103836105Y-37750921D01*
X103836105Y-37554076D01*
X103805314Y-37359672D01*
X103744487Y-37172469D01*
X103682077Y-37049983D01*
X103655129Y-36997094D01*
X103539433Y-36837853D01*
X103400251Y-36698671D01*
X103241010Y-36582975D01*
X103177586Y-36550659D01*
X103064391Y-36492983D01*
X103055236Y-36484336D01*
X103043571Y-36479602D01*
X103030318Y-36460802D01*
X103013595Y-36445008D01*
X103010568Y-36432786D01*
X103003314Y-36422496D01*
X103002328Y-36399513D01*
X102996800Y-36377187D01*
X103000861Y-36365269D01*
X103000322Y-36352690D01*
X103011916Y-36332826D01*
X103019337Y-36311052D01*
X103030040Y-36301777D01*
X103035545Y-36292348D01*
X103064392Y-36272013D01*
X103065625Y-36271384D01*
X103065630Y-36271383D01*
X103217023Y-36194244D01*
X103224070Y-36190928D01*
X103752395Y-35962406D01*
X103821737Y-35953860D01*
X103884695Y-35984160D01*
G37*
%TD.AperFunction*%
%TA.AperFunction,Conductor*%
G36*
X110124713Y-27519685D02*
G01*
X110156940Y-27549689D01*
X110225266Y-27640960D01*
X110249684Y-27706424D01*
X110250000Y-27715271D01*
X110250000Y-36350707D01*
X110230315Y-36417746D01*
X110177511Y-36463501D01*
X110108353Y-36473445D01*
X110060904Y-36456246D01*
X109994340Y-36415189D01*
X109994335Y-36415187D01*
X109994334Y-36415186D01*
X109827797Y-36360001D01*
X109827795Y-36360000D01*
X109725010Y-36349500D01*
X108324998Y-36349500D01*
X108324981Y-36349501D01*
X108222203Y-36360000D01*
X108222200Y-36360001D01*
X108055668Y-36415185D01*
X108055663Y-36415187D01*
X107906342Y-36507289D01*
X107782289Y-36631342D01*
X107690187Y-36780663D01*
X107690185Y-36780668D01*
X107673802Y-36830109D01*
X107635001Y-36947203D01*
X107635001Y-36947204D01*
X107635000Y-36947204D01*
X107624500Y-37049983D01*
X107624500Y-37850001D01*
X107624501Y-37850017D01*
X107631028Y-37913903D01*
X107618258Y-37982596D01*
X107570378Y-38033481D01*
X107502588Y-38050401D01*
X107444550Y-38033238D01*
X107420124Y-38018793D01*
X107385398Y-37998256D01*
X107385396Y-37998255D01*
X107385394Y-37998254D01*
X107227573Y-37952402D01*
X107227567Y-37952401D01*
X107190701Y-37949500D01*
X107190694Y-37949500D01*
X106600098Y-37949500D01*
X106533059Y-37929815D01*
X106512417Y-37913181D01*
X106136819Y-37537583D01*
X106103334Y-37476260D01*
X106100500Y-37449902D01*
X106100500Y-33839059D01*
X106100501Y-33839046D01*
X106100501Y-33670945D01*
X106100501Y-33670943D01*
X106059577Y-33518215D01*
X106030639Y-33468095D01*
X105980520Y-33381284D01*
X105868716Y-33269480D01*
X105868715Y-33269479D01*
X105864385Y-33265149D01*
X105864374Y-33265139D01*
X104810089Y-32210854D01*
X104810087Y-32210851D01*
X104691216Y-32091980D01*
X104691215Y-32091979D01*
X104604403Y-32041859D01*
X104604403Y-32041858D01*
X104604399Y-32041857D01*
X104554284Y-32012922D01*
X104401556Y-31971998D01*
X104243442Y-31971998D01*
X104235846Y-31971998D01*
X104235830Y-31971999D01*
X104227300Y-31971999D01*
X104172752Y-31959357D01*
X103240463Y-31502679D01*
X103238716Y-31501806D01*
X103064391Y-31412983D01*
X103013595Y-31365008D01*
X102996800Y-31297187D01*
X103019337Y-31231053D01*
X103064392Y-31192013D01*
X103065625Y-31191384D01*
X103065630Y-31191383D01*
X103241010Y-31102023D01*
X103400251Y-30986327D01*
X103539433Y-30847145D01*
X103655129Y-30687904D01*
X103744489Y-30512524D01*
X103805314Y-30325325D01*
X103823925Y-30207820D01*
X103836105Y-30130921D01*
X103836105Y-29934076D01*
X103805314Y-29739672D01*
X103774613Y-29645185D01*
X103744489Y-29552474D01*
X103744487Y-29552471D01*
X103744487Y-29552469D01*
X103689798Y-29445136D01*
X103678243Y-29422458D01*
X103663597Y-29393713D01*
X106649500Y-29393713D01*
X106649500Y-29606286D01*
X106681874Y-29810691D01*
X106682754Y-29816243D01*
X106736600Y-29981964D01*
X106748444Y-30018414D01*
X106844951Y-30207820D01*
X106969890Y-30379786D01*
X107120213Y-30530109D01*
X107292179Y-30655048D01*
X107292181Y-30655049D01*
X107292184Y-30655051D01*
X107481588Y-30751557D01*
X107683757Y-30817246D01*
X107893713Y-30850500D01*
X107893714Y-30850500D01*
X108106286Y-30850500D01*
X108106287Y-30850500D01*
X108316243Y-30817246D01*
X108518412Y-30751557D01*
X108707816Y-30655051D01*
X108761963Y-30615711D01*
X108879786Y-30530109D01*
X108879788Y-30530106D01*
X108879792Y-30530104D01*
X109030104Y-30379792D01*
X109030106Y-30379788D01*
X109030109Y-30379786D01*
X109155048Y-30207820D01*
X109155047Y-30207820D01*
X109155051Y-30207816D01*
X109251557Y-30018412D01*
X109317246Y-29816243D01*
X109350500Y-29606287D01*
X109350500Y-29393713D01*
X109317246Y-29183757D01*
X109251557Y-28981588D01*
X109155051Y-28792184D01*
X109155049Y-28792181D01*
X109155048Y-28792179D01*
X109030109Y-28620213D01*
X108879786Y-28469890D01*
X108707820Y-28344951D01*
X108518414Y-28248444D01*
X108518413Y-28248443D01*
X108518412Y-28248443D01*
X108316243Y-28182754D01*
X108316241Y-28182753D01*
X108316240Y-28182753D01*
X108154957Y-28157208D01*
X108106287Y-28149500D01*
X107893713Y-28149500D01*
X107845042Y-28157208D01*
X107683760Y-28182753D01*
X107481585Y-28248444D01*
X107292179Y-28344951D01*
X107120213Y-28469890D01*
X106969890Y-28620213D01*
X106844951Y-28792179D01*
X106748444Y-28981585D01*
X106682753Y-29183760D01*
X106649500Y-29393713D01*
X103663597Y-29393713D01*
X103655129Y-29377094D01*
X103539433Y-29217853D01*
X103400251Y-29078671D01*
X103241010Y-28962975D01*
X103065634Y-28873616D01*
X102878431Y-28812789D01*
X102684027Y-28781999D01*
X102684022Y-28781999D01*
X100987188Y-28781999D01*
X100911551Y-28793978D01*
X100842257Y-28785022D01*
X100788806Y-28740025D01*
X100768167Y-28673274D01*
X100770561Y-28647194D01*
X100980064Y-27599681D01*
X101012514Y-27537804D01*
X101073266Y-27503294D01*
X101101656Y-27500000D01*
X110057674Y-27500000D01*
X110124713Y-27519685D01*
G37*
%TD.AperFunction*%
%TA.AperFunction,Conductor*%
G36*
X74523181Y-32599628D02*
G01*
X74556666Y-32660951D01*
X74559500Y-32687300D01*
X74559500Y-32697865D01*
X74559501Y-32697876D01*
X74565908Y-32757483D01*
X74616202Y-32892328D01*
X74616206Y-32892335D01*
X74702452Y-33007544D01*
X74702455Y-33007547D01*
X74817664Y-33093793D01*
X74817671Y-33093797D01*
X74952516Y-33144091D01*
X74998757Y-33149063D01*
X75063307Y-33175801D01*
X75103155Y-33233194D01*
X75109500Y-33272352D01*
X75109500Y-34325500D01*
X75089815Y-34392539D01*
X75037011Y-34438294D01*
X74985519Y-34449500D01*
X74982139Y-34449500D01*
X74982123Y-34449501D01*
X74922516Y-34455908D01*
X74787671Y-34506202D01*
X74787664Y-34506206D01*
X74672455Y-34592452D01*
X74672452Y-34592455D01*
X74586206Y-34707664D01*
X74586203Y-34707669D01*
X74537189Y-34839083D01*
X74495317Y-34895016D01*
X74429853Y-34919433D01*
X74361580Y-34904581D01*
X74333326Y-34883430D01*
X74219786Y-34769890D01*
X74047820Y-34644951D01*
X73858414Y-34548444D01*
X73858413Y-34548443D01*
X73858412Y-34548443D01*
X73656243Y-34482754D01*
X73656241Y-34482753D01*
X73656240Y-34482753D01*
X73494227Y-34457093D01*
X73446287Y-34449500D01*
X73233713Y-34449500D01*
X73185773Y-34457093D01*
X73023760Y-34482753D01*
X72821585Y-34548444D01*
X72632179Y-34644951D01*
X72460213Y-34769890D01*
X72309890Y-34920213D01*
X72184949Y-35092182D01*
X72180202Y-35101499D01*
X72132227Y-35152293D01*
X72064405Y-35169087D01*
X71998271Y-35146548D01*
X71959234Y-35101495D01*
X71954626Y-35092452D01*
X71915270Y-35038282D01*
X71915269Y-35038282D01*
X71282962Y-35670590D01*
X71265925Y-35607007D01*
X71200099Y-35492993D01*
X71107007Y-35399901D01*
X70992993Y-35334075D01*
X70929408Y-35317037D01*
X71561716Y-34684728D01*
X71507550Y-34645375D01*
X71318217Y-34548904D01*
X71116129Y-34483242D01*
X70906246Y-34450000D01*
X70793950Y-34450000D01*
X70726911Y-34430315D01*
X70681156Y-34377511D01*
X70671212Y-34308353D01*
X70700237Y-34244797D01*
X70706255Y-34238333D01*
X71228729Y-33715860D01*
X71228733Y-33715858D01*
X71315858Y-33628733D01*
X71384311Y-33526286D01*
X71384312Y-33526285D01*
X71384313Y-33526282D01*
X71384315Y-33526279D01*
X71384315Y-33526277D01*
X71387655Y-33518215D01*
X71431463Y-33412451D01*
X71437663Y-33381284D01*
X71455500Y-33291606D01*
X71455500Y-33072980D01*
X71475185Y-33005941D01*
X71523208Y-32962494D01*
X71537818Y-32955050D01*
X71709786Y-32830109D01*
X71709788Y-32830106D01*
X71709792Y-32830104D01*
X71860104Y-32679792D01*
X71860106Y-32679788D01*
X71860109Y-32679786D01*
X71927515Y-32587007D01*
X71985051Y-32507816D01*
X71989793Y-32498508D01*
X72037763Y-32447711D01*
X72105583Y-32430911D01*
X72171719Y-32453445D01*
X72210763Y-32498500D01*
X72215373Y-32507547D01*
X72254728Y-32561716D01*
X72887037Y-31929408D01*
X72904075Y-31992993D01*
X72969901Y-32107007D01*
X73062993Y-32200099D01*
X73177007Y-32265925D01*
X73240590Y-32282962D01*
X72608282Y-32915269D01*
X72608282Y-32915270D01*
X72662449Y-32954624D01*
X72851782Y-33051095D01*
X73053870Y-33116757D01*
X73263754Y-33150000D01*
X73476246Y-33150000D01*
X73686127Y-33116757D01*
X73686130Y-33116757D01*
X73888217Y-33051095D01*
X74077554Y-32954622D01*
X74131716Y-32915270D01*
X74131717Y-32915270D01*
X73499408Y-32282962D01*
X73562993Y-32265925D01*
X73677007Y-32200099D01*
X73770099Y-32107007D01*
X73835925Y-31992993D01*
X73852962Y-31929408D01*
X74523181Y-32599628D01*
G37*
%TD.AperFunction*%
%TA.AperFunction,Conductor*%
G36*
X104168402Y-33268487D02*
G01*
X104177449Y-33276684D01*
X104863181Y-33962416D01*
X104896666Y-34023739D01*
X104899500Y-34050097D01*
X104899500Y-35000903D01*
X104879815Y-35067942D01*
X104827011Y-35113697D01*
X104757853Y-35123641D01*
X104694297Y-35094616D01*
X104687819Y-35088584D01*
X104454784Y-34855549D01*
X104452283Y-34852297D01*
X104446277Y-34847042D01*
X104350089Y-34750854D01*
X104350087Y-34750851D01*
X104231216Y-34631980D01*
X104231215Y-34631979D01*
X104144403Y-34581859D01*
X104094284Y-34552922D01*
X103995759Y-34526521D01*
X103989708Y-34524202D01*
X103985040Y-34520641D01*
X103966553Y-34512410D01*
X103282351Y-34068036D01*
X103273103Y-34062392D01*
X103258096Y-34053235D01*
X103257632Y-34052969D01*
X103256954Y-34052581D01*
X103255636Y-34051897D01*
X103255456Y-34051724D01*
X103254770Y-34051332D01*
X103254868Y-34051160D01*
X103249182Y-34045706D01*
X103245778Y-34044523D01*
X103245167Y-34045522D01*
X103241017Y-34042979D01*
X103241011Y-34042976D01*
X103241010Y-34042975D01*
X103125351Y-33984044D01*
X103064391Y-33952983D01*
X103013595Y-33905008D01*
X102996800Y-33837187D01*
X103019338Y-33771052D01*
X103064391Y-33732013D01*
X103065622Y-33731385D01*
X103065630Y-33731383D01*
X103238803Y-33643146D01*
X103240480Y-33642308D01*
X104035223Y-33253006D01*
X104104084Y-33241194D01*
X104168402Y-33268487D01*
G37*
%TD.AperFunction*%
%TA.AperFunction,Conductor*%
G36*
X79631587Y-29145185D02*
G01*
X79652229Y-29161819D01*
X80476263Y-29985855D01*
X80476267Y-29985858D01*
X80578712Y-30054310D01*
X80578711Y-30054310D01*
X80578713Y-30054311D01*
X80578715Y-30054312D01*
X80613058Y-30068537D01*
X80692548Y-30101463D01*
X80712597Y-30105451D01*
X80778400Y-30118540D01*
X80813392Y-30125501D01*
X80813394Y-30125501D01*
X80942721Y-30125501D01*
X80942741Y-30125500D01*
X82798071Y-30125500D01*
X82865110Y-30145185D01*
X82897335Y-30175186D01*
X83220746Y-30607180D01*
X83231967Y-30625199D01*
X83262298Y-30684727D01*
X83277839Y-30715227D01*
X83393535Y-30874468D01*
X83532717Y-31013650D01*
X83691958Y-31129346D01*
X83769955Y-31169087D01*
X83868576Y-31219337D01*
X83877730Y-31227982D01*
X83889397Y-31232718D01*
X83902648Y-31251516D01*
X83919372Y-31267311D01*
X83922398Y-31279534D01*
X83929653Y-31289825D01*
X83930637Y-31312804D01*
X83936167Y-31335132D01*
X83932105Y-31347049D01*
X83932645Y-31359630D01*
X83921049Y-31379495D01*
X83913630Y-31401267D01*
X83902927Y-31410541D01*
X83897422Y-31419972D01*
X83868575Y-31440307D01*
X83705797Y-31523245D01*
X83701922Y-31525136D01*
X83203022Y-31757853D01*
X82861649Y-31917090D01*
X82763874Y-31962698D01*
X82711455Y-31974322D01*
X81660274Y-31974322D01*
X81593235Y-31954637D01*
X81572593Y-31938003D01*
X78971771Y-29337181D01*
X78938286Y-29275858D01*
X78943270Y-29206166D01*
X78985142Y-29150233D01*
X79050606Y-29125816D01*
X79059452Y-29125500D01*
X79564548Y-29125500D01*
X79631587Y-29145185D01*
G37*
%TD.AperFunction*%
%TD*%
%TA.AperFunction,Conductor*%
%TO.N,+3V3*%
G36*
X86005399Y-42028044D02*
G01*
X87324872Y-42457194D01*
X87331678Y-42463010D01*
X87332952Y-42468319D01*
X87332952Y-43051324D01*
X87329525Y-43059597D01*
X87324871Y-43062450D01*
X86005405Y-43491597D01*
X85996477Y-43490897D01*
X85990660Y-43484090D01*
X85990486Y-43483502D01*
X85797176Y-42762853D01*
X85797176Y-42756791D01*
X85876836Y-42459822D01*
X85990487Y-42036139D01*
X85995939Y-42029038D01*
X86004817Y-42027872D01*
X86005399Y-42028044D01*
G37*
%TD.AperFunction*%
%TD*%
%TA.AperFunction,Conductor*%
%TO.N,SCL*%
G36*
X85367243Y-32455874D02*
G01*
X85765124Y-32588724D01*
X85771886Y-32594595D01*
X85772517Y-32603527D01*
X85766646Y-32610289D01*
X85765124Y-32610920D01*
X83935108Y-33221947D01*
X83926457Y-33221452D01*
X82868528Y-32727972D01*
X82862479Y-32721369D01*
X82861774Y-32717369D01*
X82861774Y-32482274D01*
X82865201Y-32474001D01*
X82868525Y-32471672D01*
X83926459Y-31978190D01*
X83935105Y-31977696D01*
X85367243Y-32455874D01*
G37*
%TD.AperFunction*%
%TD*%
%TA.AperFunction,Conductor*%
%TO.N,SDA*%
G36*
X84350180Y-29311278D02*
G01*
X85766453Y-30043328D01*
X85772228Y-30050170D01*
X85771474Y-30059093D01*
X85764631Y-30064869D01*
X85762860Y-30065285D01*
X83692777Y-30383881D01*
X83684079Y-30381752D01*
X83681633Y-30379331D01*
X83119239Y-29628117D01*
X83116905Y-29621105D01*
X83116905Y-29386097D01*
X83120332Y-29377824D01*
X83127985Y-29374413D01*
X84344195Y-29309989D01*
X84350180Y-29311278D01*
G37*
%TD.AperFunction*%
%TD*%
%TA.AperFunction,Conductor*%
%TO.N,GPIO1*%
G36*
X103211646Y-39778827D02*
G01*
X103213657Y-39780520D01*
X103949935Y-40558075D01*
X103953135Y-40566439D01*
X103949712Y-40574393D01*
X103818833Y-40705272D01*
X103812890Y-40708465D01*
X102735674Y-40927325D01*
X102728445Y-40926484D01*
X101167510Y-40206827D01*
X101161432Y-40200251D01*
X101161784Y-40191303D01*
X101168360Y-40185225D01*
X101170097Y-40184733D01*
X103202862Y-39777093D01*
X103211646Y-39778827D01*
G37*
%TD.AperFunction*%
%TD*%
%TA.AperFunction,Conductor*%
%TO.N,GPIO2*%
G36*
X102280641Y-37818815D02*
G01*
X103246067Y-37959553D01*
X103253759Y-37964138D01*
X103255823Y-37968695D01*
X103432708Y-38799628D01*
X103431078Y-38808433D01*
X103429537Y-38810337D01*
X103297231Y-38942643D01*
X103288958Y-38946070D01*
X103286253Y-38945753D01*
X100950974Y-38390865D01*
X100943717Y-38385619D01*
X100942296Y-38376777D01*
X100942371Y-38376478D01*
X101132220Y-37661868D01*
X101137656Y-37654754D01*
X101145215Y-37653296D01*
X102280641Y-37818815D01*
G37*
%TD.AperFunction*%
%TD*%
%TA.AperFunction,Conductor*%
%TO.N,GPIO3*%
G36*
X103005867Y-34491313D02*
G01*
X103007008Y-34491966D01*
X104068664Y-35181488D01*
X104073734Y-35188867D01*
X104072102Y-35197672D01*
X104070563Y-35199572D01*
X103940937Y-35329198D01*
X103937309Y-35331664D01*
X103006390Y-35734324D01*
X102998035Y-35734680D01*
X102497068Y-35567196D01*
X101168125Y-35122900D01*
X101161366Y-35117027D01*
X101160739Y-35108094D01*
X101166612Y-35101335D01*
X101168121Y-35100709D01*
X102996937Y-34490680D01*
X103005867Y-34491313D01*
G37*
%TD.AperFunction*%
%TD*%
%TA.AperFunction,Conductor*%
%TO.N,GPIO4*%
G36*
X103006588Y-31951006D02*
G01*
X104064641Y-32469289D01*
X104070563Y-32476006D01*
X104071194Y-32479796D01*
X104071194Y-32665201D01*
X104067767Y-32673474D01*
X104064641Y-32675708D01*
X103006588Y-33193991D01*
X102997736Y-33194582D01*
X101167843Y-32583597D01*
X101161081Y-32577726D01*
X101160450Y-32568794D01*
X101166321Y-32562032D01*
X101167843Y-32561401D01*
X101443717Y-32469289D01*
X102997736Y-31950415D01*
X103006588Y-31951006D01*
G37*
%TD.AperFunction*%
%TD*%
%TA.AperFunction,Conductor*%
%TO.N,+3V3*%
G36*
X83633276Y-42574783D02*
G01*
X85788048Y-42758261D01*
X85795999Y-42762378D01*
X85798729Y-42769152D01*
X85846605Y-43498286D01*
X85843727Y-43506766D01*
X85835838Y-43510718D01*
X83322989Y-43706228D01*
X83314475Y-43703453D01*
X83313808Y-43702836D01*
X82901780Y-43290808D01*
X82898353Y-43282535D01*
X82901780Y-43274262D01*
X82901837Y-43274205D01*
X83624176Y-42578017D01*
X83632510Y-42574744D01*
X83633276Y-42574783D01*
G37*
%TD.AperFunction*%
%TD*%
%TA.AperFunction,Conductor*%
%TO.N,+3V3*%
G36*
X84205161Y-42026128D02*
G01*
X85095595Y-42436186D01*
X85775286Y-42749195D01*
X85781367Y-42755768D01*
X85781019Y-42764716D01*
X85775286Y-42770449D01*
X84205244Y-43493477D01*
X84196658Y-43493952D01*
X82869782Y-43052663D01*
X82863013Y-43046801D01*
X82861774Y-43041561D01*
X82861774Y-42458557D01*
X82865201Y-42450284D01*
X82869927Y-42447407D01*
X84196725Y-42025606D01*
X84205161Y-42026128D01*
G37*
%TD.AperFunction*%
%TD*%
%TA.AperFunction,Conductor*%
%TO.N,GPIO12*%
G36*
X84205203Y-34406148D02*
G01*
X85775286Y-35129195D01*
X85781367Y-35135768D01*
X85781019Y-35144716D01*
X85775286Y-35150449D01*
X84205203Y-35873495D01*
X84196690Y-35873994D01*
X82869855Y-35442450D01*
X82863048Y-35436633D01*
X82861774Y-35431324D01*
X82861774Y-34848319D01*
X82865201Y-34840046D01*
X82869852Y-34837194D01*
X84196691Y-34405649D01*
X84205203Y-34406148D01*
G37*
%TD.AperFunction*%
%TD*%
%TA.AperFunction,Conductor*%
%TO.N,GPIO13*%
G36*
X84185926Y-36954253D02*
G01*
X85770768Y-37666839D01*
X85776908Y-37673357D01*
X85776641Y-37682308D01*
X85770123Y-37688448D01*
X85769680Y-37688606D01*
X83934976Y-38301989D01*
X83926546Y-38301599D01*
X83093015Y-37934134D01*
X83089462Y-37931701D01*
X82679690Y-37521929D01*
X82676263Y-37513656D01*
X82679690Y-37505383D01*
X82683922Y-37502676D01*
X84177094Y-36953943D01*
X84185926Y-36954253D01*
G37*
%TD.AperFunction*%
%TD*%
M02*
