%TF.GenerationSoftware,KiCad,Pcbnew,9.0.5*%
%TF.CreationDate,2025-11-19T14:43:04+01:00*%
%TF.ProjectId,caelum,6361656c-756d-42e6-9b69-6361645f7063,rev?*%
%TF.SameCoordinates,Original*%
%TF.FileFunction,Soldermask,Bot*%
%TF.FilePolarity,Negative*%
%FSLAX46Y46*%
G04 Gerber Fmt 4.6, Leading zero omitted, Abs format (unit mm)*
G04 Created by KiCad (PCBNEW 9.0.5) date 2025-11-19 14:43:04*
%MOMM*%
%LPD*%
G01*
G04 APERTURE LIST*
G04 Aperture macros list*
%AMRoundRect*
0 Rectangle with rounded corners*
0 $1 Rounding radius*
0 $2 $3 $4 $5 $6 $7 $8 $9 X,Y pos of 4 corners*
0 Add a 4 corners polygon primitive as box body*
4,1,4,$2,$3,$4,$5,$6,$7,$8,$9,$2,$3,0*
0 Add four circle primitives for the rounded corners*
1,1,$1+$1,$2,$3*
1,1,$1+$1,$4,$5*
1,1,$1+$1,$6,$7*
1,1,$1+$1,$8,$9*
0 Add four rect primitives between the rounded corners*
20,1,$1+$1,$2,$3,$4,$5,0*
20,1,$1+$1,$4,$5,$6,$7,0*
20,1,$1+$1,$6,$7,$8,$9,0*
20,1,$1+$1,$8,$9,$2,$3,0*%
G04 Aperture macros list end*
%ADD10O,3.000000X1.500000*%
%ADD11RoundRect,0.250000X1.250000X0.600000X-1.250000X0.600000X-1.250000X-0.600000X1.250000X-0.600000X0*%
%ADD12C,2.200000*%
%ADD13R,1.700000X1.700000*%
%ADD14C,1.700000*%
%ADD15RoundRect,0.250000X0.845000X-0.620000X0.845000X0.620000X-0.845000X0.620000X-0.845000X-0.620000X0*%
%ADD16O,2.190000X1.740000*%
%ADD17RoundRect,0.250000X-0.450000X0.262500X-0.450000X-0.262500X0.450000X-0.262500X0.450000X0.262500X0*%
%ADD18RoundRect,0.250000X-0.262500X-0.450000X0.262500X-0.450000X0.262500X0.450000X-0.262500X0.450000X0*%
%ADD19RoundRect,0.250000X-0.475000X0.250000X-0.475000X-0.250000X0.475000X-0.250000X0.475000X0.250000X0*%
G04 APERTURE END LIST*
D10*
%TO.C,U3*%
X101835605Y-47812499D03*
X101835605Y-45272499D03*
X101835605Y-42732499D03*
X101835605Y-40192499D03*
X101835605Y-37652499D03*
X101835605Y-35112499D03*
X101835605Y-32572499D03*
X101835605Y-30032499D03*
D11*
X85097363Y-47839822D03*
D10*
X85097363Y-45299822D03*
X85097363Y-42759822D03*
X85097363Y-40219822D03*
X85097363Y-37679822D03*
X85097363Y-35139822D03*
X85097363Y-32599822D03*
X85097363Y-30059822D03*
%TD*%
D12*
%TO.C,H4*%
X108000000Y-63000000D03*
%TD*%
%TO.C,H3*%
X108000000Y-29500000D03*
%TD*%
%TO.C,H2*%
X60000000Y-63000000D03*
%TD*%
%TO.C,H1*%
X60000000Y-29500000D03*
%TD*%
D13*
%TO.C,J6*%
X61500000Y-45460000D03*
D14*
X61500000Y-48000000D03*
%TD*%
D15*
%TO.C,J8*%
X106500000Y-57080000D03*
D16*
X106500000Y-54540000D03*
X106500000Y-52000000D03*
%TD*%
D13*
%TO.C,J3*%
X61400000Y-36725000D03*
D14*
X61400000Y-39265000D03*
%TD*%
D17*
%TO.C,1K\u03A9*%
X98300000Y-53200000D03*
X98300000Y-55025000D03*
%TD*%
D13*
%TO.C,J7*%
X75880000Y-35800000D03*
D14*
X73340000Y-35800000D03*
X70800000Y-35800000D03*
X68260000Y-35800000D03*
%TD*%
D13*
%TO.C,J4*%
X62750000Y-54460000D03*
D14*
X62750000Y-57000000D03*
%TD*%
D13*
%TO.C,J10*%
X75910000Y-31800000D03*
D14*
X73370000Y-31800000D03*
X70830000Y-31800000D03*
X68290000Y-31800000D03*
%TD*%
D18*
%TO.C,R3*%
X96000000Y-48000000D03*
X97825000Y-48000000D03*
%TD*%
D19*
%TO.C,0\u002C1\u00B5F*%
X102500000Y-55000000D03*
X102500000Y-56900000D03*
%TD*%
M02*
