%TF.GenerationSoftware,KiCad,Pcbnew,9.0.5*%
%TF.CreationDate,2025-11-19T14:43:04+01:00*%
%TF.ProjectId,caelum,6361656c-756d-42e6-9b69-6361645f7063,rev?*%
%TF.SameCoordinates,Original*%
%TF.FileFunction,Copper,L2,Bot*%
%TF.FilePolarity,Positive*%
%FSLAX46Y46*%
G04 Gerber Fmt 4.6, Leading zero omitted, Abs format (unit mm)*
G04 Created by KiCad (PCBNEW 9.0.5) date 2025-11-19 14:43:04*
%MOMM*%
%LPD*%
G01*
G04 APERTURE LIST*
G04 Aperture macros list*
%AMRoundRect*
0 Rectangle with rounded corners*
0 $1 Rounding radius*
0 $2 $3 $4 $5 $6 $7 $8 $9 X,Y pos of 4 corners*
0 Add a 4 corners polygon primitive as box body*
4,1,4,$2,$3,$4,$5,$6,$7,$8,$9,$2,$3,0*
0 Add four circle primitives for the rounded corners*
1,1,$1+$1,$2,$3*
1,1,$1+$1,$4,$5*
1,1,$1+$1,$6,$7*
1,1,$1+$1,$8,$9*
0 Add four rect primitives between the rounded corners*
20,1,$1+$1,$2,$3,$4,$5,0*
20,1,$1+$1,$4,$5,$6,$7,0*
20,1,$1+$1,$6,$7,$8,$9,0*
20,1,$1+$1,$8,$9,$2,$3,0*%
G04 Aperture macros list end*
%TA.AperFunction,ComponentPad*%
%ADD10O,3.000000X1.500000*%
%TD*%
%TA.AperFunction,ComponentPad*%
%ADD11RoundRect,0.250000X1.250000X0.600000X-1.250000X0.600000X-1.250000X-0.600000X1.250000X-0.600000X0*%
%TD*%
%TA.AperFunction,ComponentPad*%
%ADD12R,1.700000X1.700000*%
%TD*%
%TA.AperFunction,ComponentPad*%
%ADD13C,1.700000*%
%TD*%
%TA.AperFunction,ComponentPad*%
%ADD14RoundRect,0.250000X0.845000X-0.620000X0.845000X0.620000X-0.845000X0.620000X-0.845000X-0.620000X0*%
%TD*%
%TA.AperFunction,ComponentPad*%
%ADD15O,2.190000X1.740000*%
%TD*%
%TA.AperFunction,SMDPad,CuDef*%
%ADD16RoundRect,0.250000X-0.450000X0.262500X-0.450000X-0.262500X0.450000X-0.262500X0.450000X0.262500X0*%
%TD*%
%TA.AperFunction,SMDPad,CuDef*%
%ADD17RoundRect,0.250000X-0.262500X-0.450000X0.262500X-0.450000X0.262500X0.450000X-0.262500X0.450000X0*%
%TD*%
%TA.AperFunction,SMDPad,CuDef*%
%ADD18RoundRect,0.250000X-0.475000X0.250000X-0.475000X-0.250000X0.475000X-0.250000X0.475000X0.250000X0*%
%TD*%
%TA.AperFunction,ViaPad*%
%ADD19C,0.600000*%
%TD*%
%TA.AperFunction,Conductor*%
%ADD20C,0.200000*%
%TD*%
%TA.AperFunction,Conductor*%
%ADD21C,0.600000*%
%TD*%
%TA.AperFunction,Conductor*%
%ADD22C,0.250000*%
%TD*%
G04 APERTURE END LIST*
D10*
%TO.P,U3,19,IO24*%
%TO.N,GPIO24*%
X101835605Y-47812499D03*
%TO.P,U3,18,IO23*%
%TO.N,unconnected-(U3-IO23-Pad18)*%
X101835605Y-45272499D03*
%TO.P,U3,17,IO0*%
%TO.N,unconnected-(U3-IO0-Pad17)*%
X101835605Y-42732499D03*
%TO.P,U3,16,IO1*%
%TO.N,GPIO1*%
X101835605Y-40192499D03*
%TO.P,U3,15,IO2*%
%TO.N,GPIO2*%
X101835605Y-37652499D03*
%TO.P,U3,14,IO3*%
%TO.N,GPIO3*%
X101835605Y-35112499D03*
%TO.P,U3,13,IO4*%
%TO.N,GPIO4*%
X101835605Y-32572499D03*
%TO.P,U3,12,IO5*%
%TO.N,unconnected-(U3-IO5-Pad12)*%
X101835605Y-30032499D03*
D11*
%TO.P,U3,9,5V*%
%TO.N,unconnected-(U3-5V-Pad9)*%
X85097363Y-47839822D03*
D10*
%TO.P,U3,8,GND*%
%TO.N,OUT-*%
X85097363Y-45299822D03*
%TO.P,U3,7,3V3*%
%TO.N,+3V3*%
X85097363Y-42759822D03*
%TO.P,U3,6,IO14*%
%TO.N,unconnected-(U3-IO14-Pad6)*%
X85097363Y-40219822D03*
%TO.P,U3,5,IO13*%
%TO.N,GPIO13*%
X85097363Y-37679822D03*
%TO.P,U3,4,IO12*%
%TO.N,GPIO12*%
X85097363Y-35139822D03*
%TO.P,U3,3,IO11*%
%TO.N,SCL*%
X85097363Y-32599822D03*
%TO.P,U3,2,IO10*%
%TO.N,SDA*%
X85097363Y-30059822D03*
%TD*%
D12*
%TO.P,J6,1,Pin_1*%
%TO.N,GPIO13*%
X61500000Y-45460000D03*
D13*
%TO.P,J6,2,Pin_2*%
%TO.N,+3V3*%
X61500000Y-48000000D03*
%TD*%
D14*
%TO.P,J8,1,Pin_1*%
%TO.N,+3V3*%
X106500000Y-57080000D03*
D15*
%TO.P,J8,2,Pin_2*%
%TO.N,OUT-*%
X106500000Y-54540000D03*
%TO.P,J8,3,Pin_3*%
%TO.N,GPIO24*%
X106500000Y-52000000D03*
%TD*%
D12*
%TO.P,J3,1,Pin_1*%
%TO.N,GPIO12*%
X61400000Y-36725000D03*
D13*
%TO.P,J3,2,Pin_2*%
%TO.N,+3V3*%
X61400000Y-39265000D03*
%TD*%
D16*
%TO.P,1K\u03A9,1*%
%TO.N,Net-(U1-CS)*%
X98300000Y-53200000D03*
%TO.P,1K\u03A9,2*%
%TO.N,OUT-*%
X98300000Y-55025000D03*
%TD*%
D12*
%TO.P,J7,1,Pin_1*%
%TO.N,+3V3*%
X75880000Y-35800000D03*
D13*
%TO.P,J7,2,Pin_2*%
%TO.N,SDA*%
X73340000Y-35800000D03*
%TO.P,J7,3,Pin_3*%
%TO.N,OUT-*%
X70800000Y-35800000D03*
%TO.P,J7,4,Pin_4*%
%TO.N,SCL*%
X68260000Y-35800000D03*
%TD*%
D12*
%TO.P,J4,1,Pin_1*%
%TO.N,BATT+*%
X62750000Y-54460000D03*
D13*
%TO.P,J4,2,Pin_2*%
%TO.N,BATT-*%
X62750000Y-57000000D03*
%TD*%
D12*
%TO.P,J10,1,Pin_1*%
%TO.N,+3V3*%
X75910000Y-31800000D03*
D13*
%TO.P,J10,2,Pin_2*%
%TO.N,OUT-*%
X73370000Y-31800000D03*
%TO.P,J10,3,Pin_3*%
%TO.N,SCL*%
X70830000Y-31800000D03*
%TO.P,J10,4,Pin_4*%
%TO.N,SDA*%
X68290000Y-31800000D03*
%TD*%
D17*
%TO.P,R3,1*%
%TO.N,+3V3*%
X96000000Y-48000000D03*
%TO.P,R3,2*%
%TO.N,GPIO24*%
X97825000Y-48000000D03*
%TD*%
D18*
%TO.P,0\u002C1\u00B5F,1*%
%TO.N,OUT-*%
X102500000Y-55000000D03*
%TO.P,0\u002C1\u00B5F,2*%
%TO.N,+3V3*%
X102500000Y-56900000D03*
%TD*%
D19*
%TO.N,OUT-*%
X100100000Y-51800000D03*
X87900000Y-63500000D03*
X103200000Y-62400000D03*
%TO.N,Net-(U1-CS)*%
X95900000Y-53100000D03*
%TO.N,OUT-*%
X64000000Y-33000000D03*
X82250000Y-28500000D03*
X109500000Y-46750000D03*
X107500000Y-45000000D03*
X103750000Y-36500000D03*
X104168402Y-34000000D03*
X105750000Y-48000000D03*
X109000000Y-41000000D03*
X108000000Y-34250000D03*
X82250000Y-31000000D03*
X67100000Y-56700000D03*
X92100000Y-56200000D03*
X87800000Y-56200000D03*
X98000000Y-56700000D03*
X64000000Y-29250000D03*
X76600000Y-41500000D03*
X81500000Y-37300000D03*
X80000000Y-33500000D03*
X84000000Y-54000000D03*
X66000000Y-39700000D03*
X92500000Y-34900000D03*
X92500000Y-45500000D03*
X92500000Y-40100000D03*
X83600000Y-57200000D03*
X68500000Y-48000000D03*
%TO.N,+3V3*%
X81700000Y-48100000D03*
X81550000Y-54575000D03*
%TO.N,GPIO13*%
X74200000Y-40100000D03*
%TO.N,Net-(Q1-G1)*%
X94150000Y-60150000D03*
X95100000Y-56700000D03*
%TD*%
D20*
%TO.N,Net-(U1-CS)*%
X96000000Y-53200000D02*
X98300000Y-53200000D01*
X95900000Y-53100000D02*
X96000000Y-53200000D01*
D21*
%TO.N,+3V3*%
X102680000Y-57080000D02*
X102500000Y-56900000D01*
X106500000Y-57080000D02*
X102680000Y-57080000D01*
%TO.N,GPIO13*%
X63940000Y-45460000D02*
X69300000Y-40100000D01*
X69300000Y-40100000D02*
X74200000Y-40100000D01*
X61500000Y-45460000D02*
X63940000Y-45460000D01*
D20*
%TO.N,Net-(Q1-G1)*%
X95000000Y-56800000D02*
X95100000Y-56700000D01*
X95000000Y-59300000D02*
X95000000Y-56800000D01*
X94150000Y-60150000D02*
X95000000Y-59300000D01*
D21*
%TO.N,+3V3*%
X96000000Y-48000000D02*
X92500000Y-48000000D01*
X81700000Y-54425000D02*
X81550000Y-54575000D01*
X82839822Y-42759822D02*
X75880000Y-35800000D01*
X85797363Y-42759822D02*
X82839822Y-42759822D01*
X87259822Y-42759822D02*
X85797363Y-42759822D01*
X92500000Y-48000000D02*
X87259822Y-42759822D01*
X81700000Y-48100000D02*
X81700000Y-54425000D01*
D22*
%TO.N,SDA*%
X70290000Y-33800000D02*
X72500000Y-33800000D01*
X68290000Y-31800000D02*
X70290000Y-33800000D01*
X72500000Y-33800000D02*
X73340000Y-34640000D01*
X73340000Y-34640000D02*
X73340000Y-35800000D01*
D20*
%TO.N,GPIO24*%
X101135605Y-47812499D02*
X102312499Y-47812499D01*
D21*
X102312499Y-47812499D02*
X106500000Y-52000000D01*
D20*
X100948104Y-48000000D02*
X97825000Y-48000000D01*
X101135605Y-47812499D02*
X100948104Y-48000000D01*
%TD*%
%TA.AperFunction,Conductor*%
%TO.N,OUT-*%
G36*
X85004418Y-27000816D02*
G01*
X85204561Y-27015130D01*
X85222063Y-27017647D01*
X85413795Y-27059355D01*
X85430756Y-27064335D01*
X85509674Y-27093770D01*
X85565606Y-27135641D01*
X85577248Y-27154497D01*
X86243173Y-28486347D01*
X86253311Y-28514902D01*
X86292956Y-28693305D01*
X86288283Y-28763018D01*
X86246662Y-28819138D01*
X86181308Y-28843847D01*
X86142977Y-28840781D01*
X86140199Y-28840114D01*
X85945785Y-28809322D01*
X85945780Y-28809322D01*
X84248946Y-28809322D01*
X84248941Y-28809322D01*
X84054536Y-28840112D01*
X83867333Y-28900939D01*
X83691957Y-28990298D01*
X83601104Y-29056307D01*
X83532717Y-29105994D01*
X83532715Y-29105996D01*
X83532714Y-29105996D01*
X83393537Y-29245173D01*
X83393537Y-29245174D01*
X83393535Y-29245176D01*
X83343848Y-29313563D01*
X83277839Y-29404416D01*
X83188480Y-29579792D01*
X83127653Y-29766995D01*
X83096863Y-29961399D01*
X83096863Y-30158244D01*
X83127653Y-30352648D01*
X83188480Y-30539851D01*
X83262299Y-30684728D01*
X83277839Y-30715227D01*
X83393535Y-30874468D01*
X83532717Y-31013650D01*
X83691958Y-31129346D01*
X83769955Y-31169087D01*
X83868576Y-31219337D01*
X83919372Y-31267311D01*
X83936167Y-31335132D01*
X83913630Y-31401267D01*
X83868576Y-31440307D01*
X83691957Y-31530298D01*
X83601104Y-31596307D01*
X83532717Y-31645994D01*
X83532715Y-31645996D01*
X83532714Y-31645996D01*
X83393537Y-31785173D01*
X83393537Y-31785174D01*
X83393535Y-31785176D01*
X83343848Y-31853563D01*
X83277839Y-31944416D01*
X83188480Y-32119792D01*
X83127653Y-32306995D01*
X83096863Y-32501399D01*
X83096863Y-32698244D01*
X83127653Y-32892648D01*
X83188480Y-33079851D01*
X83237011Y-33175097D01*
X83277839Y-33255227D01*
X83393535Y-33414468D01*
X83532717Y-33553650D01*
X83691958Y-33669346D01*
X83813713Y-33731383D01*
X83868576Y-33759337D01*
X83919372Y-33807311D01*
X83936167Y-33875132D01*
X83913630Y-33941267D01*
X83868576Y-33980307D01*
X83691957Y-34070298D01*
X83601104Y-34136307D01*
X83532717Y-34185994D01*
X83532715Y-34185996D01*
X83532714Y-34185996D01*
X83393537Y-34325173D01*
X83393537Y-34325174D01*
X83393535Y-34325176D01*
X83372366Y-34354313D01*
X83277839Y-34484416D01*
X83188480Y-34659792D01*
X83127653Y-34846995D01*
X83096863Y-35041399D01*
X83096863Y-35238244D01*
X83127653Y-35432648D01*
X83188480Y-35619851D01*
X83263720Y-35767517D01*
X83277839Y-35795227D01*
X83393535Y-35954468D01*
X83532717Y-36093650D01*
X83691958Y-36209346D01*
X83803001Y-36265925D01*
X83868576Y-36299337D01*
X83919372Y-36347311D01*
X83936167Y-36415132D01*
X83913630Y-36481267D01*
X83868576Y-36520307D01*
X83691957Y-36610298D01*
X83601104Y-36676307D01*
X83532717Y-36725994D01*
X83532715Y-36725996D01*
X83532714Y-36725996D01*
X83393537Y-36865173D01*
X83393537Y-36865174D01*
X83393535Y-36865176D01*
X83343848Y-36933563D01*
X83277839Y-37024416D01*
X83188480Y-37199792D01*
X83127653Y-37386995D01*
X83096863Y-37581399D01*
X83096863Y-37778244D01*
X83127653Y-37972648D01*
X83188480Y-38159851D01*
X83263917Y-38307904D01*
X83277839Y-38335227D01*
X83393535Y-38494468D01*
X83532717Y-38633650D01*
X83691958Y-38749346D01*
X83813713Y-38811383D01*
X83868576Y-38839337D01*
X83919372Y-38887311D01*
X83936167Y-38955132D01*
X83913630Y-39021267D01*
X83868576Y-39060307D01*
X83691957Y-39150298D01*
X83601104Y-39216307D01*
X83532717Y-39265994D01*
X83532715Y-39265996D01*
X83532714Y-39265996D01*
X83393537Y-39405173D01*
X83393537Y-39405174D01*
X83393535Y-39405176D01*
X83343848Y-39473563D01*
X83277839Y-39564416D01*
X83188480Y-39739792D01*
X83127653Y-39926995D01*
X83096863Y-40121399D01*
X83096863Y-40318244D01*
X83127653Y-40512648D01*
X83188480Y-40699851D01*
X83244297Y-40809397D01*
X83277839Y-40875227D01*
X83393535Y-41034468D01*
X83532717Y-41173650D01*
X83691958Y-41289346D01*
X83796947Y-41342840D01*
X83867251Y-41378662D01*
X83918047Y-41426636D01*
X83934842Y-41494457D01*
X83912305Y-41560592D01*
X83857590Y-41604044D01*
X83849309Y-41607067D01*
X83144254Y-41836381D01*
X83074413Y-41838396D01*
X83018220Y-41806142D01*
X77266818Y-36054740D01*
X77233333Y-35993417D01*
X77230499Y-35967059D01*
X77230499Y-34902129D01*
X77230498Y-34902123D01*
X77224091Y-34842516D01*
X77173797Y-34707671D01*
X77173793Y-34707664D01*
X77087547Y-34592455D01*
X77087544Y-34592452D01*
X76972335Y-34506206D01*
X76972328Y-34506202D01*
X76837482Y-34455908D01*
X76837483Y-34455908D01*
X76777883Y-34449501D01*
X76777881Y-34449500D01*
X76777873Y-34449500D01*
X76777864Y-34449500D01*
X74982129Y-34449500D01*
X74982123Y-34449501D01*
X74922516Y-34455908D01*
X74787671Y-34506202D01*
X74787664Y-34506206D01*
X74672455Y-34592452D01*
X74672452Y-34592455D01*
X74586206Y-34707664D01*
X74586203Y-34707669D01*
X74537189Y-34839083D01*
X74495317Y-34895016D01*
X74429853Y-34919433D01*
X74361580Y-34904581D01*
X74333326Y-34883430D01*
X74219786Y-34769890D01*
X74047817Y-34644949D01*
X74024535Y-34633086D01*
X73973739Y-34585111D01*
X73959215Y-34546798D01*
X73941463Y-34457548D01*
X73898701Y-34354312D01*
X73894312Y-34343716D01*
X73894307Y-34343707D01*
X73825859Y-34241268D01*
X73783320Y-34198729D01*
X73738733Y-34154142D01*
X73738732Y-34154141D01*
X72985859Y-33401269D01*
X72985858Y-33401267D01*
X72898733Y-33314142D01*
X72898732Y-33314141D01*
X72896896Y-33312305D01*
X72863412Y-33250981D01*
X72868396Y-33181290D01*
X72910268Y-33125356D01*
X72975733Y-33100940D01*
X73022897Y-33106693D01*
X73053873Y-33116758D01*
X73263754Y-33150000D01*
X73476246Y-33150000D01*
X73686127Y-33116757D01*
X73686130Y-33116757D01*
X73888217Y-33051095D01*
X74077554Y-32954622D01*
X74131716Y-32915270D01*
X74131717Y-32915270D01*
X73499408Y-32282962D01*
X73562993Y-32265925D01*
X73677007Y-32200099D01*
X73770099Y-32107007D01*
X73835925Y-31992993D01*
X73852962Y-31929408D01*
X74523181Y-32599628D01*
X74556666Y-32660951D01*
X74559500Y-32687300D01*
X74559500Y-32697865D01*
X74559501Y-32697876D01*
X74565908Y-32757483D01*
X74616202Y-32892328D01*
X74616206Y-32892335D01*
X74702452Y-33007544D01*
X74702455Y-33007547D01*
X74817664Y-33093793D01*
X74817671Y-33093797D01*
X74952517Y-33144091D01*
X74952516Y-33144091D01*
X74959444Y-33144835D01*
X75012127Y-33150500D01*
X76807872Y-33150499D01*
X76867483Y-33144091D01*
X77002331Y-33093796D01*
X77117546Y-33007546D01*
X77203796Y-32892331D01*
X77254091Y-32757483D01*
X77260500Y-32697873D01*
X77260499Y-30902128D01*
X77254589Y-30847146D01*
X77254091Y-30842516D01*
X77203797Y-30707671D01*
X77203793Y-30707664D01*
X77117547Y-30592455D01*
X77117544Y-30592452D01*
X77002335Y-30506206D01*
X77002328Y-30506202D01*
X76867482Y-30455908D01*
X76867483Y-30455908D01*
X76807883Y-30449501D01*
X76807881Y-30449500D01*
X76807873Y-30449500D01*
X76807864Y-30449500D01*
X75012129Y-30449500D01*
X75012123Y-30449501D01*
X74952516Y-30455908D01*
X74817671Y-30506202D01*
X74817664Y-30506206D01*
X74702455Y-30592452D01*
X74702452Y-30592455D01*
X74616206Y-30707664D01*
X74616202Y-30707671D01*
X74565908Y-30842517D01*
X74559501Y-30902116D01*
X74559501Y-30902123D01*
X74559500Y-30902135D01*
X74559500Y-30912690D01*
X74539815Y-30979729D01*
X74523181Y-31000371D01*
X73852962Y-31670590D01*
X73835925Y-31607007D01*
X73770099Y-31492993D01*
X73677007Y-31399901D01*
X73562993Y-31334075D01*
X73499409Y-31317037D01*
X74131716Y-30684728D01*
X74077550Y-30645375D01*
X73888217Y-30548904D01*
X73686129Y-30483242D01*
X73476246Y-30450000D01*
X73263754Y-30450000D01*
X73053872Y-30483242D01*
X73053869Y-30483242D01*
X72851782Y-30548904D01*
X72662439Y-30645380D01*
X72608282Y-30684727D01*
X72608282Y-30684728D01*
X73240591Y-31317037D01*
X73177007Y-31334075D01*
X73062993Y-31399901D01*
X72969901Y-31492993D01*
X72904075Y-31607007D01*
X72887037Y-31670591D01*
X72254728Y-31038282D01*
X72254727Y-31038282D01*
X72215380Y-31092440D01*
X72215376Y-31092446D01*
X72210760Y-31101505D01*
X72162781Y-31152297D01*
X72094959Y-31169087D01*
X72028826Y-31146543D01*
X71989794Y-31101493D01*
X71985051Y-31092184D01*
X71985049Y-31092181D01*
X71985048Y-31092179D01*
X71860109Y-30920213D01*
X71709786Y-30769890D01*
X71537820Y-30644951D01*
X71348414Y-30548444D01*
X71348413Y-30548443D01*
X71348412Y-30548443D01*
X71146243Y-30482754D01*
X71146241Y-30482753D01*
X71146240Y-30482753D01*
X70984957Y-30457208D01*
X70936287Y-30449500D01*
X70723713Y-30449500D01*
X70675042Y-30457208D01*
X70513760Y-30482753D01*
X70311585Y-30548444D01*
X70122179Y-30644951D01*
X69950213Y-30769890D01*
X69799890Y-30920213D01*
X69674949Y-31092182D01*
X69670484Y-31100946D01*
X69622509Y-31151742D01*
X69554688Y-31168536D01*
X69488553Y-31145998D01*
X69449516Y-31100946D01*
X69445050Y-31092182D01*
X69320109Y-30920213D01*
X69169786Y-30769890D01*
X68997820Y-30644951D01*
X68808414Y-30548444D01*
X68808413Y-30548443D01*
X68808412Y-30548443D01*
X68606243Y-30482754D01*
X68606241Y-30482753D01*
X68606240Y-30482753D01*
X68444957Y-30457208D01*
X68396287Y-30449500D01*
X68183713Y-30449500D01*
X68135042Y-30457208D01*
X67973760Y-30482753D01*
X67771585Y-30548444D01*
X67582179Y-30644951D01*
X67410213Y-30769890D01*
X67259890Y-30920213D01*
X67134951Y-31092179D01*
X67038444Y-31281585D01*
X66972753Y-31483760D01*
X66939500Y-31693713D01*
X66939500Y-31906286D01*
X66968988Y-32092469D01*
X66972754Y-32116243D01*
X67034733Y-32306995D01*
X67038444Y-32318414D01*
X67134951Y-32507820D01*
X67259890Y-32679786D01*
X67410213Y-32830109D01*
X67582179Y-32955048D01*
X67582181Y-32955049D01*
X67582184Y-32955051D01*
X67771588Y-33051557D01*
X67973757Y-33117246D01*
X68183713Y-33150500D01*
X68183714Y-33150500D01*
X68396286Y-33150500D01*
X68396287Y-33150500D01*
X68606243Y-33117246D01*
X68621840Y-33112177D01*
X68691679Y-33110183D01*
X68747838Y-33142428D01*
X69804139Y-34198729D01*
X69804142Y-34198733D01*
X69891267Y-34285858D01*
X69942490Y-34320084D01*
X69993714Y-34354312D01*
X69993715Y-34354312D01*
X69993716Y-34354313D01*
X70073729Y-34387454D01*
X70073730Y-34387455D01*
X70073847Y-34387503D01*
X70074207Y-34387652D01*
X70107548Y-34401463D01*
X70108333Y-34401619D01*
X70114504Y-34404145D01*
X70137412Y-34422448D01*
X70161946Y-34438518D01*
X70164395Y-34444007D01*
X70169090Y-34447758D01*
X70178465Y-34475538D01*
X70190417Y-34502324D01*
X70189509Y-34508266D01*
X70191431Y-34513960D01*
X70184298Y-34542401D01*
X70179872Y-34571393D01*
X70175897Y-34575900D01*
X70174435Y-34581731D01*
X70153056Y-34601802D01*
X70133660Y-34623798D01*
X70123828Y-34629386D01*
X70092444Y-34645377D01*
X70092440Y-34645380D01*
X70038282Y-34684727D01*
X70038282Y-34684728D01*
X70670591Y-35317037D01*
X70607007Y-35334075D01*
X70492993Y-35399901D01*
X70399901Y-35492993D01*
X70334075Y-35607007D01*
X70317037Y-35670591D01*
X69684728Y-35038282D01*
X69684727Y-35038282D01*
X69645380Y-35092440D01*
X69645376Y-35092446D01*
X69640760Y-35101505D01*
X69592781Y-35152297D01*
X69524959Y-35169087D01*
X69458826Y-35146543D01*
X69419794Y-35101493D01*
X69415051Y-35092184D01*
X69415049Y-35092181D01*
X69415048Y-35092179D01*
X69290109Y-34920213D01*
X69139786Y-34769890D01*
X68967820Y-34644951D01*
X68778414Y-34548444D01*
X68778413Y-34548443D01*
X68778412Y-34548443D01*
X68576243Y-34482754D01*
X68576241Y-34482753D01*
X68576240Y-34482753D01*
X68414227Y-34457093D01*
X68366287Y-34449500D01*
X68153713Y-34449500D01*
X68105773Y-34457093D01*
X67943760Y-34482753D01*
X67741585Y-34548444D01*
X67552179Y-34644951D01*
X67380213Y-34769890D01*
X67229890Y-34920213D01*
X67104951Y-35092179D01*
X67008444Y-35281585D01*
X66942753Y-35483760D01*
X66919169Y-35632664D01*
X66909500Y-35693713D01*
X66909500Y-35906287D01*
X66919125Y-35967059D01*
X66939175Y-36093650D01*
X66942754Y-36116243D01*
X67006052Y-36311054D01*
X67008444Y-36318414D01*
X67104951Y-36507820D01*
X67229890Y-36679786D01*
X67380213Y-36830109D01*
X67552179Y-36955048D01*
X67552181Y-36955049D01*
X67552184Y-36955051D01*
X67741588Y-37051557D01*
X67943757Y-37117246D01*
X68153713Y-37150500D01*
X68153714Y-37150500D01*
X68366286Y-37150500D01*
X68366287Y-37150500D01*
X68576243Y-37117246D01*
X68778412Y-37051557D01*
X68967816Y-36955051D01*
X69054138Y-36892335D01*
X69139786Y-36830109D01*
X69139788Y-36830106D01*
X69139792Y-36830104D01*
X69290104Y-36679792D01*
X69290106Y-36679788D01*
X69290109Y-36679786D01*
X69375890Y-36561717D01*
X69415051Y-36507816D01*
X69419793Y-36498508D01*
X69467763Y-36447711D01*
X69535583Y-36430911D01*
X69601719Y-36453445D01*
X69640763Y-36498500D01*
X69645373Y-36507547D01*
X69684728Y-36561716D01*
X70317037Y-35929408D01*
X70334075Y-35992993D01*
X70399901Y-36107007D01*
X70492993Y-36200099D01*
X70607007Y-36265925D01*
X70670590Y-36282962D01*
X70038282Y-36915269D01*
X70038282Y-36915270D01*
X70092449Y-36954624D01*
X70281782Y-37051095D01*
X70483870Y-37116757D01*
X70693754Y-37150000D01*
X70906246Y-37150000D01*
X71116127Y-37116757D01*
X71116130Y-37116757D01*
X71318217Y-37051095D01*
X71507554Y-36954622D01*
X71561716Y-36915270D01*
X71561717Y-36915270D01*
X70929408Y-36282962D01*
X70992993Y-36265925D01*
X71107007Y-36200099D01*
X71200099Y-36107007D01*
X71265925Y-35992993D01*
X71282962Y-35929408D01*
X71915270Y-36561717D01*
X71915270Y-36561716D01*
X71954622Y-36507555D01*
X71959232Y-36498507D01*
X72007205Y-36447709D01*
X72075025Y-36430912D01*
X72141161Y-36453447D01*
X72180204Y-36498504D01*
X72184949Y-36507817D01*
X72309890Y-36679786D01*
X72460213Y-36830109D01*
X72632179Y-36955048D01*
X72632181Y-36955049D01*
X72632184Y-36955051D01*
X72821588Y-37051557D01*
X73023757Y-37117246D01*
X73233713Y-37150500D01*
X73233714Y-37150500D01*
X73446286Y-37150500D01*
X73446287Y-37150500D01*
X73656243Y-37117246D01*
X73858412Y-37051557D01*
X74047816Y-36955051D01*
X74171523Y-36865173D01*
X74219784Y-36830110D01*
X74219784Y-36830109D01*
X74219792Y-36830104D01*
X74333329Y-36716566D01*
X74394648Y-36683084D01*
X74464340Y-36688068D01*
X74520274Y-36729939D01*
X74537189Y-36760917D01*
X74586202Y-36892328D01*
X74586206Y-36892335D01*
X74672452Y-37007544D01*
X74672455Y-37007547D01*
X74787664Y-37093793D01*
X74787671Y-37093797D01*
X74922517Y-37144091D01*
X74922516Y-37144091D01*
X74929444Y-37144835D01*
X74982127Y-37150500D01*
X76047059Y-37150499D01*
X76114098Y-37170183D01*
X76134740Y-37186818D01*
X82329529Y-43381608D01*
X82329533Y-43381611D01*
X82460636Y-43469212D01*
X82460640Y-43469214D01*
X82460643Y-43469216D01*
X82606325Y-43529560D01*
X82674716Y-43543163D01*
X82766955Y-43561511D01*
X82766815Y-43562210D01*
X82781353Y-43565230D01*
X83849984Y-43912794D01*
X83907647Y-43952249D01*
X83934827Y-44016615D01*
X83922892Y-44085458D01*
X83875633Y-44136920D01*
X83867926Y-44141199D01*
X83692219Y-44230726D01*
X83533041Y-44346377D01*
X83393918Y-44485500D01*
X83278267Y-44644678D01*
X83188944Y-44819984D01*
X83128144Y-45007105D01*
X83121379Y-45049822D01*
X85364351Y-45049822D01*
X85331438Y-45106829D01*
X85297363Y-45233996D01*
X85297363Y-45365648D01*
X85331438Y-45492815D01*
X85364351Y-45549822D01*
X83121379Y-45549822D01*
X83128144Y-45592538D01*
X83188944Y-45779659D01*
X83278267Y-45954965D01*
X83393918Y-46114143D01*
X83533041Y-46253266D01*
X83621218Y-46317331D01*
X83663883Y-46372662D01*
X83669862Y-46442275D01*
X83637256Y-46504070D01*
X83587338Y-46535354D01*
X83528034Y-46555006D01*
X83528026Y-46555009D01*
X83378705Y-46647111D01*
X83254652Y-46771164D01*
X83162550Y-46920485D01*
X83162548Y-46920490D01*
X83150354Y-46957289D01*
X83107364Y-47087025D01*
X83107364Y-47087026D01*
X83107363Y-47087026D01*
X83096863Y-47189805D01*
X83096863Y-48489823D01*
X83096864Y-48489840D01*
X83107363Y-48592618D01*
X83107364Y-48592621D01*
X83145538Y-48707820D01*
X83162549Y-48759156D01*
X83254651Y-48908478D01*
X83378707Y-49032534D01*
X83528029Y-49124636D01*
X83694566Y-49179821D01*
X83797354Y-49190322D01*
X86397371Y-49190321D01*
X86500160Y-49179821D01*
X86666697Y-49124636D01*
X86816019Y-49032534D01*
X86940075Y-48908478D01*
X87032177Y-48759156D01*
X87087362Y-48592619D01*
X87097863Y-48489831D01*
X87097862Y-47189814D01*
X87095141Y-47163181D01*
X87087362Y-47087025D01*
X87087361Y-47087022D01*
X87057813Y-46997853D01*
X87032177Y-46920488D01*
X86940075Y-46771166D01*
X86816019Y-46647110D01*
X86690163Y-46569482D01*
X86666699Y-46555009D01*
X86666698Y-46555008D01*
X86666697Y-46555008D01*
X86607387Y-46535354D01*
X86549943Y-46495581D01*
X86523121Y-46431065D01*
X86535437Y-46362290D01*
X86573508Y-46317331D01*
X86661679Y-46253270D01*
X86661685Y-46253265D01*
X86800807Y-46114143D01*
X86916458Y-45954965D01*
X87005781Y-45779659D01*
X87066581Y-45592538D01*
X87073347Y-45549822D01*
X86230375Y-45549822D01*
X86263288Y-45492815D01*
X86297363Y-45365648D01*
X86297363Y-45233996D01*
X86263288Y-45106829D01*
X86230375Y-45049822D01*
X87073347Y-45049822D01*
X87066581Y-45007105D01*
X87005781Y-44819984D01*
X86916458Y-44644678D01*
X86800807Y-44485500D01*
X86661684Y-44346377D01*
X86502506Y-44230726D01*
X86325598Y-44140587D01*
X86316443Y-44131940D01*
X86304778Y-44127206D01*
X86291525Y-44108406D01*
X86274802Y-44092612D01*
X86271775Y-44080390D01*
X86264521Y-44070100D01*
X86263535Y-44047117D01*
X86258007Y-44024791D01*
X86262068Y-44012873D01*
X86261529Y-44000294D01*
X86273124Y-43980429D01*
X86280544Y-43958657D01*
X86291246Y-43949382D01*
X86296752Y-43939952D01*
X86325599Y-43919617D01*
X86327385Y-43918706D01*
X86327388Y-43918706D01*
X86478260Y-43841833D01*
X86485495Y-43838436D01*
X86912108Y-43654707D01*
X86981466Y-43646270D01*
X87044376Y-43676669D01*
X87048836Y-43680914D01*
X91989707Y-48621786D01*
X91989711Y-48621789D01*
X92120814Y-48709390D01*
X92120827Y-48709397D01*
X92265523Y-48769331D01*
X92266503Y-48769737D01*
X92421153Y-48800499D01*
X92421156Y-48800500D01*
X92421158Y-48800500D01*
X92578843Y-48800500D01*
X95002702Y-48800500D01*
X95069741Y-48820185D01*
X95108239Y-48859401D01*
X95144788Y-48918656D01*
X95268844Y-49042712D01*
X95418166Y-49134814D01*
X95584703Y-49189999D01*
X95687491Y-49200500D01*
X96312508Y-49200499D01*
X96312516Y-49200498D01*
X96312519Y-49200498D01*
X96368802Y-49194748D01*
X96415297Y-49189999D01*
X96581834Y-49134814D01*
X96731156Y-49042712D01*
X96824819Y-48949049D01*
X96886142Y-48915564D01*
X96955834Y-48920548D01*
X97000181Y-48949049D01*
X97093844Y-49042712D01*
X97243166Y-49134814D01*
X97409703Y-49189999D01*
X97512491Y-49200500D01*
X98137508Y-49200499D01*
X98137516Y-49200498D01*
X98137519Y-49200498D01*
X98193802Y-49194748D01*
X98240297Y-49189999D01*
X98406834Y-49134814D01*
X98556156Y-49042712D01*
X98680212Y-48918656D01*
X98772314Y-48769334D01*
X98800095Y-48685495D01*
X98839868Y-48628051D01*
X98904384Y-48601228D01*
X98917801Y-48600500D01*
X99498555Y-48600500D01*
X99538354Y-48607061D01*
X99581813Y-48621789D01*
X100590066Y-48963478D01*
X100605580Y-48971383D01*
X100792779Y-49032208D01*
X100801085Y-49033523D01*
X100810731Y-49036728D01*
X100811265Y-49037098D01*
X100813347Y-49037630D01*
X100814848Y-49038166D01*
X100814857Y-49038170D01*
X102988570Y-49643296D01*
X103042995Y-49675073D01*
X104911184Y-51543262D01*
X104944669Y-51604585D01*
X104941434Y-51669260D01*
X104938246Y-51679070D01*
X104904500Y-51892133D01*
X104904500Y-52107866D01*
X104927438Y-52252687D01*
X104938246Y-52320926D01*
X105004908Y-52526089D01*
X105102843Y-52718299D01*
X105229641Y-52892821D01*
X105382179Y-53045359D01*
X105548510Y-53166206D01*
X105553720Y-53169991D01*
X105596385Y-53225321D01*
X105602364Y-53294935D01*
X105569758Y-53356730D01*
X105553720Y-53370627D01*
X105382503Y-53495024D01*
X105230025Y-53647502D01*
X105230025Y-53647503D01*
X105103271Y-53821963D01*
X105005372Y-54014098D01*
X104938733Y-54219190D01*
X104927519Y-54290000D01*
X105957291Y-54290000D01*
X105945548Y-54310339D01*
X105905000Y-54461667D01*
X105905000Y-54618333D01*
X105945548Y-54769661D01*
X105957291Y-54790000D01*
X104927519Y-54790000D01*
X104938733Y-54860809D01*
X105005372Y-55065901D01*
X105103271Y-55258036D01*
X105230025Y-55432496D01*
X105230025Y-55432497D01*
X105372107Y-55574579D01*
X105405592Y-55635902D01*
X105400608Y-55705594D01*
X105358736Y-55761527D01*
X105336840Y-55774638D01*
X105335672Y-55775182D01*
X105186342Y-55867289D01*
X105062289Y-55991342D01*
X104970187Y-56140663D01*
X104970186Y-56140666D01*
X104953936Y-56189707D01*
X104952346Y-56194504D01*
X104912573Y-56251949D01*
X104848057Y-56278772D01*
X104834640Y-56279500D01*
X103697462Y-56279500D01*
X103630423Y-56259815D01*
X103591923Y-56220597D01*
X103567712Y-56181344D01*
X103443656Y-56057288D01*
X103440342Y-56055243D01*
X103438546Y-56053248D01*
X103437989Y-56052807D01*
X103438064Y-56052711D01*
X103393618Y-56003297D01*
X103382397Y-55934334D01*
X103410240Y-55870252D01*
X103440348Y-55844165D01*
X103443342Y-55842318D01*
X103567315Y-55718345D01*
X103659356Y-55569124D01*
X103659358Y-55569119D01*
X103714505Y-55402697D01*
X103714506Y-55402690D01*
X103724999Y-55299986D01*
X103725000Y-55299973D01*
X103725000Y-55250000D01*
X101275001Y-55250000D01*
X101275001Y-55299986D01*
X101285494Y-55402697D01*
X101340641Y-55569119D01*
X101340643Y-55569124D01*
X101432684Y-55718345D01*
X101556655Y-55842316D01*
X101556659Y-55842319D01*
X101559656Y-55844168D01*
X101561279Y-55845972D01*
X101562323Y-55846798D01*
X101562181Y-55846976D01*
X101606381Y-55896116D01*
X101617602Y-55965079D01*
X101589759Y-56029161D01*
X101559661Y-56055241D01*
X101556349Y-56057283D01*
X101556343Y-56057288D01*
X101432289Y-56181342D01*
X101340187Y-56330663D01*
X101340186Y-56330666D01*
X101285001Y-56497203D01*
X101285001Y-56497204D01*
X101285000Y-56497204D01*
X101274500Y-56599983D01*
X101274500Y-57200001D01*
X101274501Y-57200019D01*
X101285000Y-57302796D01*
X101285001Y-57302799D01*
X101340185Y-57469331D01*
X101340186Y-57469334D01*
X101432288Y-57618656D01*
X101556344Y-57742712D01*
X101705666Y-57834814D01*
X101872203Y-57889999D01*
X101974991Y-57900500D01*
X103025008Y-57900499D01*
X103025016Y-57900498D01*
X103025019Y-57900498D01*
X103081302Y-57894748D01*
X103127797Y-57889999D01*
X103132729Y-57888364D01*
X103137470Y-57886794D01*
X103176474Y-57880500D01*
X104834640Y-57880500D01*
X104901679Y-57900185D01*
X104947434Y-57952989D01*
X104952345Y-57965493D01*
X104970186Y-58019334D01*
X105062288Y-58168656D01*
X105186344Y-58292712D01*
X105335666Y-58384814D01*
X105502203Y-58439999D01*
X105604991Y-58450500D01*
X107395008Y-58450499D01*
X107497797Y-58439999D01*
X107664334Y-58384814D01*
X107813656Y-58292712D01*
X107937712Y-58168656D01*
X108029814Y-58019334D01*
X108084999Y-57852797D01*
X108095500Y-57750009D01*
X108095499Y-56409992D01*
X108084999Y-56307203D01*
X108029814Y-56140666D01*
X107937712Y-55991344D01*
X107813656Y-55867288D01*
X107664334Y-55775186D01*
X107664332Y-55775185D01*
X107664325Y-55775181D01*
X107663165Y-55774640D01*
X107662503Y-55774057D01*
X107658187Y-55771395D01*
X107658642Y-55770657D01*
X107610727Y-55728466D01*
X107591577Y-55661272D01*
X107611795Y-55594392D01*
X107627892Y-55574578D01*
X107769977Y-55432493D01*
X107896728Y-55258036D01*
X107994627Y-55065901D01*
X108061266Y-54860809D01*
X108072481Y-54790000D01*
X107042709Y-54790000D01*
X107054452Y-54769661D01*
X107095000Y-54618333D01*
X107095000Y-54461667D01*
X107054452Y-54310339D01*
X107042709Y-54290000D01*
X108072481Y-54290000D01*
X108061266Y-54219190D01*
X107994627Y-54014098D01*
X107896728Y-53821963D01*
X107769974Y-53647503D01*
X107769974Y-53647502D01*
X107617497Y-53495025D01*
X107446279Y-53370627D01*
X107403614Y-53315297D01*
X107397635Y-53245683D01*
X107430241Y-53183888D01*
X107446280Y-53169991D01*
X107451490Y-53166206D01*
X107617821Y-53045359D01*
X107770359Y-52892821D01*
X107897157Y-52718299D01*
X107995092Y-52526089D01*
X108061754Y-52320926D01*
X108076752Y-52226230D01*
X108095500Y-52107866D01*
X108095500Y-51892133D01*
X108061754Y-51679077D01*
X108061754Y-51679074D01*
X107995092Y-51473911D01*
X107897157Y-51281701D01*
X107770359Y-51107179D01*
X107617821Y-50954641D01*
X107443299Y-50827843D01*
X107251089Y-50729908D01*
X107045926Y-50663246D01*
X107045924Y-50663245D01*
X107045922Y-50663245D01*
X106832866Y-50629500D01*
X106832861Y-50629500D01*
X106312940Y-50629500D01*
X106245901Y-50609815D01*
X106225259Y-50593181D01*
X104124779Y-48492701D01*
X104104675Y-48466325D01*
X104019310Y-48316239D01*
X103847281Y-48013782D01*
X103831248Y-47945778D01*
X103832592Y-47933088D01*
X103836105Y-47910916D01*
X103836105Y-47714082D01*
X103836105Y-47714076D01*
X103805314Y-47519672D01*
X103744487Y-47332469D01*
X103676736Y-47199500D01*
X103655129Y-47157094D01*
X103539433Y-46997853D01*
X103400251Y-46858671D01*
X103286951Y-46776353D01*
X103241008Y-46742973D01*
X103064392Y-46652984D01*
X103013595Y-46605010D01*
X102996800Y-46537189D01*
X103019337Y-46471054D01*
X103064392Y-46432014D01*
X103241008Y-46342024D01*
X103241007Y-46342024D01*
X103241010Y-46342023D01*
X103400251Y-46226327D01*
X103539433Y-46087145D01*
X103655129Y-45927904D01*
X103744489Y-45752524D01*
X103805314Y-45565325D01*
X103807769Y-45549822D01*
X103836105Y-45370921D01*
X103836105Y-45174076D01*
X103805314Y-44979672D01*
X103757948Y-44833897D01*
X103744489Y-44792474D01*
X103744487Y-44792471D01*
X103744487Y-44792469D01*
X103675292Y-44656666D01*
X103655129Y-44617094D01*
X103539433Y-44457853D01*
X103400251Y-44318671D01*
X103279206Y-44230726D01*
X103241008Y-44202973D01*
X103064392Y-44112984D01*
X103013595Y-44065010D01*
X102996800Y-43997189D01*
X103019337Y-43931054D01*
X103064392Y-43892014D01*
X103241008Y-43802024D01*
X103241007Y-43802024D01*
X103241010Y-43802023D01*
X103400251Y-43686327D01*
X103539433Y-43547145D01*
X103655129Y-43387904D01*
X103744489Y-43212524D01*
X103805314Y-43025325D01*
X103836105Y-42830921D01*
X103836105Y-42634076D01*
X103805314Y-42439672D01*
X103744487Y-42252469D01*
X103655128Y-42077093D01*
X103635757Y-42050431D01*
X103539433Y-41917853D01*
X103400251Y-41778671D01*
X103320630Y-41720823D01*
X103241008Y-41662973D01*
X103064392Y-41572984D01*
X103013595Y-41525010D01*
X102996800Y-41457189D01*
X103019337Y-41391054D01*
X103064392Y-41352014D01*
X103241008Y-41262024D01*
X103241007Y-41262024D01*
X103241010Y-41262023D01*
X103400251Y-41146327D01*
X103539433Y-41007145D01*
X103655129Y-40847904D01*
X103744489Y-40672524D01*
X103805314Y-40485325D01*
X103806289Y-40479172D01*
X103836105Y-40290921D01*
X103836105Y-40094076D01*
X103805314Y-39899672D01*
X103744487Y-39712469D01*
X103697348Y-39619954D01*
X103655129Y-39537094D01*
X103539433Y-39377853D01*
X103400251Y-39238671D01*
X103278614Y-39150296D01*
X103241008Y-39122973D01*
X103064392Y-39032984D01*
X103013595Y-38985010D01*
X102996800Y-38917189D01*
X103019337Y-38851054D01*
X103064392Y-38812014D01*
X103241008Y-38722024D01*
X103241007Y-38722024D01*
X103241010Y-38722023D01*
X103400251Y-38606327D01*
X103539433Y-38467145D01*
X103655129Y-38307904D01*
X103744489Y-38132524D01*
X103805314Y-37945325D01*
X103807338Y-37932544D01*
X103836105Y-37750921D01*
X103836105Y-37554076D01*
X103805314Y-37359672D01*
X103753365Y-37199792D01*
X103744489Y-37172474D01*
X103744487Y-37172471D01*
X103744487Y-37172469D01*
X103682644Y-37051095D01*
X103655129Y-36997094D01*
X103539433Y-36837853D01*
X103400251Y-36698671D01*
X103278614Y-36610296D01*
X103241008Y-36582973D01*
X103064392Y-36492984D01*
X103013595Y-36445010D01*
X102996800Y-36377189D01*
X103019337Y-36311054D01*
X103064392Y-36272014D01*
X103241008Y-36182024D01*
X103241007Y-36182024D01*
X103241010Y-36182023D01*
X103400251Y-36066327D01*
X103539433Y-35927145D01*
X103655129Y-35767904D01*
X103744489Y-35592524D01*
X103805314Y-35405325D01*
X103824912Y-35281588D01*
X103836105Y-35210921D01*
X103836105Y-35014076D01*
X103805314Y-34819672D01*
X103761467Y-34684727D01*
X103744489Y-34632474D01*
X103744487Y-34632471D01*
X103744487Y-34632469D01*
X103681202Y-34508266D01*
X103655129Y-34457094D01*
X103539433Y-34297853D01*
X103400251Y-34158671D01*
X103278614Y-34070296D01*
X103241008Y-34042973D01*
X103064392Y-33952984D01*
X103013595Y-33905010D01*
X102996800Y-33837189D01*
X103019337Y-33771054D01*
X103064392Y-33732014D01*
X103241008Y-33642024D01*
X103241007Y-33642024D01*
X103241010Y-33642023D01*
X103400251Y-33526327D01*
X103539433Y-33387145D01*
X103655129Y-33227904D01*
X103744489Y-33052524D01*
X103805314Y-32865325D01*
X103810892Y-32830105D01*
X103836105Y-32670921D01*
X103836105Y-32474076D01*
X103805314Y-32279672D01*
X103752212Y-32116243D01*
X103744489Y-32092474D01*
X103744487Y-32092471D01*
X103744487Y-32092469D01*
X103693801Y-31992993D01*
X103655129Y-31917094D01*
X103539433Y-31757853D01*
X103400251Y-31618671D01*
X103278614Y-31530296D01*
X103241008Y-31502973D01*
X103064392Y-31412984D01*
X103013595Y-31365010D01*
X102996800Y-31297189D01*
X103019337Y-31231054D01*
X103064392Y-31192014D01*
X103241008Y-31102024D01*
X103241007Y-31102024D01*
X103241010Y-31102023D01*
X103400251Y-30986327D01*
X103539433Y-30847145D01*
X103655129Y-30687904D01*
X103744489Y-30512524D01*
X103805314Y-30325325D01*
X103823925Y-30207820D01*
X103836105Y-30130921D01*
X103836105Y-29934076D01*
X103805314Y-29739672D01*
X103744487Y-29552469D01*
X103689798Y-29445136D01*
X103678243Y-29422458D01*
X103663597Y-29393713D01*
X106649500Y-29393713D01*
X106649500Y-29606286D01*
X106681874Y-29810691D01*
X106682754Y-29816243D01*
X106736600Y-29981964D01*
X106748444Y-30018414D01*
X106844951Y-30207820D01*
X106969890Y-30379786D01*
X107120213Y-30530109D01*
X107292179Y-30655048D01*
X107292181Y-30655049D01*
X107292184Y-30655051D01*
X107481588Y-30751557D01*
X107683757Y-30817246D01*
X107893713Y-30850500D01*
X107893714Y-30850500D01*
X108106286Y-30850500D01*
X108106287Y-30850500D01*
X108316243Y-30817246D01*
X108518412Y-30751557D01*
X108707816Y-30655051D01*
X108793977Y-30592452D01*
X108879786Y-30530109D01*
X108879788Y-30530106D01*
X108879792Y-30530104D01*
X109030104Y-30379792D01*
X109030106Y-30379788D01*
X109030109Y-30379786D01*
X109155048Y-30207820D01*
X109155047Y-30207820D01*
X109155051Y-30207816D01*
X109251557Y-30018412D01*
X109317246Y-29816243D01*
X109350500Y-29606287D01*
X109350500Y-29393713D01*
X109317246Y-29183757D01*
X109251557Y-28981588D01*
X109155051Y-28792184D01*
X109155049Y-28792181D01*
X109155048Y-28792179D01*
X109030109Y-28620213D01*
X108879786Y-28469890D01*
X108707820Y-28344951D01*
X108518414Y-28248444D01*
X108518413Y-28248443D01*
X108518412Y-28248443D01*
X108316243Y-28182754D01*
X108316241Y-28182753D01*
X108316240Y-28182753D01*
X108154957Y-28157208D01*
X108106287Y-28149500D01*
X107893713Y-28149500D01*
X107845042Y-28157208D01*
X107683760Y-28182753D01*
X107481585Y-28248444D01*
X107292179Y-28344951D01*
X107120213Y-28469890D01*
X106969890Y-28620213D01*
X106844951Y-28792179D01*
X106748444Y-28981585D01*
X106682753Y-29183760D01*
X106649500Y-29393713D01*
X103663597Y-29393713D01*
X103655129Y-29377094D01*
X103539433Y-29217853D01*
X103400251Y-29078671D01*
X103241010Y-28962975D01*
X103065634Y-28873616D01*
X102878431Y-28812789D01*
X102684027Y-28781999D01*
X102684022Y-28781999D01*
X100987188Y-28781999D01*
X100911551Y-28793978D01*
X100842257Y-28785022D01*
X100788806Y-28740025D01*
X100768167Y-28673274D01*
X100770561Y-28647194D01*
X100980064Y-27599681D01*
X101012514Y-27537804D01*
X101073266Y-27503294D01*
X101101656Y-27500000D01*
X110057674Y-27500000D01*
X110062056Y-27501286D01*
X110066519Y-27500316D01*
X110095273Y-27511040D01*
X110124713Y-27519685D01*
X110128898Y-27523581D01*
X110131983Y-27524732D01*
X110156940Y-27549689D01*
X110225266Y-27640960D01*
X110249684Y-27706424D01*
X110250000Y-27715271D01*
X110250000Y-64784728D01*
X110230315Y-64851767D01*
X110225267Y-64859038D01*
X110156942Y-64950310D01*
X110101009Y-64992182D01*
X110057675Y-65000000D01*
X57942325Y-65000000D01*
X57937942Y-64998713D01*
X57933479Y-64999684D01*
X57904724Y-64988959D01*
X57875286Y-64980315D01*
X57871100Y-64976418D01*
X57868014Y-64975267D01*
X57843058Y-64950310D01*
X57774733Y-64859038D01*
X57750316Y-64793574D01*
X57750000Y-64784728D01*
X57750000Y-62893713D01*
X58649500Y-62893713D01*
X58649500Y-63106286D01*
X58682753Y-63316239D01*
X58748444Y-63518414D01*
X58844951Y-63707820D01*
X58969890Y-63879786D01*
X59120213Y-64030109D01*
X59292179Y-64155048D01*
X59292181Y-64155049D01*
X59292184Y-64155051D01*
X59481588Y-64251557D01*
X59683757Y-64317246D01*
X59893713Y-64350500D01*
X59893714Y-64350500D01*
X60106286Y-64350500D01*
X60106287Y-64350500D01*
X60316243Y-64317246D01*
X60518412Y-64251557D01*
X60707816Y-64155051D01*
X60729789Y-64139086D01*
X60879786Y-64030109D01*
X60879788Y-64030106D01*
X60879792Y-64030104D01*
X61030104Y-63879792D01*
X61030106Y-63879788D01*
X61030109Y-63879786D01*
X61155048Y-63707820D01*
X61155047Y-63707820D01*
X61155051Y-63707816D01*
X61251557Y-63518412D01*
X61317246Y-63316243D01*
X61350500Y-63106287D01*
X61350500Y-62893713D01*
X106649500Y-62893713D01*
X106649500Y-63106286D01*
X106682753Y-63316239D01*
X106748444Y-63518414D01*
X106844951Y-63707820D01*
X106969890Y-63879786D01*
X107120213Y-64030109D01*
X107292179Y-64155048D01*
X107292181Y-64155049D01*
X107292184Y-64155051D01*
X107481588Y-64251557D01*
X107683757Y-64317246D01*
X107893713Y-64350500D01*
X107893714Y-64350500D01*
X108106286Y-64350500D01*
X108106287Y-64350500D01*
X108316243Y-64317246D01*
X108518412Y-64251557D01*
X108707816Y-64155051D01*
X108729789Y-64139086D01*
X108879786Y-64030109D01*
X108879788Y-64030106D01*
X108879792Y-64030104D01*
X109030104Y-63879792D01*
X109030106Y-63879788D01*
X109030109Y-63879786D01*
X109155048Y-63707820D01*
X109155047Y-63707820D01*
X109155051Y-63707816D01*
X109251557Y-63518412D01*
X109317246Y-63316243D01*
X109350500Y-63106287D01*
X109350500Y-62893713D01*
X109317246Y-62683757D01*
X109251557Y-62481588D01*
X109155051Y-62292184D01*
X109155049Y-62292181D01*
X109155048Y-62292179D01*
X109030109Y-62120213D01*
X108879786Y-61969890D01*
X108707820Y-61844951D01*
X108518414Y-61748444D01*
X108518413Y-61748443D01*
X108518412Y-61748443D01*
X108316243Y-61682754D01*
X108316241Y-61682753D01*
X108316240Y-61682753D01*
X108154957Y-61657208D01*
X108106287Y-61649500D01*
X107893713Y-61649500D01*
X107845042Y-61657208D01*
X107683760Y-61682753D01*
X107481585Y-61748444D01*
X107292179Y-61844951D01*
X107120213Y-61969890D01*
X106969890Y-62120213D01*
X106844951Y-62292179D01*
X106748444Y-62481585D01*
X106682753Y-62683760D01*
X106649500Y-62893713D01*
X61350500Y-62893713D01*
X61317246Y-62683757D01*
X61251557Y-62481588D01*
X61155051Y-62292184D01*
X61155049Y-62292181D01*
X61155048Y-62292179D01*
X61030109Y-62120213D01*
X60879786Y-61969890D01*
X60707820Y-61844951D01*
X60518414Y-61748444D01*
X60518413Y-61748443D01*
X60518412Y-61748443D01*
X60316243Y-61682754D01*
X60316241Y-61682753D01*
X60316240Y-61682753D01*
X60154957Y-61657208D01*
X60106287Y-61649500D01*
X59893713Y-61649500D01*
X59845042Y-61657208D01*
X59683760Y-61682753D01*
X59481585Y-61748444D01*
X59292179Y-61844951D01*
X59120213Y-61969890D01*
X58969890Y-62120213D01*
X58844951Y-62292179D01*
X58748444Y-62481585D01*
X58682753Y-62683760D01*
X58649500Y-62893713D01*
X57750000Y-62893713D01*
X57750000Y-60071153D01*
X93349500Y-60071153D01*
X93349500Y-60228846D01*
X93380261Y-60383489D01*
X93380264Y-60383501D01*
X93440602Y-60529172D01*
X93440609Y-60529185D01*
X93528210Y-60660288D01*
X93528213Y-60660292D01*
X93639707Y-60771786D01*
X93639711Y-60771789D01*
X93770814Y-60859390D01*
X93770827Y-60859397D01*
X93916498Y-60919735D01*
X93916503Y-60919737D01*
X94071153Y-60950499D01*
X94071156Y-60950500D01*
X94071158Y-60950500D01*
X94228844Y-60950500D01*
X94228845Y-60950499D01*
X94383497Y-60919737D01*
X94529179Y-60859394D01*
X94660289Y-60771789D01*
X94771789Y-60660289D01*
X94859394Y-60529179D01*
X94919737Y-60383497D01*
X94939113Y-60286085D01*
X94950638Y-60228150D01*
X94983023Y-60166239D01*
X94984515Y-60164720D01*
X95480520Y-59668716D01*
X95559577Y-59531784D01*
X95600501Y-59379057D01*
X95600501Y-59220942D01*
X95600501Y-59213347D01*
X95600500Y-59213329D01*
X95600500Y-57382940D01*
X95620185Y-57315901D01*
X95636814Y-57295263D01*
X95721789Y-57210289D01*
X95809394Y-57079179D01*
X95869737Y-56933497D01*
X95900500Y-56778842D01*
X95900500Y-56621158D01*
X95900500Y-56621155D01*
X95900475Y-56621030D01*
X95900475Y-56621028D01*
X95900474Y-56621025D01*
X95875844Y-56497204D01*
X95869737Y-56466503D01*
X95813471Y-56330663D01*
X95809397Y-56320827D01*
X95809390Y-56320814D01*
X95721789Y-56189711D01*
X95721786Y-56189707D01*
X95610292Y-56078213D01*
X95610288Y-56078210D01*
X95479185Y-55990609D01*
X95479172Y-55990602D01*
X95333501Y-55930264D01*
X95333489Y-55930261D01*
X95178845Y-55899500D01*
X95178842Y-55899500D01*
X95021158Y-55899500D01*
X95021155Y-55899500D01*
X94866510Y-55930261D01*
X94866498Y-55930264D01*
X94720827Y-55990602D01*
X94720814Y-55990609D01*
X94589711Y-56078210D01*
X94589707Y-56078213D01*
X94478213Y-56189707D01*
X94478210Y-56189711D01*
X94390609Y-56320814D01*
X94390602Y-56320827D01*
X94330264Y-56466498D01*
X94330261Y-56466510D01*
X94299500Y-56621153D01*
X94299500Y-56778846D01*
X94330261Y-56933489D01*
X94330264Y-56933501D01*
X94390061Y-57077864D01*
X94399500Y-57125316D01*
X94399500Y-58999902D01*
X94379815Y-59066941D01*
X94363181Y-59087583D01*
X94135339Y-59315425D01*
X94074016Y-59348910D01*
X94071850Y-59349361D01*
X93916508Y-59380261D01*
X93916498Y-59380264D01*
X93770827Y-59440602D01*
X93770814Y-59440609D01*
X93639711Y-59528210D01*
X93639707Y-59528213D01*
X93528213Y-59639707D01*
X93528210Y-59639711D01*
X93440609Y-59770814D01*
X93440602Y-59770827D01*
X93380264Y-59916498D01*
X93380261Y-59916510D01*
X93349500Y-60071153D01*
X57750000Y-60071153D01*
X57750000Y-53562135D01*
X61399500Y-53562135D01*
X61399500Y-55357870D01*
X61399501Y-55357876D01*
X61405908Y-55417483D01*
X61456202Y-55552328D01*
X61456206Y-55552335D01*
X61542452Y-55667544D01*
X61542455Y-55667547D01*
X61657664Y-55753793D01*
X61657671Y-55753797D01*
X61789082Y-55802810D01*
X61845016Y-55844681D01*
X61869433Y-55910145D01*
X61854582Y-55978418D01*
X61833431Y-56006673D01*
X61719889Y-56120215D01*
X61594951Y-56292179D01*
X61498444Y-56481585D01*
X61432753Y-56683760D01*
X61399500Y-56893713D01*
X61399500Y-57106286D01*
X61432699Y-57315901D01*
X61432754Y-57316243D01*
X61482497Y-57469336D01*
X61498444Y-57518414D01*
X61594951Y-57707820D01*
X61719890Y-57879786D01*
X61870213Y-58030109D01*
X62042179Y-58155048D01*
X62042181Y-58155049D01*
X62042184Y-58155051D01*
X62231588Y-58251557D01*
X62433757Y-58317246D01*
X62643713Y-58350500D01*
X62643714Y-58350500D01*
X62856286Y-58350500D01*
X62856287Y-58350500D01*
X63066243Y-58317246D01*
X63268412Y-58251557D01*
X63457816Y-58155051D01*
X63479789Y-58139086D01*
X63629786Y-58030109D01*
X63629788Y-58030106D01*
X63629792Y-58030104D01*
X63780104Y-57879792D01*
X63780106Y-57879788D01*
X63780109Y-57879786D01*
X63905048Y-57707820D01*
X63905047Y-57707820D01*
X63905051Y-57707816D01*
X64001557Y-57518412D01*
X64067246Y-57316243D01*
X64100500Y-57106287D01*
X64100500Y-56893713D01*
X64067246Y-56683757D01*
X64001557Y-56481588D01*
X63905051Y-56292184D01*
X63905049Y-56292181D01*
X63905048Y-56292179D01*
X63780109Y-56120213D01*
X63666569Y-56006673D01*
X63633084Y-55945350D01*
X63638068Y-55875658D01*
X63679940Y-55819725D01*
X63710915Y-55802810D01*
X63842331Y-55753796D01*
X63957546Y-55667546D01*
X64043796Y-55552331D01*
X64094091Y-55417483D01*
X64100500Y-55357873D01*
X64100499Y-54496153D01*
X80749500Y-54496153D01*
X80749500Y-54653846D01*
X80780261Y-54808489D01*
X80780264Y-54808501D01*
X80840602Y-54954172D01*
X80840609Y-54954185D01*
X80928210Y-55085288D01*
X80928213Y-55085292D01*
X81039707Y-55196786D01*
X81039711Y-55196789D01*
X81170814Y-55284390D01*
X81170827Y-55284397D01*
X81298966Y-55337473D01*
X81316503Y-55344737D01*
X81471153Y-55375499D01*
X81471156Y-55375500D01*
X81471158Y-55375500D01*
X81628844Y-55375500D01*
X81628845Y-55375499D01*
X81783497Y-55344737D01*
X81801003Y-55337486D01*
X97100001Y-55337486D01*
X97110494Y-55440197D01*
X97165641Y-55606619D01*
X97165643Y-55606624D01*
X97257684Y-55755845D01*
X97381654Y-55879815D01*
X97530875Y-55971856D01*
X97530880Y-55971858D01*
X97697302Y-56027005D01*
X97697309Y-56027006D01*
X97800019Y-56037499D01*
X98049999Y-56037499D01*
X98550000Y-56037499D01*
X98799972Y-56037499D01*
X98799986Y-56037498D01*
X98902697Y-56027005D01*
X99069119Y-55971858D01*
X99069124Y-55971856D01*
X99218345Y-55879815D01*
X99342315Y-55755845D01*
X99434356Y-55606624D01*
X99434358Y-55606619D01*
X99489505Y-55440197D01*
X99489506Y-55440190D01*
X99499999Y-55337486D01*
X99500000Y-55337473D01*
X99500000Y-55275000D01*
X98550000Y-55275000D01*
X98550000Y-56037499D01*
X98049999Y-56037499D01*
X98050000Y-56037498D01*
X98050000Y-55275000D01*
X97100001Y-55275000D01*
X97100001Y-55337486D01*
X81801003Y-55337486D01*
X81929179Y-55284394D01*
X82060289Y-55196789D01*
X82060292Y-55196786D01*
X82121122Y-55135957D01*
X82321786Y-54935292D01*
X82321789Y-54935289D01*
X82409394Y-54804179D01*
X82469737Y-54658497D01*
X82500500Y-54503842D01*
X82500500Y-54346158D01*
X82500500Y-53021153D01*
X95099500Y-53021153D01*
X95099500Y-53178846D01*
X95130261Y-53333489D01*
X95130264Y-53333501D01*
X95190602Y-53479172D01*
X95190609Y-53479185D01*
X95278210Y-53610288D01*
X95278213Y-53610292D01*
X95389707Y-53721786D01*
X95389711Y-53721789D01*
X95520814Y-53809390D01*
X95520827Y-53809397D01*
X95666498Y-53869735D01*
X95666503Y-53869737D01*
X95821153Y-53900499D01*
X95821156Y-53900500D01*
X95821158Y-53900500D01*
X95978844Y-53900500D01*
X95978845Y-53900499D01*
X96133497Y-53869737D01*
X96250228Y-53821386D01*
X96277864Y-53809939D01*
X96325316Y-53800500D01*
X97107492Y-53800500D01*
X97108843Y-53800896D01*
X97110203Y-53800530D01*
X97142267Y-53810711D01*
X97174531Y-53820185D01*
X97175887Y-53821386D01*
X97176796Y-53821675D01*
X97180119Y-53825134D01*
X97202958Y-53845366D01*
X97208485Y-53852034D01*
X97257288Y-53931156D01*
X97355396Y-54029264D01*
X97359089Y-54033719D01*
X97370707Y-54060706D01*
X97384789Y-54086495D01*
X97384364Y-54092429D01*
X97386717Y-54097894D01*
X97381901Y-54126875D01*
X97379805Y-54156187D01*
X97376062Y-54162009D01*
X97375264Y-54166818D01*
X97367371Y-54175533D01*
X97351305Y-54200534D01*
X97257682Y-54294157D01*
X97165643Y-54443375D01*
X97165641Y-54443380D01*
X97110494Y-54609802D01*
X97110493Y-54609809D01*
X97100000Y-54712513D01*
X97100000Y-54775000D01*
X99499999Y-54775000D01*
X99499999Y-54712528D01*
X99499998Y-54712510D01*
X99499687Y-54709465D01*
X99498721Y-54700013D01*
X101275000Y-54700013D01*
X101275000Y-54750000D01*
X102250000Y-54750000D01*
X102750000Y-54750000D01*
X103724999Y-54750000D01*
X103724999Y-54700028D01*
X103724998Y-54700013D01*
X103714505Y-54597302D01*
X103659358Y-54430880D01*
X103659356Y-54430875D01*
X103567315Y-54281654D01*
X103443345Y-54157684D01*
X103294124Y-54065643D01*
X103294119Y-54065641D01*
X103127697Y-54010494D01*
X103127690Y-54010493D01*
X103024986Y-54000000D01*
X102750000Y-54000000D01*
X102750000Y-54750000D01*
X102250000Y-54750000D01*
X102250000Y-54000000D01*
X101975029Y-54000000D01*
X101975012Y-54000001D01*
X101872302Y-54010494D01*
X101705880Y-54065641D01*
X101705875Y-54065643D01*
X101556654Y-54157684D01*
X101432684Y-54281654D01*
X101340643Y-54430875D01*
X101340641Y-54430880D01*
X101285494Y-54597302D01*
X101285493Y-54597309D01*
X101275000Y-54700013D01*
X99498721Y-54700013D01*
X99489505Y-54609802D01*
X99434358Y-54443380D01*
X99434356Y-54443375D01*
X99342315Y-54294154D01*
X99248695Y-54200534D01*
X99215210Y-54139211D01*
X99220194Y-54069519D01*
X99248691Y-54025176D01*
X99342712Y-53931156D01*
X99434814Y-53781834D01*
X99489999Y-53615297D01*
X99500500Y-53512509D01*
X99500499Y-52887492D01*
X99498354Y-52866498D01*
X99489999Y-52784703D01*
X99489998Y-52784700D01*
X99434814Y-52618166D01*
X99342712Y-52468844D01*
X99218656Y-52344788D01*
X99069334Y-52252686D01*
X98902797Y-52197501D01*
X98902795Y-52197500D01*
X98800010Y-52187000D01*
X97799998Y-52187000D01*
X97799980Y-52187001D01*
X97697203Y-52197500D01*
X97697200Y-52197501D01*
X97530668Y-52252685D01*
X97530663Y-52252687D01*
X97381342Y-52344789D01*
X97257289Y-52468842D01*
X97213031Y-52540597D01*
X97161083Y-52587321D01*
X97107492Y-52599500D01*
X96582940Y-52599500D01*
X96515901Y-52579815D01*
X96495263Y-52563185D01*
X96410289Y-52478211D01*
X96410288Y-52478210D01*
X96410287Y-52478209D01*
X96279185Y-52390609D01*
X96279172Y-52390602D01*
X96133501Y-52330264D01*
X96133489Y-52330261D01*
X95978845Y-52299500D01*
X95978842Y-52299500D01*
X95821158Y-52299500D01*
X95821155Y-52299500D01*
X95666510Y-52330261D01*
X95666498Y-52330264D01*
X95520827Y-52390602D01*
X95520814Y-52390609D01*
X95389711Y-52478210D01*
X95389707Y-52478213D01*
X95278213Y-52589707D01*
X95278210Y-52589711D01*
X95190609Y-52720814D01*
X95190602Y-52720827D01*
X95130264Y-52866498D01*
X95130261Y-52866510D01*
X95099500Y-53021153D01*
X82500500Y-53021153D01*
X82500500Y-48021158D01*
X82500500Y-48021155D01*
X82500499Y-48021153D01*
X82485506Y-47945778D01*
X82469737Y-47866503D01*
X82469735Y-47866498D01*
X82409397Y-47720827D01*
X82409390Y-47720814D01*
X82321789Y-47589711D01*
X82321786Y-47589707D01*
X82210292Y-47478213D01*
X82210288Y-47478210D01*
X82079185Y-47390609D01*
X82079172Y-47390602D01*
X81933501Y-47330264D01*
X81933491Y-47330261D01*
X81822949Y-47308273D01*
X81822948Y-47308272D01*
X81778845Y-47299500D01*
X81778842Y-47299500D01*
X81621158Y-47299500D01*
X81621155Y-47299500D01*
X81466510Y-47330261D01*
X81466498Y-47330264D01*
X81320827Y-47390602D01*
X81320814Y-47390609D01*
X81189711Y-47478210D01*
X81189707Y-47478213D01*
X81078213Y-47589707D01*
X81078210Y-47589711D01*
X80990609Y-47720814D01*
X80990602Y-47720827D01*
X80930264Y-47866498D01*
X80930261Y-47866510D01*
X80899500Y-48021153D01*
X80899500Y-54070064D01*
X80879815Y-54137103D01*
X80878603Y-54138954D01*
X80840608Y-54195817D01*
X80840602Y-54195828D01*
X80780264Y-54341498D01*
X80780261Y-54341510D01*
X80749500Y-54496153D01*
X64100499Y-54496153D01*
X64100499Y-54443380D01*
X64100499Y-53562129D01*
X64100498Y-53562123D01*
X64100497Y-53562116D01*
X64094091Y-53502517D01*
X64091296Y-53495024D01*
X64043797Y-53367671D01*
X64043793Y-53367664D01*
X63957547Y-53252455D01*
X63957544Y-53252452D01*
X63842335Y-53166206D01*
X63842328Y-53166202D01*
X63707482Y-53115908D01*
X63707483Y-53115908D01*
X63647883Y-53109501D01*
X63647881Y-53109500D01*
X63647873Y-53109500D01*
X63647864Y-53109500D01*
X61852129Y-53109500D01*
X61852123Y-53109501D01*
X61792516Y-53115908D01*
X61657671Y-53166202D01*
X61657664Y-53166206D01*
X61542455Y-53252452D01*
X61542452Y-53252455D01*
X61456206Y-53367664D01*
X61456202Y-53367671D01*
X61405908Y-53502517D01*
X61399501Y-53562116D01*
X61399501Y-53562123D01*
X61399500Y-53562135D01*
X57750000Y-53562135D01*
X57750000Y-44562135D01*
X60149500Y-44562135D01*
X60149500Y-46357870D01*
X60149501Y-46357876D01*
X60155908Y-46417483D01*
X60206202Y-46552328D01*
X60206206Y-46552335D01*
X60292452Y-46667544D01*
X60292455Y-46667547D01*
X60407664Y-46753793D01*
X60407671Y-46753797D01*
X60539082Y-46802810D01*
X60595016Y-46844681D01*
X60619433Y-46910145D01*
X60604582Y-46978418D01*
X60583431Y-47006673D01*
X60469889Y-47120215D01*
X60344951Y-47292179D01*
X60248444Y-47481585D01*
X60182753Y-47683760D01*
X60149500Y-47893713D01*
X60149500Y-48106287D01*
X60182754Y-48316243D01*
X60239159Y-48489840D01*
X60248444Y-48518414D01*
X60344951Y-48707820D01*
X60469890Y-48879786D01*
X60620213Y-49030109D01*
X60792179Y-49155048D01*
X60792181Y-49155049D01*
X60792184Y-49155051D01*
X60981588Y-49251557D01*
X61183757Y-49317246D01*
X61393713Y-49350500D01*
X61393714Y-49350500D01*
X61606286Y-49350500D01*
X61606287Y-49350500D01*
X61816243Y-49317246D01*
X62018412Y-49251557D01*
X62207816Y-49155051D01*
X62249682Y-49124634D01*
X62379786Y-49030109D01*
X62379788Y-49030106D01*
X62379792Y-49030104D01*
X62530104Y-48879792D01*
X62530106Y-48879788D01*
X62530109Y-48879786D01*
X62653902Y-48709397D01*
X62655051Y-48707816D01*
X62751557Y-48518412D01*
X62817246Y-48316243D01*
X62850500Y-48106287D01*
X62850500Y-47893713D01*
X62817246Y-47683757D01*
X62751557Y-47481588D01*
X62655051Y-47292184D01*
X62655049Y-47292181D01*
X62655048Y-47292179D01*
X62530109Y-47120213D01*
X62416569Y-47006673D01*
X62383084Y-46945350D01*
X62388068Y-46875658D01*
X62429940Y-46819725D01*
X62460915Y-46802810D01*
X62592331Y-46753796D01*
X62707546Y-46667546D01*
X62793796Y-46552331D01*
X62844091Y-46417483D01*
X62849062Y-46371242D01*
X62875799Y-46306694D01*
X62933191Y-46266846D01*
X62972351Y-46260500D01*
X64018844Y-46260500D01*
X64018845Y-46260499D01*
X64173497Y-46229737D01*
X64319179Y-46169394D01*
X64450289Y-46081789D01*
X69595259Y-40936819D01*
X69656582Y-40903334D01*
X69682940Y-40900500D01*
X74278844Y-40900500D01*
X74278845Y-40900499D01*
X74433497Y-40869737D01*
X74579179Y-40809394D01*
X74710289Y-40721789D01*
X74821789Y-40610289D01*
X74909394Y-40479179D01*
X74969737Y-40333497D01*
X75000500Y-40178842D01*
X75000500Y-40021158D01*
X75000500Y-40021155D01*
X75000499Y-40021153D01*
X74981770Y-39926996D01*
X74969737Y-39866503D01*
X74935320Y-39783412D01*
X74909397Y-39720827D01*
X74909390Y-39720814D01*
X74821789Y-39589711D01*
X74821786Y-39589707D01*
X74710292Y-39478213D01*
X74710288Y-39478210D01*
X74579185Y-39390609D01*
X74579172Y-39390602D01*
X74433501Y-39330264D01*
X74433489Y-39330261D01*
X74278845Y-39299500D01*
X74278842Y-39299500D01*
X69378843Y-39299500D01*
X69221158Y-39299500D01*
X69221153Y-39299500D01*
X69066510Y-39330260D01*
X69066502Y-39330262D01*
X68920824Y-39390604D01*
X68920814Y-39390609D01*
X68789711Y-39478210D01*
X68789707Y-39478213D01*
X63644741Y-44623181D01*
X63583418Y-44656666D01*
X63557060Y-44659500D01*
X62972351Y-44659500D01*
X62905312Y-44639815D01*
X62859557Y-44587011D01*
X62849061Y-44548752D01*
X62844091Y-44502516D01*
X62793797Y-44367671D01*
X62793793Y-44367664D01*
X62707547Y-44252455D01*
X62707544Y-44252452D01*
X62592335Y-44166206D01*
X62592328Y-44166202D01*
X62457482Y-44115908D01*
X62457483Y-44115908D01*
X62397883Y-44109501D01*
X62397881Y-44109500D01*
X62397873Y-44109500D01*
X62397864Y-44109500D01*
X60602129Y-44109500D01*
X60602123Y-44109501D01*
X60542516Y-44115908D01*
X60407671Y-44166202D01*
X60407664Y-44166206D01*
X60292455Y-44252452D01*
X60292452Y-44252455D01*
X60206206Y-44367664D01*
X60206202Y-44367671D01*
X60155908Y-44502517D01*
X60149501Y-44562116D01*
X60149500Y-44562135D01*
X57750000Y-44562135D01*
X57750000Y-35827135D01*
X60049500Y-35827135D01*
X60049500Y-37622870D01*
X60049501Y-37622876D01*
X60055908Y-37682483D01*
X60106202Y-37817328D01*
X60106206Y-37817335D01*
X60192452Y-37932544D01*
X60192455Y-37932547D01*
X60307664Y-38018793D01*
X60307671Y-38018797D01*
X60439082Y-38067810D01*
X60495016Y-38109681D01*
X60519433Y-38175145D01*
X60504582Y-38243418D01*
X60483431Y-38271673D01*
X60369889Y-38385215D01*
X60244951Y-38557179D01*
X60148444Y-38746585D01*
X60082753Y-38948760D01*
X60065086Y-39060307D01*
X60049500Y-39158713D01*
X60049500Y-39371287D01*
X60050540Y-39377851D01*
X60066435Y-39478213D01*
X60082754Y-39581243D01*
X60085505Y-39589711D01*
X60148444Y-39783414D01*
X60244951Y-39972820D01*
X60369890Y-40144786D01*
X60520213Y-40295109D01*
X60692179Y-40420048D01*
X60692181Y-40420049D01*
X60692184Y-40420051D01*
X60881588Y-40516557D01*
X61083757Y-40582246D01*
X61293713Y-40615500D01*
X61293714Y-40615500D01*
X61506286Y-40615500D01*
X61506287Y-40615500D01*
X61716243Y-40582246D01*
X61918412Y-40516557D01*
X62107816Y-40420051D01*
X62226943Y-40333501D01*
X62279786Y-40295109D01*
X62279788Y-40295106D01*
X62279792Y-40295104D01*
X62430104Y-40144792D01*
X62430106Y-40144788D01*
X62430109Y-40144786D01*
X62555048Y-39972820D01*
X62555047Y-39972820D01*
X62555051Y-39972816D01*
X62651557Y-39783412D01*
X62717246Y-39581243D01*
X62750500Y-39371287D01*
X62750500Y-39158713D01*
X62717246Y-38948757D01*
X62651557Y-38746588D01*
X62555051Y-38557184D01*
X62555049Y-38557181D01*
X62555048Y-38557179D01*
X62430109Y-38385213D01*
X62316569Y-38271673D01*
X62283084Y-38210350D01*
X62288068Y-38140658D01*
X62329940Y-38084725D01*
X62360915Y-38067810D01*
X62492331Y-38018796D01*
X62607546Y-37932546D01*
X62693796Y-37817331D01*
X62744091Y-37682483D01*
X62750500Y-37622873D01*
X62750499Y-35827128D01*
X62744091Y-35767517D01*
X62693796Y-35632669D01*
X62693795Y-35632668D01*
X62693793Y-35632664D01*
X62607547Y-35517455D01*
X62607544Y-35517452D01*
X62492335Y-35431206D01*
X62492328Y-35431202D01*
X62357482Y-35380908D01*
X62357483Y-35380908D01*
X62297883Y-35374501D01*
X62297881Y-35374500D01*
X62297873Y-35374500D01*
X62297864Y-35374500D01*
X60502129Y-35374500D01*
X60502123Y-35374501D01*
X60442516Y-35380908D01*
X60307671Y-35431202D01*
X60307664Y-35431206D01*
X60192455Y-35517452D01*
X60192452Y-35517455D01*
X60106206Y-35632664D01*
X60106202Y-35632671D01*
X60055908Y-35767517D01*
X60049501Y-35827116D01*
X60049501Y-35827123D01*
X60049500Y-35827135D01*
X57750000Y-35827135D01*
X57750000Y-29393713D01*
X58649500Y-29393713D01*
X58649500Y-29606286D01*
X58681874Y-29810691D01*
X58682754Y-29816243D01*
X58736600Y-29981964D01*
X58748444Y-30018414D01*
X58844951Y-30207820D01*
X58969890Y-30379786D01*
X59120213Y-30530109D01*
X59292179Y-30655048D01*
X59292181Y-30655049D01*
X59292184Y-30655051D01*
X59481588Y-30751557D01*
X59683757Y-30817246D01*
X59893713Y-30850500D01*
X59893714Y-30850500D01*
X60106286Y-30850500D01*
X60106287Y-30850500D01*
X60316243Y-30817246D01*
X60518412Y-30751557D01*
X60707816Y-30655051D01*
X60793977Y-30592452D01*
X60879786Y-30530109D01*
X60879788Y-30530106D01*
X60879792Y-30530104D01*
X61030104Y-30379792D01*
X61030106Y-30379788D01*
X61030109Y-30379786D01*
X61155048Y-30207820D01*
X61155047Y-30207820D01*
X61155051Y-30207816D01*
X61251557Y-30018412D01*
X61317246Y-29816243D01*
X61350500Y-29606287D01*
X61350500Y-29393713D01*
X61317246Y-29183757D01*
X61251557Y-28981588D01*
X61155051Y-28792184D01*
X61155049Y-28792181D01*
X61155048Y-28792179D01*
X61030109Y-28620213D01*
X60879786Y-28469890D01*
X60707820Y-28344951D01*
X60518414Y-28248444D01*
X60518413Y-28248443D01*
X60518412Y-28248443D01*
X60316243Y-28182754D01*
X60316241Y-28182753D01*
X60316240Y-28182753D01*
X60154957Y-28157208D01*
X60106287Y-28149500D01*
X59893713Y-28149500D01*
X59845042Y-28157208D01*
X59683760Y-28182753D01*
X59481585Y-28248444D01*
X59292179Y-28344951D01*
X59120213Y-28469890D01*
X58969890Y-28620213D01*
X58844951Y-28792179D01*
X58748444Y-28981585D01*
X58682753Y-29183760D01*
X58649500Y-29393713D01*
X57750000Y-29393713D01*
X57750000Y-27715271D01*
X57756238Y-27694025D01*
X57757818Y-27671937D01*
X57768431Y-27652499D01*
X57769685Y-27648232D01*
X57774722Y-27640974D01*
X57861448Y-27525123D01*
X57873020Y-27511769D01*
X58011769Y-27373020D01*
X58025123Y-27361448D01*
X58182221Y-27243845D01*
X58197089Y-27234291D01*
X58369298Y-27140258D01*
X58385385Y-27132911D01*
X58569248Y-27064333D01*
X58586199Y-27059356D01*
X58777938Y-27017646D01*
X58795436Y-27015130D01*
X58995582Y-27000816D01*
X59004428Y-27000500D01*
X59065892Y-27000500D01*
X84934108Y-27000500D01*
X84995572Y-27000500D01*
X85004418Y-27000816D01*
G37*
%TD.AperFunction*%
%TA.AperFunction,Conductor*%
G36*
X86844322Y-30933848D02*
G01*
X86900256Y-30975719D01*
X86904164Y-30981247D01*
X88250000Y-33000000D01*
X98749999Y-33000000D01*
X98750000Y-33000000D01*
X100250000Y-31250000D01*
X100261432Y-31192835D01*
X100293881Y-31130960D01*
X100354632Y-31096448D01*
X100424398Y-31100260D01*
X100439314Y-31106667D01*
X100517576Y-31146543D01*
X100606818Y-31192014D01*
X100657614Y-31239989D01*
X100674409Y-31307810D01*
X100651872Y-31373944D01*
X100606818Y-31412984D01*
X100430199Y-31502975D01*
X100270960Y-31618670D01*
X100198656Y-31690973D01*
X100198650Y-31690979D01*
X100131777Y-31757853D01*
X100078622Y-31831013D01*
X100078616Y-31831021D01*
X100016083Y-31917090D01*
X99926722Y-32092469D01*
X99865895Y-32279672D01*
X99835105Y-32474076D01*
X99835105Y-32670921D01*
X99865895Y-32865325D01*
X99926722Y-33052528D01*
X99992330Y-33181290D01*
X100016081Y-33227904D01*
X100131777Y-33387145D01*
X100270959Y-33526327D01*
X100430200Y-33642023D01*
X100483823Y-33669345D01*
X100606818Y-33732014D01*
X100657614Y-33779988D01*
X100674409Y-33847809D01*
X100651872Y-33913944D01*
X100606818Y-33952984D01*
X100430199Y-34042975D01*
X100392593Y-34070298D01*
X100270959Y-34158671D01*
X100270957Y-34158673D01*
X100270956Y-34158673D01*
X100131779Y-34297850D01*
X100131779Y-34297851D01*
X100131777Y-34297853D01*
X100090758Y-34354311D01*
X100016081Y-34457093D01*
X99926722Y-34632469D01*
X99865895Y-34819672D01*
X99835105Y-35014076D01*
X99835105Y-35210921D01*
X99865895Y-35405325D01*
X99926722Y-35592528D01*
X99978279Y-35693713D01*
X100016081Y-35767904D01*
X100131777Y-35927145D01*
X100270959Y-36066327D01*
X100430200Y-36182023D01*
X100483823Y-36209345D01*
X100606818Y-36272014D01*
X100657614Y-36319988D01*
X100674409Y-36387809D01*
X100651872Y-36453944D01*
X100606818Y-36492984D01*
X100430199Y-36582975D01*
X100392593Y-36610298D01*
X100270959Y-36698671D01*
X100270957Y-36698673D01*
X100270956Y-36698673D01*
X100131779Y-36837850D01*
X100131779Y-36837851D01*
X100131777Y-36837853D01*
X100111928Y-36865173D01*
X100016081Y-36997093D01*
X99926722Y-37172469D01*
X99865895Y-37359672D01*
X99835105Y-37554076D01*
X99835105Y-37750921D01*
X99865895Y-37945325D01*
X99926722Y-38132528D01*
X100016081Y-38307904D01*
X100131777Y-38467145D01*
X100270959Y-38606327D01*
X100430200Y-38722023D01*
X100478412Y-38746588D01*
X100606818Y-38812014D01*
X100657614Y-38859988D01*
X100674409Y-38927809D01*
X100651872Y-38993944D01*
X100606818Y-39032984D01*
X100430199Y-39122975D01*
X100392593Y-39150298D01*
X100270959Y-39238671D01*
X100270957Y-39238673D01*
X100270956Y-39238673D01*
X100131779Y-39377850D01*
X100131779Y-39377851D01*
X100131777Y-39377853D01*
X100111928Y-39405173D01*
X100016081Y-39537093D01*
X99926722Y-39712469D01*
X99865895Y-39899672D01*
X99835105Y-40094076D01*
X99835105Y-40290921D01*
X99865895Y-40485325D01*
X99926722Y-40672528D01*
X99996457Y-40809390D01*
X100016081Y-40847904D01*
X100131777Y-41007145D01*
X100270959Y-41146327D01*
X100430200Y-41262023D01*
X100483823Y-41289345D01*
X100606818Y-41352014D01*
X100657614Y-41399988D01*
X100674409Y-41467809D01*
X100651872Y-41533944D01*
X100606818Y-41572984D01*
X100430199Y-41662975D01*
X100339346Y-41728984D01*
X100270959Y-41778671D01*
X100270957Y-41778673D01*
X100270956Y-41778673D01*
X100131779Y-41917850D01*
X100131779Y-41917851D01*
X100131777Y-41917853D01*
X100107410Y-41951391D01*
X100016081Y-42077093D01*
X99926722Y-42252469D01*
X99865895Y-42439672D01*
X99835105Y-42634076D01*
X99835105Y-42830921D01*
X99865895Y-43025325D01*
X99926722Y-43212528D01*
X100012873Y-43381608D01*
X100016081Y-43387904D01*
X100131777Y-43547145D01*
X100270959Y-43686327D01*
X100430200Y-43802023D01*
X100504770Y-43840018D01*
X100606818Y-43892014D01*
X100657614Y-43939988D01*
X100674409Y-44007809D01*
X100651872Y-44073944D01*
X100606818Y-44112984D01*
X100430199Y-44202975D01*
X100392004Y-44230726D01*
X100270959Y-44318671D01*
X100270957Y-44318673D01*
X100270956Y-44318673D01*
X100131779Y-44457850D01*
X100131779Y-44457851D01*
X100131777Y-44457853D01*
X100111690Y-44485500D01*
X100016081Y-44617093D01*
X99926722Y-44792469D01*
X99865895Y-44979672D01*
X99835105Y-45174076D01*
X99835105Y-45370921D01*
X99865895Y-45565325D01*
X99926722Y-45752528D01*
X99950820Y-45799822D01*
X100016081Y-45927904D01*
X100131777Y-46087145D01*
X100270959Y-46226327D01*
X100430200Y-46342023D01*
X100487554Y-46371246D01*
X100606818Y-46432014D01*
X100614922Y-46439668D01*
X100625345Y-46443617D01*
X100639868Y-46463228D01*
X100657614Y-46479988D01*
X100660293Y-46490808D01*
X100666927Y-46499766D01*
X100668542Y-46524119D01*
X100674409Y-46547809D01*
X100670814Y-46558358D01*
X100671552Y-46569482D01*
X100659744Y-46590843D01*
X100651872Y-46613944D01*
X100642261Y-46622470D01*
X100637750Y-46630632D01*
X100612476Y-46648895D01*
X100609387Y-46651636D01*
X100605926Y-46653502D01*
X100605580Y-46653615D01*
X100430200Y-46742975D01*
X100401843Y-46763576D01*
X100394534Y-46767519D01*
X100393466Y-46767745D01*
X100389797Y-46769945D01*
X100376588Y-46776353D01*
X100376581Y-46776357D01*
X100048953Y-46997850D01*
X99562065Y-47327011D01*
X99486307Y-47378227D01*
X99419743Y-47399466D01*
X99416858Y-47399500D01*
X98917801Y-47399500D01*
X98850762Y-47379815D01*
X98805007Y-47327011D01*
X98800095Y-47314504D01*
X98792697Y-47292179D01*
X98772314Y-47230666D01*
X98680212Y-47081344D01*
X98556156Y-46957288D01*
X98406834Y-46865186D01*
X98240297Y-46810001D01*
X98240295Y-46810000D01*
X98137510Y-46799500D01*
X97512498Y-46799500D01*
X97512480Y-46799501D01*
X97409703Y-46810000D01*
X97409700Y-46810001D01*
X97243168Y-46865185D01*
X97243163Y-46865187D01*
X97093842Y-46957289D01*
X97000181Y-47050951D01*
X96938858Y-47084436D01*
X96869166Y-47079452D01*
X96824819Y-47050951D01*
X96731157Y-46957289D01*
X96731156Y-46957288D01*
X96581834Y-46865186D01*
X96415297Y-46810001D01*
X96415295Y-46810000D01*
X96312510Y-46799500D01*
X95687498Y-46799500D01*
X95687480Y-46799501D01*
X95584703Y-46810000D01*
X95584700Y-46810001D01*
X95418168Y-46865185D01*
X95418163Y-46865187D01*
X95268842Y-46957289D01*
X95144789Y-47081342D01*
X95144788Y-47081344D01*
X95120814Y-47120213D01*
X95108241Y-47140597D01*
X95056293Y-47187321D01*
X95002702Y-47199500D01*
X92882940Y-47199500D01*
X92815901Y-47179815D01*
X92795259Y-47163181D01*
X87770114Y-42138035D01*
X87770110Y-42138032D01*
X87639007Y-42050431D01*
X87638994Y-42050424D01*
X87493323Y-41990086D01*
X87493311Y-41990083D01*
X87338667Y-41959322D01*
X87338664Y-41959322D01*
X87280089Y-41959322D01*
X87236455Y-41951391D01*
X86399048Y-41636583D01*
X86386388Y-41630999D01*
X86326150Y-41600307D01*
X86275354Y-41552334D01*
X86258558Y-41484513D01*
X86281095Y-41418378D01*
X86326150Y-41379337D01*
X86502766Y-41289347D01*
X86502765Y-41289347D01*
X86502768Y-41289346D01*
X86662009Y-41173650D01*
X86801191Y-41034468D01*
X86916887Y-40875227D01*
X87006247Y-40699847D01*
X87067072Y-40512648D01*
X87097863Y-40318244D01*
X87097863Y-40121399D01*
X87067072Y-39926995D01*
X87006245Y-39739792D01*
X86929775Y-39589711D01*
X86916887Y-39564417D01*
X86801191Y-39405176D01*
X86662009Y-39265994D01*
X86582388Y-39208146D01*
X86502766Y-39150296D01*
X86326150Y-39060307D01*
X86275353Y-39012333D01*
X86258558Y-38944512D01*
X86281095Y-38878377D01*
X86326150Y-38839337D01*
X86502766Y-38749347D01*
X86502765Y-38749347D01*
X86502768Y-38749346D01*
X86662009Y-38633650D01*
X86801191Y-38494468D01*
X86916887Y-38335227D01*
X87006247Y-38159847D01*
X87067072Y-37972648D01*
X87097863Y-37778244D01*
X87097863Y-37581399D01*
X87067072Y-37386995D01*
X87006245Y-37199792D01*
X86916886Y-37024416D01*
X86904628Y-37007544D01*
X86801191Y-36865176D01*
X86662009Y-36725994D01*
X86582388Y-36668146D01*
X86502766Y-36610296D01*
X86326150Y-36520307D01*
X86275353Y-36472333D01*
X86258558Y-36404512D01*
X86281095Y-36338377D01*
X86326150Y-36299337D01*
X86502766Y-36209347D01*
X86502765Y-36209347D01*
X86502768Y-36209346D01*
X86662009Y-36093650D01*
X86801191Y-35954468D01*
X86916887Y-35795227D01*
X87006247Y-35619847D01*
X87067072Y-35432648D01*
X87067301Y-35431202D01*
X87097863Y-35238244D01*
X87097863Y-35041399D01*
X87067072Y-34846995D01*
X87021802Y-34707671D01*
X87006247Y-34659797D01*
X87006245Y-34659794D01*
X87006245Y-34659792D01*
X86937501Y-34524875D01*
X86916887Y-34484417D01*
X86801191Y-34325176D01*
X86662009Y-34185994D01*
X86582388Y-34128146D01*
X86502766Y-34070296D01*
X86326150Y-33980307D01*
X86275353Y-33932333D01*
X86258558Y-33864512D01*
X86281095Y-33798377D01*
X86326150Y-33759337D01*
X86502766Y-33669347D01*
X86502765Y-33669347D01*
X86502768Y-33669346D01*
X86662009Y-33553650D01*
X86801191Y-33414468D01*
X86916887Y-33255227D01*
X87006247Y-33079847D01*
X87067072Y-32892648D01*
X87067123Y-32892328D01*
X87097863Y-32698244D01*
X87097863Y-32501399D01*
X87067072Y-32306995D01*
X87006245Y-32119792D01*
X86959106Y-32027277D01*
X86916887Y-31944417D01*
X86801191Y-31785176D01*
X86662009Y-31645994D01*
X86582388Y-31588146D01*
X86502766Y-31530296D01*
X86326150Y-31440307D01*
X86275353Y-31392333D01*
X86258558Y-31324512D01*
X86281095Y-31258377D01*
X86326150Y-31219337D01*
X86502766Y-31129347D01*
X86502765Y-31129347D01*
X86502768Y-31129346D01*
X86662009Y-31013650D01*
X86713310Y-30962348D01*
X86774631Y-30928864D01*
X86844322Y-30933848D01*
G37*
%TD.AperFunction*%
%TA.AperFunction,Conductor*%
G36*
X72218988Y-34434144D02*
G01*
X72248975Y-34440668D01*
X72253990Y-34444422D01*
X72256587Y-34445185D01*
X72277224Y-34461814D01*
X72435076Y-34619667D01*
X72468560Y-34680989D01*
X72463576Y-34750681D01*
X72435076Y-34795028D01*
X72309889Y-34920215D01*
X72184949Y-35092182D01*
X72180202Y-35101499D01*
X72132227Y-35152293D01*
X72064405Y-35169087D01*
X71998271Y-35146548D01*
X71959234Y-35101495D01*
X71954626Y-35092452D01*
X71915270Y-35038282D01*
X71915269Y-35038282D01*
X71282962Y-35670590D01*
X71265925Y-35607007D01*
X71200099Y-35492993D01*
X71107007Y-35399901D01*
X70992993Y-35334075D01*
X70929409Y-35317037D01*
X71561716Y-34684728D01*
X71513667Y-34649819D01*
X71471001Y-34594489D01*
X71465022Y-34524875D01*
X71497627Y-34463080D01*
X71558466Y-34428723D01*
X71586552Y-34425500D01*
X72189548Y-34425500D01*
X72218988Y-34434144D01*
G37*
%TD.AperFunction*%
%TA.AperFunction,Conductor*%
G36*
X72904075Y-31992993D02*
G01*
X72969901Y-32107007D01*
X73062993Y-32200099D01*
X73177007Y-32265925D01*
X73240590Y-32282962D01*
X72608282Y-32915269D01*
X72608282Y-32915270D01*
X72659963Y-32952818D01*
X72702629Y-33008148D01*
X72708608Y-33077762D01*
X72676003Y-33139557D01*
X72615164Y-33173914D01*
X72567712Y-33174677D01*
X72567671Y-33175097D01*
X72564014Y-33174736D01*
X72562889Y-33174755D01*
X72562793Y-33174736D01*
X72561607Y-33174500D01*
X71617404Y-33174500D01*
X71550365Y-33154815D01*
X71504610Y-33102011D01*
X71494666Y-33032853D01*
X71523691Y-32969297D01*
X71544519Y-32950182D01*
X71709785Y-32830109D01*
X71709783Y-32830109D01*
X71709792Y-32830104D01*
X71860104Y-32679792D01*
X71860106Y-32679788D01*
X71860109Y-32679786D01*
X71927515Y-32587007D01*
X71985051Y-32507816D01*
X71989793Y-32498508D01*
X72037763Y-32447711D01*
X72105583Y-32430911D01*
X72171719Y-32453445D01*
X72210763Y-32498500D01*
X72215373Y-32507547D01*
X72254728Y-32561716D01*
X72887037Y-31929408D01*
X72904075Y-31992993D01*
G37*
%TD.AperFunction*%
%TD*%
%TA.AperFunction,Conductor*%
%TO.N,+3V3*%
G36*
X84205203Y-42026148D02*
G01*
X85775286Y-42749195D01*
X85781367Y-42755768D01*
X85781019Y-42764716D01*
X85775286Y-42770449D01*
X84205203Y-43493495D01*
X84196690Y-43493994D01*
X82869855Y-43062450D01*
X82863048Y-43056633D01*
X82861774Y-43051324D01*
X82861774Y-42468319D01*
X82865201Y-42460046D01*
X82869852Y-42457194D01*
X84196691Y-42025649D01*
X84205203Y-42026148D01*
G37*
%TD.AperFunction*%
%TD*%
%TA.AperFunction,Conductor*%
%TO.N,+3V3*%
G36*
X86005757Y-42028773D02*
G01*
X86369581Y-42165545D01*
X87506672Y-42593013D01*
X87513209Y-42599131D01*
X87513506Y-42608081D01*
X87510827Y-42612237D01*
X87100987Y-43022077D01*
X87097342Y-43024550D01*
X86272509Y-43379777D01*
X86263555Y-43379902D01*
X86258515Y-43376043D01*
X85800063Y-42763666D01*
X85797848Y-42754989D01*
X85798128Y-42753624D01*
X85990340Y-42036693D01*
X85995791Y-42029592D01*
X86004670Y-42028424D01*
X86005757Y-42028773D01*
G37*
%TD.AperFunction*%
%TD*%
%TA.AperFunction,Conductor*%
%TO.N,GPIO24*%
G36*
X103278711Y-48046385D02*
G01*
X103286561Y-48050692D01*
X103287607Y-48052232D01*
X103693538Y-48765931D01*
X103694650Y-48774816D01*
X103691641Y-48779988D01*
X103278513Y-49193116D01*
X103270240Y-49196543D01*
X103267102Y-49196114D01*
X100950425Y-48551188D01*
X100943374Y-48545668D01*
X100942255Y-48536915D01*
X101132315Y-47821512D01*
X101137751Y-47814397D01*
X101144895Y-47812886D01*
X103278711Y-48046385D01*
G37*
%TD.AperFunction*%
%TD*%
%TA.AperFunction,Conductor*%
%TO.N,GPIO24*%
G36*
X100675610Y-47197809D02*
G01*
X101133190Y-47807945D01*
X101135412Y-47816620D01*
X101135130Y-47817996D01*
X100942520Y-48536031D01*
X100937067Y-48543134D01*
X100928189Y-48544300D01*
X100927465Y-48544081D01*
X99625020Y-48102692D01*
X99618284Y-48096791D01*
X99617075Y-48091611D01*
X99617075Y-47906213D01*
X99620502Y-47897940D01*
X99622219Y-47896522D01*
X100659698Y-47195135D01*
X100668470Y-47193342D01*
X100675610Y-47197809D01*
G37*
%TD.AperFunction*%
%TD*%
M02*
