%TF.GenerationSoftware,KiCad,Pcbnew,9.0.5*%
%TF.CreationDate,2025-11-19T14:43:04+01:00*%
%TF.ProjectId,caelum,6361656c-756d-42e6-9b69-6361645f7063,rev?*%
%TF.SameCoordinates,Original*%
%TF.FileFunction,Legend,Top*%
%TF.FilePolarity,Positive*%
%FSLAX46Y46*%
G04 Gerber Fmt 4.6, Leading zero omitted, Abs format (unit mm)*
G04 Created by KiCad (PCBNEW 9.0.5) date 2025-11-19 14:43:04*
%MOMM*%
%LPD*%
G01*
G04 APERTURE LIST*
%ADD10C,0.125000*%
%ADD11C,0.200000*%
%ADD12C,0.150000*%
%ADD13C,0.100000*%
%ADD14C,0.120000*%
%ADD15C,0.127000*%
G04 APERTURE END LIST*
D10*
X81144140Y-44718738D02*
X81048902Y-44671119D01*
X81048902Y-44671119D02*
X80906045Y-44671119D01*
X80906045Y-44671119D02*
X80763188Y-44718738D01*
X80763188Y-44718738D02*
X80667950Y-44813976D01*
X80667950Y-44813976D02*
X80620331Y-44909214D01*
X80620331Y-44909214D02*
X80572712Y-45099690D01*
X80572712Y-45099690D02*
X80572712Y-45242547D01*
X80572712Y-45242547D02*
X80620331Y-45433023D01*
X80620331Y-45433023D02*
X80667950Y-45528261D01*
X80667950Y-45528261D02*
X80763188Y-45623500D01*
X80763188Y-45623500D02*
X80906045Y-45671119D01*
X80906045Y-45671119D02*
X81001283Y-45671119D01*
X81001283Y-45671119D02*
X81144140Y-45623500D01*
X81144140Y-45623500D02*
X81191759Y-45575880D01*
X81191759Y-45575880D02*
X81191759Y-45242547D01*
X81191759Y-45242547D02*
X81001283Y-45242547D01*
X81620331Y-45671119D02*
X81620331Y-44671119D01*
X81620331Y-44671119D02*
X82191759Y-45671119D01*
X82191759Y-45671119D02*
X82191759Y-44671119D01*
X82667950Y-45671119D02*
X82667950Y-44671119D01*
X82667950Y-44671119D02*
X82906045Y-44671119D01*
X82906045Y-44671119D02*
X83048902Y-44718738D01*
X83048902Y-44718738D02*
X83144140Y-44813976D01*
X83144140Y-44813976D02*
X83191759Y-44909214D01*
X83191759Y-44909214D02*
X83239378Y-45099690D01*
X83239378Y-45099690D02*
X83239378Y-45242547D01*
X83239378Y-45242547D02*
X83191759Y-45433023D01*
X83191759Y-45433023D02*
X83144140Y-45528261D01*
X83144140Y-45528261D02*
X83048902Y-45623500D01*
X83048902Y-45623500D02*
X82906045Y-45671119D01*
X82906045Y-45671119D02*
X82667950Y-45671119D01*
X80825093Y-42371119D02*
X81444140Y-42371119D01*
X81444140Y-42371119D02*
X81110807Y-42752071D01*
X81110807Y-42752071D02*
X81253664Y-42752071D01*
X81253664Y-42752071D02*
X81348902Y-42799690D01*
X81348902Y-42799690D02*
X81396521Y-42847309D01*
X81396521Y-42847309D02*
X81444140Y-42942547D01*
X81444140Y-42942547D02*
X81444140Y-43180642D01*
X81444140Y-43180642D02*
X81396521Y-43275880D01*
X81396521Y-43275880D02*
X81348902Y-43323500D01*
X81348902Y-43323500D02*
X81253664Y-43371119D01*
X81253664Y-43371119D02*
X80967950Y-43371119D01*
X80967950Y-43371119D02*
X80872712Y-43323500D01*
X80872712Y-43323500D02*
X80825093Y-43275880D01*
X81729855Y-42371119D02*
X82063188Y-43371119D01*
X82063188Y-43371119D02*
X82396521Y-42371119D01*
X82634617Y-42371119D02*
X83253664Y-42371119D01*
X83253664Y-42371119D02*
X82920331Y-42752071D01*
X82920331Y-42752071D02*
X83063188Y-42752071D01*
X83063188Y-42752071D02*
X83158426Y-42799690D01*
X83158426Y-42799690D02*
X83206045Y-42847309D01*
X83206045Y-42847309D02*
X83253664Y-42942547D01*
X83253664Y-42942547D02*
X83253664Y-43180642D01*
X83253664Y-43180642D02*
X83206045Y-43275880D01*
X83206045Y-43275880D02*
X83158426Y-43323500D01*
X83158426Y-43323500D02*
X83063188Y-43371119D01*
X83063188Y-43371119D02*
X82777474Y-43371119D01*
X82777474Y-43371119D02*
X82682236Y-43323500D01*
X82682236Y-43323500D02*
X82634617Y-43275880D01*
D11*
X65203006Y-64328457D02*
X65145863Y-64385600D01*
X65145863Y-64385600D02*
X64974435Y-64442742D01*
X64974435Y-64442742D02*
X64860149Y-64442742D01*
X64860149Y-64442742D02*
X64688720Y-64385600D01*
X64688720Y-64385600D02*
X64574435Y-64271314D01*
X64574435Y-64271314D02*
X64517292Y-64157028D01*
X64517292Y-64157028D02*
X64460149Y-63928457D01*
X64460149Y-63928457D02*
X64460149Y-63757028D01*
X64460149Y-63757028D02*
X64517292Y-63528457D01*
X64517292Y-63528457D02*
X64574435Y-63414171D01*
X64574435Y-63414171D02*
X64688720Y-63299885D01*
X64688720Y-63299885D02*
X64860149Y-63242742D01*
X64860149Y-63242742D02*
X64974435Y-63242742D01*
X64974435Y-63242742D02*
X65145863Y-63299885D01*
X65145863Y-63299885D02*
X65203006Y-63357028D01*
X65660149Y-64099885D02*
X66231578Y-64099885D01*
X65545863Y-64442742D02*
X65945863Y-63242742D01*
X65945863Y-63242742D02*
X66345863Y-64442742D01*
X66745863Y-63814171D02*
X67145863Y-63814171D01*
X67317291Y-64442742D02*
X66745863Y-64442742D01*
X66745863Y-64442742D02*
X66745863Y-63242742D01*
X66745863Y-63242742D02*
X67317291Y-63242742D01*
X68403005Y-64442742D02*
X67831577Y-64442742D01*
X67831577Y-64442742D02*
X67831577Y-63242742D01*
X68803006Y-63242742D02*
X68803006Y-64214171D01*
X68803006Y-64214171D02*
X68860149Y-64328457D01*
X68860149Y-64328457D02*
X68917292Y-64385600D01*
X68917292Y-64385600D02*
X69031577Y-64442742D01*
X69031577Y-64442742D02*
X69260149Y-64442742D01*
X69260149Y-64442742D02*
X69374434Y-64385600D01*
X69374434Y-64385600D02*
X69431577Y-64328457D01*
X69431577Y-64328457D02*
X69488720Y-64214171D01*
X69488720Y-64214171D02*
X69488720Y-63242742D01*
X70060149Y-64442742D02*
X70060149Y-63242742D01*
X70060149Y-63242742D02*
X70460149Y-64099885D01*
X70460149Y-64099885D02*
X70860149Y-63242742D01*
X70860149Y-63242742D02*
X70860149Y-64442742D01*
X72345864Y-63985600D02*
X73260150Y-63985600D01*
X74631578Y-63642742D02*
X74917292Y-64442742D01*
X74917292Y-64442742D02*
X75203007Y-63642742D01*
X76288721Y-64442742D02*
X75603007Y-64442742D01*
X75945864Y-64442742D02*
X75945864Y-63242742D01*
X75945864Y-63242742D02*
X75831578Y-63414171D01*
X75831578Y-63414171D02*
X75717293Y-63528457D01*
X75717293Y-63528457D02*
X75603007Y-63585600D01*
X76803007Y-64328457D02*
X76860150Y-64385600D01*
X76860150Y-64385600D02*
X76803007Y-64442742D01*
X76803007Y-64442742D02*
X76745864Y-64385600D01*
X76745864Y-64385600D02*
X76803007Y-64328457D01*
X76803007Y-64328457D02*
X76803007Y-64442742D01*
X77603007Y-63242742D02*
X77717293Y-63242742D01*
X77717293Y-63242742D02*
X77831579Y-63299885D01*
X77831579Y-63299885D02*
X77888722Y-63357028D01*
X77888722Y-63357028D02*
X77945864Y-63471314D01*
X77945864Y-63471314D02*
X78003007Y-63699885D01*
X78003007Y-63699885D02*
X78003007Y-63985600D01*
X78003007Y-63985600D02*
X77945864Y-64214171D01*
X77945864Y-64214171D02*
X77888722Y-64328457D01*
X77888722Y-64328457D02*
X77831579Y-64385600D01*
X77831579Y-64385600D02*
X77717293Y-64442742D01*
X77717293Y-64442742D02*
X77603007Y-64442742D01*
X77603007Y-64442742D02*
X77488722Y-64385600D01*
X77488722Y-64385600D02*
X77431579Y-64328457D01*
X77431579Y-64328457D02*
X77374436Y-64214171D01*
X77374436Y-64214171D02*
X77317293Y-63985600D01*
X77317293Y-63985600D02*
X77317293Y-63699885D01*
X77317293Y-63699885D02*
X77374436Y-63471314D01*
X77374436Y-63471314D02*
X77431579Y-63357028D01*
X77431579Y-63357028D02*
X77488722Y-63299885D01*
X77488722Y-63299885D02*
X77603007Y-63242742D01*
D10*
X75271119Y-40022525D02*
X76271119Y-39689192D01*
X76271119Y-39689192D02*
X75271119Y-39355859D01*
X76175880Y-38451097D02*
X76223500Y-38498716D01*
X76223500Y-38498716D02*
X76271119Y-38641573D01*
X76271119Y-38641573D02*
X76271119Y-38736811D01*
X76271119Y-38736811D02*
X76223500Y-38879668D01*
X76223500Y-38879668D02*
X76128261Y-38974906D01*
X76128261Y-38974906D02*
X76033023Y-39022525D01*
X76033023Y-39022525D02*
X75842547Y-39070144D01*
X75842547Y-39070144D02*
X75699690Y-39070144D01*
X75699690Y-39070144D02*
X75509214Y-39022525D01*
X75509214Y-39022525D02*
X75413976Y-38974906D01*
X75413976Y-38974906D02*
X75318738Y-38879668D01*
X75318738Y-38879668D02*
X75271119Y-38736811D01*
X75271119Y-38736811D02*
X75271119Y-38641573D01*
X75271119Y-38641573D02*
X75318738Y-38498716D01*
X75318738Y-38498716D02*
X75366357Y-38451097D01*
X76175880Y-37451097D02*
X76223500Y-37498716D01*
X76223500Y-37498716D02*
X76271119Y-37641573D01*
X76271119Y-37641573D02*
X76271119Y-37736811D01*
X76271119Y-37736811D02*
X76223500Y-37879668D01*
X76223500Y-37879668D02*
X76128261Y-37974906D01*
X76128261Y-37974906D02*
X76033023Y-38022525D01*
X76033023Y-38022525D02*
X75842547Y-38070144D01*
X75842547Y-38070144D02*
X75699690Y-38070144D01*
X75699690Y-38070144D02*
X75509214Y-38022525D01*
X75509214Y-38022525D02*
X75413976Y-37974906D01*
X75413976Y-37974906D02*
X75318738Y-37879668D01*
X75318738Y-37879668D02*
X75271119Y-37736811D01*
X75271119Y-37736811D02*
X75271119Y-37641573D01*
X75271119Y-37641573D02*
X75318738Y-37498716D01*
X75318738Y-37498716D02*
X75366357Y-37451097D01*
X70318738Y-39455859D02*
X70271119Y-39551097D01*
X70271119Y-39551097D02*
X70271119Y-39693954D01*
X70271119Y-39693954D02*
X70318738Y-39836811D01*
X70318738Y-39836811D02*
X70413976Y-39932049D01*
X70413976Y-39932049D02*
X70509214Y-39979668D01*
X70509214Y-39979668D02*
X70699690Y-40027287D01*
X70699690Y-40027287D02*
X70842547Y-40027287D01*
X70842547Y-40027287D02*
X71033023Y-39979668D01*
X71033023Y-39979668D02*
X71128261Y-39932049D01*
X71128261Y-39932049D02*
X71223500Y-39836811D01*
X71223500Y-39836811D02*
X71271119Y-39693954D01*
X71271119Y-39693954D02*
X71271119Y-39598716D01*
X71271119Y-39598716D02*
X71223500Y-39455859D01*
X71223500Y-39455859D02*
X71175880Y-39408240D01*
X71175880Y-39408240D02*
X70842547Y-39408240D01*
X70842547Y-39408240D02*
X70842547Y-39598716D01*
X71271119Y-38979668D02*
X70271119Y-38979668D01*
X70271119Y-38979668D02*
X71271119Y-38408240D01*
X71271119Y-38408240D02*
X70271119Y-38408240D01*
X71271119Y-37932049D02*
X70271119Y-37932049D01*
X70271119Y-37932049D02*
X70271119Y-37693954D01*
X70271119Y-37693954D02*
X70318738Y-37551097D01*
X70318738Y-37551097D02*
X70413976Y-37455859D01*
X70413976Y-37455859D02*
X70509214Y-37408240D01*
X70509214Y-37408240D02*
X70699690Y-37360621D01*
X70699690Y-37360621D02*
X70842547Y-37360621D01*
X70842547Y-37360621D02*
X71033023Y-37408240D01*
X71033023Y-37408240D02*
X71128261Y-37455859D01*
X71128261Y-37455859D02*
X71223500Y-37551097D01*
X71223500Y-37551097D02*
X71271119Y-37693954D01*
X71271119Y-37693954D02*
X71271119Y-37932049D01*
X75371119Y-30222525D02*
X76371119Y-29889192D01*
X76371119Y-29889192D02*
X75371119Y-29555859D01*
X76275880Y-28651097D02*
X76323500Y-28698716D01*
X76323500Y-28698716D02*
X76371119Y-28841573D01*
X76371119Y-28841573D02*
X76371119Y-28936811D01*
X76371119Y-28936811D02*
X76323500Y-29079668D01*
X76323500Y-29079668D02*
X76228261Y-29174906D01*
X76228261Y-29174906D02*
X76133023Y-29222525D01*
X76133023Y-29222525D02*
X75942547Y-29270144D01*
X75942547Y-29270144D02*
X75799690Y-29270144D01*
X75799690Y-29270144D02*
X75609214Y-29222525D01*
X75609214Y-29222525D02*
X75513976Y-29174906D01*
X75513976Y-29174906D02*
X75418738Y-29079668D01*
X75418738Y-29079668D02*
X75371119Y-28936811D01*
X75371119Y-28936811D02*
X75371119Y-28841573D01*
X75371119Y-28841573D02*
X75418738Y-28698716D01*
X75418738Y-28698716D02*
X75466357Y-28651097D01*
X76275880Y-27651097D02*
X76323500Y-27698716D01*
X76323500Y-27698716D02*
X76371119Y-27841573D01*
X76371119Y-27841573D02*
X76371119Y-27936811D01*
X76371119Y-27936811D02*
X76323500Y-28079668D01*
X76323500Y-28079668D02*
X76228261Y-28174906D01*
X76228261Y-28174906D02*
X76133023Y-28222525D01*
X76133023Y-28222525D02*
X75942547Y-28270144D01*
X75942547Y-28270144D02*
X75799690Y-28270144D01*
X75799690Y-28270144D02*
X75609214Y-28222525D01*
X75609214Y-28222525D02*
X75513976Y-28174906D01*
X75513976Y-28174906D02*
X75418738Y-28079668D01*
X75418738Y-28079668D02*
X75371119Y-27936811D01*
X75371119Y-27936811D02*
X75371119Y-27841573D01*
X75371119Y-27841573D02*
X75418738Y-27698716D01*
X75418738Y-27698716D02*
X75466357Y-27651097D01*
X72918738Y-29655859D02*
X72871119Y-29751097D01*
X72871119Y-29751097D02*
X72871119Y-29893954D01*
X72871119Y-29893954D02*
X72918738Y-30036811D01*
X72918738Y-30036811D02*
X73013976Y-30132049D01*
X73013976Y-30132049D02*
X73109214Y-30179668D01*
X73109214Y-30179668D02*
X73299690Y-30227287D01*
X73299690Y-30227287D02*
X73442547Y-30227287D01*
X73442547Y-30227287D02*
X73633023Y-30179668D01*
X73633023Y-30179668D02*
X73728261Y-30132049D01*
X73728261Y-30132049D02*
X73823500Y-30036811D01*
X73823500Y-30036811D02*
X73871119Y-29893954D01*
X73871119Y-29893954D02*
X73871119Y-29798716D01*
X73871119Y-29798716D02*
X73823500Y-29655859D01*
X73823500Y-29655859D02*
X73775880Y-29608240D01*
X73775880Y-29608240D02*
X73442547Y-29608240D01*
X73442547Y-29608240D02*
X73442547Y-29798716D01*
X73871119Y-29179668D02*
X72871119Y-29179668D01*
X72871119Y-29179668D02*
X73871119Y-28608240D01*
X73871119Y-28608240D02*
X72871119Y-28608240D01*
X73871119Y-28132049D02*
X72871119Y-28132049D01*
X72871119Y-28132049D02*
X72871119Y-27893954D01*
X72871119Y-27893954D02*
X72918738Y-27751097D01*
X72918738Y-27751097D02*
X73013976Y-27655859D01*
X73013976Y-27655859D02*
X73109214Y-27608240D01*
X73109214Y-27608240D02*
X73299690Y-27560621D01*
X73299690Y-27560621D02*
X73442547Y-27560621D01*
X73442547Y-27560621D02*
X73633023Y-27608240D01*
X73633023Y-27608240D02*
X73728261Y-27655859D01*
X73728261Y-27655859D02*
X73823500Y-27751097D01*
X73823500Y-27751097D02*
X73871119Y-27893954D01*
X73871119Y-27893954D02*
X73871119Y-28132049D01*
X78472712Y-50307640D02*
X78472712Y-49507640D01*
X78472712Y-49507640D02*
X78739378Y-50079068D01*
X78739378Y-50079068D02*
X79006045Y-49507640D01*
X79006045Y-49507640D02*
X79006045Y-50307640D01*
X79844141Y-50231449D02*
X79806045Y-50269545D01*
X79806045Y-50269545D02*
X79691760Y-50307640D01*
X79691760Y-50307640D02*
X79615569Y-50307640D01*
X79615569Y-50307640D02*
X79501283Y-50269545D01*
X79501283Y-50269545D02*
X79425093Y-50193354D01*
X79425093Y-50193354D02*
X79386998Y-50117164D01*
X79386998Y-50117164D02*
X79348902Y-49964783D01*
X79348902Y-49964783D02*
X79348902Y-49850497D01*
X79348902Y-49850497D02*
X79386998Y-49698116D01*
X79386998Y-49698116D02*
X79425093Y-49621925D01*
X79425093Y-49621925D02*
X79501283Y-49545735D01*
X79501283Y-49545735D02*
X79615569Y-49507640D01*
X79615569Y-49507640D02*
X79691760Y-49507640D01*
X79691760Y-49507640D02*
X79806045Y-49545735D01*
X79806045Y-49545735D02*
X79844141Y-49583830D01*
X80186998Y-50307640D02*
X80186998Y-49507640D01*
X80186998Y-49507640D02*
X80491760Y-49507640D01*
X80491760Y-49507640D02*
X80567950Y-49545735D01*
X80567950Y-49545735D02*
X80606045Y-49583830D01*
X80606045Y-49583830D02*
X80644141Y-49660021D01*
X80644141Y-49660021D02*
X80644141Y-49774306D01*
X80644141Y-49774306D02*
X80606045Y-49850497D01*
X80606045Y-49850497D02*
X80567950Y-49888592D01*
X80567950Y-49888592D02*
X80491760Y-49926687D01*
X80491760Y-49926687D02*
X80186998Y-49926687D01*
X81406045Y-50307640D02*
X80948902Y-50307640D01*
X81177474Y-50307640D02*
X81177474Y-49507640D01*
X81177474Y-49507640D02*
X81101283Y-49621925D01*
X81101283Y-49621925D02*
X81025093Y-49698116D01*
X81025093Y-49698116D02*
X80948902Y-49736211D01*
X81672712Y-49507640D02*
X82206046Y-49507640D01*
X82206046Y-49507640D02*
X81863188Y-50307640D01*
X82663189Y-49507640D02*
X82739379Y-49507640D01*
X82739379Y-49507640D02*
X82815570Y-49545735D01*
X82815570Y-49545735D02*
X82853665Y-49583830D01*
X82853665Y-49583830D02*
X82891760Y-49660021D01*
X82891760Y-49660021D02*
X82929855Y-49812402D01*
X82929855Y-49812402D02*
X82929855Y-50002878D01*
X82929855Y-50002878D02*
X82891760Y-50155259D01*
X82891760Y-50155259D02*
X82853665Y-50231449D01*
X82853665Y-50231449D02*
X82815570Y-50269545D01*
X82815570Y-50269545D02*
X82739379Y-50307640D01*
X82739379Y-50307640D02*
X82663189Y-50307640D01*
X82663189Y-50307640D02*
X82586998Y-50269545D01*
X82586998Y-50269545D02*
X82548903Y-50231449D01*
X82548903Y-50231449D02*
X82510808Y-50155259D01*
X82510808Y-50155259D02*
X82472712Y-50002878D01*
X82472712Y-50002878D02*
X82472712Y-49812402D01*
X82472712Y-49812402D02*
X82510808Y-49660021D01*
X82510808Y-49660021D02*
X82548903Y-49583830D01*
X82548903Y-49583830D02*
X82586998Y-49545735D01*
X82586998Y-49545735D02*
X82663189Y-49507640D01*
X83691760Y-50307640D02*
X83234617Y-50307640D01*
X83463189Y-50307640D02*
X83463189Y-49507640D01*
X83463189Y-49507640D02*
X83386998Y-49621925D01*
X83386998Y-49621925D02*
X83310808Y-49698116D01*
X83310808Y-49698116D02*
X83234617Y-49736211D01*
X83920332Y-49507640D02*
X84377475Y-49507640D01*
X84148903Y-50307640D02*
X84148903Y-49507640D01*
X78396521Y-50795595D02*
X78891759Y-50795595D01*
X78891759Y-50795595D02*
X78625093Y-51100357D01*
X78625093Y-51100357D02*
X78739378Y-51100357D01*
X78739378Y-51100357D02*
X78815569Y-51138452D01*
X78815569Y-51138452D02*
X78853664Y-51176547D01*
X78853664Y-51176547D02*
X78891759Y-51252738D01*
X78891759Y-51252738D02*
X78891759Y-51443214D01*
X78891759Y-51443214D02*
X78853664Y-51519404D01*
X78853664Y-51519404D02*
X78815569Y-51557500D01*
X78815569Y-51557500D02*
X78739378Y-51595595D01*
X78739378Y-51595595D02*
X78510807Y-51595595D01*
X78510807Y-51595595D02*
X78434616Y-51557500D01*
X78434616Y-51557500D02*
X78396521Y-51519404D01*
X79158426Y-50795595D02*
X79653664Y-50795595D01*
X79653664Y-50795595D02*
X79386998Y-51100357D01*
X79386998Y-51100357D02*
X79501283Y-51100357D01*
X79501283Y-51100357D02*
X79577474Y-51138452D01*
X79577474Y-51138452D02*
X79615569Y-51176547D01*
X79615569Y-51176547D02*
X79653664Y-51252738D01*
X79653664Y-51252738D02*
X79653664Y-51443214D01*
X79653664Y-51443214D02*
X79615569Y-51519404D01*
X79615569Y-51519404D02*
X79577474Y-51557500D01*
X79577474Y-51557500D02*
X79501283Y-51595595D01*
X79501283Y-51595595D02*
X79272712Y-51595595D01*
X79272712Y-51595595D02*
X79196521Y-51557500D01*
X79196521Y-51557500D02*
X79158426Y-51519404D01*
X80148903Y-50795595D02*
X80225093Y-50795595D01*
X80225093Y-50795595D02*
X80301284Y-50833690D01*
X80301284Y-50833690D02*
X80339379Y-50871785D01*
X80339379Y-50871785D02*
X80377474Y-50947976D01*
X80377474Y-50947976D02*
X80415569Y-51100357D01*
X80415569Y-51100357D02*
X80415569Y-51290833D01*
X80415569Y-51290833D02*
X80377474Y-51443214D01*
X80377474Y-51443214D02*
X80339379Y-51519404D01*
X80339379Y-51519404D02*
X80301284Y-51557500D01*
X80301284Y-51557500D02*
X80225093Y-51595595D01*
X80225093Y-51595595D02*
X80148903Y-51595595D01*
X80148903Y-51595595D02*
X80072712Y-51557500D01*
X80072712Y-51557500D02*
X80034617Y-51519404D01*
X80034617Y-51519404D02*
X79996522Y-51443214D01*
X79996522Y-51443214D02*
X79958426Y-51290833D01*
X79958426Y-51290833D02*
X79958426Y-51100357D01*
X79958426Y-51100357D02*
X79996522Y-50947976D01*
X79996522Y-50947976D02*
X80034617Y-50871785D01*
X80034617Y-50871785D02*
X80072712Y-50833690D01*
X80072712Y-50833690D02*
X80148903Y-50795595D01*
X80720331Y-50871785D02*
X80758427Y-50833690D01*
X80758427Y-50833690D02*
X80834617Y-50795595D01*
X80834617Y-50795595D02*
X81025093Y-50795595D01*
X81025093Y-50795595D02*
X81101284Y-50833690D01*
X81101284Y-50833690D02*
X81139379Y-50871785D01*
X81139379Y-50871785D02*
X81177474Y-50947976D01*
X81177474Y-50947976D02*
X81177474Y-51024166D01*
X81177474Y-51024166D02*
X81139379Y-51138452D01*
X81139379Y-51138452D02*
X80682236Y-51595595D01*
X80682236Y-51595595D02*
X81177474Y-51595595D01*
X81520332Y-51176547D02*
X81786998Y-51176547D01*
X81901284Y-51595595D02*
X81520332Y-51595595D01*
X81520332Y-51595595D02*
X81520332Y-50795595D01*
X81520332Y-50795595D02*
X81901284Y-50795595D01*
X92220331Y-51171119D02*
X92220331Y-50171119D01*
X92220331Y-50171119D02*
X92458426Y-50171119D01*
X92458426Y-50171119D02*
X92601283Y-50218738D01*
X92601283Y-50218738D02*
X92696521Y-50313976D01*
X92696521Y-50313976D02*
X92744140Y-50409214D01*
X92744140Y-50409214D02*
X92791759Y-50599690D01*
X92791759Y-50599690D02*
X92791759Y-50742547D01*
X92791759Y-50742547D02*
X92744140Y-50933023D01*
X92744140Y-50933023D02*
X92696521Y-51028261D01*
X92696521Y-51028261D02*
X92601283Y-51123500D01*
X92601283Y-51123500D02*
X92458426Y-51171119D01*
X92458426Y-51171119D02*
X92220331Y-51171119D01*
X93125093Y-50171119D02*
X93363188Y-51171119D01*
X93363188Y-51171119D02*
X93553664Y-50456833D01*
X93553664Y-50456833D02*
X93744140Y-51171119D01*
X93744140Y-51171119D02*
X93982236Y-50171119D01*
X94553664Y-50171119D02*
X94648902Y-50171119D01*
X94648902Y-50171119D02*
X94744140Y-50218738D01*
X94744140Y-50218738D02*
X94791759Y-50266357D01*
X94791759Y-50266357D02*
X94839378Y-50361595D01*
X94839378Y-50361595D02*
X94886997Y-50552071D01*
X94886997Y-50552071D02*
X94886997Y-50790166D01*
X94886997Y-50790166D02*
X94839378Y-50980642D01*
X94839378Y-50980642D02*
X94791759Y-51075880D01*
X94791759Y-51075880D02*
X94744140Y-51123500D01*
X94744140Y-51123500D02*
X94648902Y-51171119D01*
X94648902Y-51171119D02*
X94553664Y-51171119D01*
X94553664Y-51171119D02*
X94458426Y-51123500D01*
X94458426Y-51123500D02*
X94410807Y-51075880D01*
X94410807Y-51075880D02*
X94363188Y-50980642D01*
X94363188Y-50980642D02*
X94315569Y-50790166D01*
X94315569Y-50790166D02*
X94315569Y-50552071D01*
X94315569Y-50552071D02*
X94363188Y-50361595D01*
X94363188Y-50361595D02*
X94410807Y-50266357D01*
X94410807Y-50266357D02*
X94458426Y-50218738D01*
X94458426Y-50218738D02*
X94553664Y-50171119D01*
X95839378Y-51171119D02*
X95267950Y-51171119D01*
X95553664Y-51171119D02*
X95553664Y-50171119D01*
X95553664Y-50171119D02*
X95458426Y-50313976D01*
X95458426Y-50313976D02*
X95363188Y-50409214D01*
X95363188Y-50409214D02*
X95267950Y-50456833D01*
X91953664Y-61847309D02*
X91620331Y-61847309D01*
X91620331Y-62371119D02*
X91620331Y-61371119D01*
X91620331Y-61371119D02*
X92096521Y-61371119D01*
X92429855Y-62323500D02*
X92572712Y-62371119D01*
X92572712Y-62371119D02*
X92810807Y-62371119D01*
X92810807Y-62371119D02*
X92906045Y-62323500D01*
X92906045Y-62323500D02*
X92953664Y-62275880D01*
X92953664Y-62275880D02*
X93001283Y-62180642D01*
X93001283Y-62180642D02*
X93001283Y-62085404D01*
X93001283Y-62085404D02*
X92953664Y-61990166D01*
X92953664Y-61990166D02*
X92906045Y-61942547D01*
X92906045Y-61942547D02*
X92810807Y-61894928D01*
X92810807Y-61894928D02*
X92620331Y-61847309D01*
X92620331Y-61847309D02*
X92525093Y-61799690D01*
X92525093Y-61799690D02*
X92477474Y-61752071D01*
X92477474Y-61752071D02*
X92429855Y-61656833D01*
X92429855Y-61656833D02*
X92429855Y-61561595D01*
X92429855Y-61561595D02*
X92477474Y-61466357D01*
X92477474Y-61466357D02*
X92525093Y-61418738D01*
X92525093Y-61418738D02*
X92620331Y-61371119D01*
X92620331Y-61371119D02*
X92858426Y-61371119D01*
X92858426Y-61371119D02*
X93001283Y-61418738D01*
X93572712Y-61799690D02*
X93477474Y-61752071D01*
X93477474Y-61752071D02*
X93429855Y-61704452D01*
X93429855Y-61704452D02*
X93382236Y-61609214D01*
X93382236Y-61609214D02*
X93382236Y-61561595D01*
X93382236Y-61561595D02*
X93429855Y-61466357D01*
X93429855Y-61466357D02*
X93477474Y-61418738D01*
X93477474Y-61418738D02*
X93572712Y-61371119D01*
X93572712Y-61371119D02*
X93763188Y-61371119D01*
X93763188Y-61371119D02*
X93858426Y-61418738D01*
X93858426Y-61418738D02*
X93906045Y-61466357D01*
X93906045Y-61466357D02*
X93953664Y-61561595D01*
X93953664Y-61561595D02*
X93953664Y-61609214D01*
X93953664Y-61609214D02*
X93906045Y-61704452D01*
X93906045Y-61704452D02*
X93858426Y-61752071D01*
X93858426Y-61752071D02*
X93763188Y-61799690D01*
X93763188Y-61799690D02*
X93572712Y-61799690D01*
X93572712Y-61799690D02*
X93477474Y-61847309D01*
X93477474Y-61847309D02*
X93429855Y-61894928D01*
X93429855Y-61894928D02*
X93382236Y-61990166D01*
X93382236Y-61990166D02*
X93382236Y-62180642D01*
X93382236Y-62180642D02*
X93429855Y-62275880D01*
X93429855Y-62275880D02*
X93477474Y-62323500D01*
X93477474Y-62323500D02*
X93572712Y-62371119D01*
X93572712Y-62371119D02*
X93763188Y-62371119D01*
X93763188Y-62371119D02*
X93858426Y-62323500D01*
X93858426Y-62323500D02*
X93906045Y-62275880D01*
X93906045Y-62275880D02*
X93953664Y-62180642D01*
X93953664Y-62180642D02*
X93953664Y-61990166D01*
X93953664Y-61990166D02*
X93906045Y-61894928D01*
X93906045Y-61894928D02*
X93858426Y-61847309D01*
X93858426Y-61847309D02*
X93763188Y-61799690D01*
X94334617Y-61466357D02*
X94382236Y-61418738D01*
X94382236Y-61418738D02*
X94477474Y-61371119D01*
X94477474Y-61371119D02*
X94715569Y-61371119D01*
X94715569Y-61371119D02*
X94810807Y-61418738D01*
X94810807Y-61418738D02*
X94858426Y-61466357D01*
X94858426Y-61466357D02*
X94906045Y-61561595D01*
X94906045Y-61561595D02*
X94906045Y-61656833D01*
X94906045Y-61656833D02*
X94858426Y-61799690D01*
X94858426Y-61799690D02*
X94286998Y-62371119D01*
X94286998Y-62371119D02*
X94906045Y-62371119D01*
X95525093Y-61371119D02*
X95620331Y-61371119D01*
X95620331Y-61371119D02*
X95715569Y-61418738D01*
X95715569Y-61418738D02*
X95763188Y-61466357D01*
X95763188Y-61466357D02*
X95810807Y-61561595D01*
X95810807Y-61561595D02*
X95858426Y-61752071D01*
X95858426Y-61752071D02*
X95858426Y-61990166D01*
X95858426Y-61990166D02*
X95810807Y-62180642D01*
X95810807Y-62180642D02*
X95763188Y-62275880D01*
X95763188Y-62275880D02*
X95715569Y-62323500D01*
X95715569Y-62323500D02*
X95620331Y-62371119D01*
X95620331Y-62371119D02*
X95525093Y-62371119D01*
X95525093Y-62371119D02*
X95429855Y-62323500D01*
X95429855Y-62323500D02*
X95382236Y-62275880D01*
X95382236Y-62275880D02*
X95334617Y-62180642D01*
X95334617Y-62180642D02*
X95286998Y-61990166D01*
X95286998Y-61990166D02*
X95286998Y-61752071D01*
X95286998Y-61752071D02*
X95334617Y-61561595D01*
X95334617Y-61561595D02*
X95382236Y-61466357D01*
X95382236Y-61466357D02*
X95429855Y-61418738D01*
X95429855Y-61418738D02*
X95525093Y-61371119D01*
X96763188Y-61371119D02*
X96286998Y-61371119D01*
X96286998Y-61371119D02*
X96239379Y-61847309D01*
X96239379Y-61847309D02*
X96286998Y-61799690D01*
X96286998Y-61799690D02*
X96382236Y-61752071D01*
X96382236Y-61752071D02*
X96620331Y-61752071D01*
X96620331Y-61752071D02*
X96715569Y-61799690D01*
X96715569Y-61799690D02*
X96763188Y-61847309D01*
X96763188Y-61847309D02*
X96810807Y-61942547D01*
X96810807Y-61942547D02*
X96810807Y-62180642D01*
X96810807Y-62180642D02*
X96763188Y-62275880D01*
X96763188Y-62275880D02*
X96715569Y-62323500D01*
X96715569Y-62323500D02*
X96620331Y-62371119D01*
X96620331Y-62371119D02*
X96382236Y-62371119D01*
X96382236Y-62371119D02*
X96286998Y-62323500D01*
X96286998Y-62323500D02*
X96239379Y-62275880D01*
X97191760Y-62085404D02*
X97667950Y-62085404D01*
X97096522Y-62371119D02*
X97429855Y-61371119D01*
X97429855Y-61371119D02*
X97763188Y-62371119D01*
X103458426Y-43595595D02*
X103725093Y-44395595D01*
X103725093Y-44395595D02*
X103991759Y-43595595D01*
X104715569Y-44319404D02*
X104677473Y-44357500D01*
X104677473Y-44357500D02*
X104563188Y-44395595D01*
X104563188Y-44395595D02*
X104486997Y-44395595D01*
X104486997Y-44395595D02*
X104372711Y-44357500D01*
X104372711Y-44357500D02*
X104296521Y-44281309D01*
X104296521Y-44281309D02*
X104258426Y-44205119D01*
X104258426Y-44205119D02*
X104220330Y-44052738D01*
X104220330Y-44052738D02*
X104220330Y-43938452D01*
X104220330Y-43938452D02*
X104258426Y-43786071D01*
X104258426Y-43786071D02*
X104296521Y-43709880D01*
X104296521Y-43709880D02*
X104372711Y-43633690D01*
X104372711Y-43633690D02*
X104486997Y-43595595D01*
X104486997Y-43595595D02*
X104563188Y-43595595D01*
X104563188Y-43595595D02*
X104677473Y-43633690D01*
X104677473Y-43633690D02*
X104715569Y-43671785D01*
X105515569Y-44319404D02*
X105477473Y-44357500D01*
X105477473Y-44357500D02*
X105363188Y-44395595D01*
X105363188Y-44395595D02*
X105286997Y-44395595D01*
X105286997Y-44395595D02*
X105172711Y-44357500D01*
X105172711Y-44357500D02*
X105096521Y-44281309D01*
X105096521Y-44281309D02*
X105058426Y-44205119D01*
X105058426Y-44205119D02*
X105020330Y-44052738D01*
X105020330Y-44052738D02*
X105020330Y-43938452D01*
X105020330Y-43938452D02*
X105058426Y-43786071D01*
X105058426Y-43786071D02*
X105096521Y-43709880D01*
X105096521Y-43709880D02*
X105172711Y-43633690D01*
X105172711Y-43633690D02*
X105286997Y-43595595D01*
X105286997Y-43595595D02*
X105363188Y-43595595D01*
X105363188Y-43595595D02*
X105477473Y-43633690D01*
X105477473Y-43633690D02*
X105515569Y-43671785D01*
X103891759Y-42433690D02*
X103815569Y-42395595D01*
X103815569Y-42395595D02*
X103701283Y-42395595D01*
X103701283Y-42395595D02*
X103586997Y-42433690D01*
X103586997Y-42433690D02*
X103510807Y-42509880D01*
X103510807Y-42509880D02*
X103472712Y-42586071D01*
X103472712Y-42586071D02*
X103434616Y-42738452D01*
X103434616Y-42738452D02*
X103434616Y-42852738D01*
X103434616Y-42852738D02*
X103472712Y-43005119D01*
X103472712Y-43005119D02*
X103510807Y-43081309D01*
X103510807Y-43081309D02*
X103586997Y-43157500D01*
X103586997Y-43157500D02*
X103701283Y-43195595D01*
X103701283Y-43195595D02*
X103777474Y-43195595D01*
X103777474Y-43195595D02*
X103891759Y-43157500D01*
X103891759Y-43157500D02*
X103929855Y-43119404D01*
X103929855Y-43119404D02*
X103929855Y-42852738D01*
X103929855Y-42852738D02*
X103777474Y-42852738D01*
X104272712Y-43195595D02*
X104272712Y-42395595D01*
X104272712Y-42395595D02*
X104729855Y-43195595D01*
X104729855Y-43195595D02*
X104729855Y-42395595D01*
X105110807Y-43195595D02*
X105110807Y-42395595D01*
X105110807Y-42395595D02*
X105301283Y-42395595D01*
X105301283Y-42395595D02*
X105415569Y-42433690D01*
X105415569Y-42433690D02*
X105491759Y-42509880D01*
X105491759Y-42509880D02*
X105529854Y-42586071D01*
X105529854Y-42586071D02*
X105567950Y-42738452D01*
X105567950Y-42738452D02*
X105567950Y-42852738D01*
X105567950Y-42852738D02*
X105529854Y-43005119D01*
X105529854Y-43005119D02*
X105491759Y-43081309D01*
X105491759Y-43081309D02*
X105415569Y-43157500D01*
X105415569Y-43157500D02*
X105301283Y-43195595D01*
X105301283Y-43195595D02*
X105110807Y-43195595D01*
X104615569Y-38362261D02*
X104615569Y-38895595D01*
X104425093Y-38057500D02*
X104234616Y-38628928D01*
X104234616Y-38628928D02*
X104729855Y-38628928D01*
X103496521Y-39095595D02*
X103991759Y-39095595D01*
X103991759Y-39095595D02*
X103725093Y-39400357D01*
X103725093Y-39400357D02*
X103839378Y-39400357D01*
X103839378Y-39400357D02*
X103915569Y-39438452D01*
X103915569Y-39438452D02*
X103953664Y-39476547D01*
X103953664Y-39476547D02*
X103991759Y-39552738D01*
X103991759Y-39552738D02*
X103991759Y-39743214D01*
X103991759Y-39743214D02*
X103953664Y-39819404D01*
X103953664Y-39819404D02*
X103915569Y-39857500D01*
X103915569Y-39857500D02*
X103839378Y-39895595D01*
X103839378Y-39895595D02*
X103610807Y-39895595D01*
X103610807Y-39895595D02*
X103534616Y-39857500D01*
X103534616Y-39857500D02*
X103496521Y-39819404D01*
X104234616Y-40171785D02*
X104272712Y-40133690D01*
X104272712Y-40133690D02*
X104348902Y-40095595D01*
X104348902Y-40095595D02*
X104539378Y-40095595D01*
X104539378Y-40095595D02*
X104615569Y-40133690D01*
X104615569Y-40133690D02*
X104653664Y-40171785D01*
X104653664Y-40171785D02*
X104691759Y-40247976D01*
X104691759Y-40247976D02*
X104691759Y-40324166D01*
X104691759Y-40324166D02*
X104653664Y-40438452D01*
X104653664Y-40438452D02*
X104196521Y-40895595D01*
X104196521Y-40895595D02*
X104691759Y-40895595D01*
X104091759Y-41895595D02*
X103634616Y-41895595D01*
X103863188Y-41895595D02*
X103863188Y-41095595D01*
X103863188Y-41095595D02*
X103786997Y-41209880D01*
X103786997Y-41209880D02*
X103710807Y-41286071D01*
X103710807Y-41286071D02*
X103634616Y-41324166D01*
X106649243Y-35012486D02*
X106554005Y-34964867D01*
X106554005Y-34964867D02*
X106411148Y-34964867D01*
X106411148Y-34964867D02*
X106268291Y-35012486D01*
X106268291Y-35012486D02*
X106173053Y-35107724D01*
X106173053Y-35107724D02*
X106125434Y-35202962D01*
X106125434Y-35202962D02*
X106077815Y-35393438D01*
X106077815Y-35393438D02*
X106077815Y-35536295D01*
X106077815Y-35536295D02*
X106125434Y-35726771D01*
X106125434Y-35726771D02*
X106173053Y-35822009D01*
X106173053Y-35822009D02*
X106268291Y-35917248D01*
X106268291Y-35917248D02*
X106411148Y-35964867D01*
X106411148Y-35964867D02*
X106506386Y-35964867D01*
X106506386Y-35964867D02*
X106649243Y-35917248D01*
X106649243Y-35917248D02*
X106696862Y-35869628D01*
X106696862Y-35869628D02*
X106696862Y-35536295D01*
X106696862Y-35536295D02*
X106506386Y-35536295D01*
X107125434Y-35964867D02*
X107125434Y-34964867D01*
X107125434Y-34964867D02*
X107506386Y-34964867D01*
X107506386Y-34964867D02*
X107601624Y-35012486D01*
X107601624Y-35012486D02*
X107649243Y-35060105D01*
X107649243Y-35060105D02*
X107696862Y-35155343D01*
X107696862Y-35155343D02*
X107696862Y-35298200D01*
X107696862Y-35298200D02*
X107649243Y-35393438D01*
X107649243Y-35393438D02*
X107601624Y-35441057D01*
X107601624Y-35441057D02*
X107506386Y-35488676D01*
X107506386Y-35488676D02*
X107125434Y-35488676D01*
X108125434Y-35964867D02*
X108125434Y-34964867D01*
X108792100Y-34964867D02*
X108982576Y-34964867D01*
X108982576Y-34964867D02*
X109077814Y-35012486D01*
X109077814Y-35012486D02*
X109173052Y-35107724D01*
X109173052Y-35107724D02*
X109220671Y-35298200D01*
X109220671Y-35298200D02*
X109220671Y-35631533D01*
X109220671Y-35631533D02*
X109173052Y-35822009D01*
X109173052Y-35822009D02*
X109077814Y-35917248D01*
X109077814Y-35917248D02*
X108982576Y-35964867D01*
X108982576Y-35964867D02*
X108792100Y-35964867D01*
X108792100Y-35964867D02*
X108696862Y-35917248D01*
X108696862Y-35917248D02*
X108601624Y-35822009D01*
X108601624Y-35822009D02*
X108554005Y-35631533D01*
X108554005Y-35631533D02*
X108554005Y-35298200D01*
X108554005Y-35298200D02*
X108601624Y-35107724D01*
X108601624Y-35107724D02*
X108696862Y-35012486D01*
X108696862Y-35012486D02*
X108792100Y-34964867D01*
X109601624Y-35917248D02*
X109696862Y-35964867D01*
X109696862Y-35964867D02*
X109887338Y-35964867D01*
X109887338Y-35964867D02*
X109982576Y-35917248D01*
X109982576Y-35917248D02*
X110030195Y-35822009D01*
X110030195Y-35822009D02*
X110030195Y-35774390D01*
X110030195Y-35774390D02*
X109982576Y-35679152D01*
X109982576Y-35679152D02*
X109887338Y-35631533D01*
X109887338Y-35631533D02*
X109744481Y-35631533D01*
X109744481Y-35631533D02*
X109649243Y-35583914D01*
X109649243Y-35583914D02*
X109601624Y-35488676D01*
X109601624Y-35488676D02*
X109601624Y-35441057D01*
X109601624Y-35441057D02*
X109649243Y-35345819D01*
X109649243Y-35345819D02*
X109744481Y-35298200D01*
X109744481Y-35298200D02*
X109887338Y-35298200D01*
X109887338Y-35298200D02*
X109982576Y-35345819D01*
X104344140Y-49168738D02*
X104248902Y-49121119D01*
X104248902Y-49121119D02*
X104106045Y-49121119D01*
X104106045Y-49121119D02*
X103963188Y-49168738D01*
X103963188Y-49168738D02*
X103867950Y-49263976D01*
X103867950Y-49263976D02*
X103820331Y-49359214D01*
X103820331Y-49359214D02*
X103772712Y-49549690D01*
X103772712Y-49549690D02*
X103772712Y-49692547D01*
X103772712Y-49692547D02*
X103820331Y-49883023D01*
X103820331Y-49883023D02*
X103867950Y-49978261D01*
X103867950Y-49978261D02*
X103963188Y-50073500D01*
X103963188Y-50073500D02*
X104106045Y-50121119D01*
X104106045Y-50121119D02*
X104201283Y-50121119D01*
X104201283Y-50121119D02*
X104344140Y-50073500D01*
X104344140Y-50073500D02*
X104391759Y-50025880D01*
X104391759Y-50025880D02*
X104391759Y-49692547D01*
X104391759Y-49692547D02*
X104201283Y-49692547D01*
X104820331Y-50121119D02*
X104820331Y-49121119D01*
X104820331Y-49121119D02*
X105201283Y-49121119D01*
X105201283Y-49121119D02*
X105296521Y-49168738D01*
X105296521Y-49168738D02*
X105344140Y-49216357D01*
X105344140Y-49216357D02*
X105391759Y-49311595D01*
X105391759Y-49311595D02*
X105391759Y-49454452D01*
X105391759Y-49454452D02*
X105344140Y-49549690D01*
X105344140Y-49549690D02*
X105296521Y-49597309D01*
X105296521Y-49597309D02*
X105201283Y-49644928D01*
X105201283Y-49644928D02*
X104820331Y-49644928D01*
X105820331Y-50121119D02*
X105820331Y-49121119D01*
X106486997Y-49121119D02*
X106677473Y-49121119D01*
X106677473Y-49121119D02*
X106772711Y-49168738D01*
X106772711Y-49168738D02*
X106867949Y-49263976D01*
X106867949Y-49263976D02*
X106915568Y-49454452D01*
X106915568Y-49454452D02*
X106915568Y-49787785D01*
X106915568Y-49787785D02*
X106867949Y-49978261D01*
X106867949Y-49978261D02*
X106772711Y-50073500D01*
X106772711Y-50073500D02*
X106677473Y-50121119D01*
X106677473Y-50121119D02*
X106486997Y-50121119D01*
X106486997Y-50121119D02*
X106391759Y-50073500D01*
X106391759Y-50073500D02*
X106296521Y-49978261D01*
X106296521Y-49978261D02*
X106248902Y-49787785D01*
X106248902Y-49787785D02*
X106248902Y-49454452D01*
X106248902Y-49454452D02*
X106296521Y-49263976D01*
X106296521Y-49263976D02*
X106391759Y-49168738D01*
X106391759Y-49168738D02*
X106486997Y-49121119D01*
X107296521Y-49216357D02*
X107344140Y-49168738D01*
X107344140Y-49168738D02*
X107439378Y-49121119D01*
X107439378Y-49121119D02*
X107677473Y-49121119D01*
X107677473Y-49121119D02*
X107772711Y-49168738D01*
X107772711Y-49168738D02*
X107820330Y-49216357D01*
X107820330Y-49216357D02*
X107867949Y-49311595D01*
X107867949Y-49311595D02*
X107867949Y-49406833D01*
X107867949Y-49406833D02*
X107820330Y-49549690D01*
X107820330Y-49549690D02*
X107248902Y-50121119D01*
X107248902Y-50121119D02*
X107867949Y-50121119D01*
X108725092Y-49454452D02*
X108725092Y-50121119D01*
X108486997Y-49073500D02*
X108248902Y-49787785D01*
X108248902Y-49787785D02*
X108867949Y-49787785D01*
X59594140Y-42418738D02*
X59498902Y-42371119D01*
X59498902Y-42371119D02*
X59356045Y-42371119D01*
X59356045Y-42371119D02*
X59213188Y-42418738D01*
X59213188Y-42418738D02*
X59117950Y-42513976D01*
X59117950Y-42513976D02*
X59070331Y-42609214D01*
X59070331Y-42609214D02*
X59022712Y-42799690D01*
X59022712Y-42799690D02*
X59022712Y-42942547D01*
X59022712Y-42942547D02*
X59070331Y-43133023D01*
X59070331Y-43133023D02*
X59117950Y-43228261D01*
X59117950Y-43228261D02*
X59213188Y-43323500D01*
X59213188Y-43323500D02*
X59356045Y-43371119D01*
X59356045Y-43371119D02*
X59451283Y-43371119D01*
X59451283Y-43371119D02*
X59594140Y-43323500D01*
X59594140Y-43323500D02*
X59641759Y-43275880D01*
X59641759Y-43275880D02*
X59641759Y-42942547D01*
X59641759Y-42942547D02*
X59451283Y-42942547D01*
X60070331Y-43371119D02*
X60070331Y-42371119D01*
X60070331Y-42371119D02*
X60451283Y-42371119D01*
X60451283Y-42371119D02*
X60546521Y-42418738D01*
X60546521Y-42418738D02*
X60594140Y-42466357D01*
X60594140Y-42466357D02*
X60641759Y-42561595D01*
X60641759Y-42561595D02*
X60641759Y-42704452D01*
X60641759Y-42704452D02*
X60594140Y-42799690D01*
X60594140Y-42799690D02*
X60546521Y-42847309D01*
X60546521Y-42847309D02*
X60451283Y-42894928D01*
X60451283Y-42894928D02*
X60070331Y-42894928D01*
X61070331Y-43371119D02*
X61070331Y-42371119D01*
X61736997Y-42371119D02*
X61927473Y-42371119D01*
X61927473Y-42371119D02*
X62022711Y-42418738D01*
X62022711Y-42418738D02*
X62117949Y-42513976D01*
X62117949Y-42513976D02*
X62165568Y-42704452D01*
X62165568Y-42704452D02*
X62165568Y-43037785D01*
X62165568Y-43037785D02*
X62117949Y-43228261D01*
X62117949Y-43228261D02*
X62022711Y-43323500D01*
X62022711Y-43323500D02*
X61927473Y-43371119D01*
X61927473Y-43371119D02*
X61736997Y-43371119D01*
X61736997Y-43371119D02*
X61641759Y-43323500D01*
X61641759Y-43323500D02*
X61546521Y-43228261D01*
X61546521Y-43228261D02*
X61498902Y-43037785D01*
X61498902Y-43037785D02*
X61498902Y-42704452D01*
X61498902Y-42704452D02*
X61546521Y-42513976D01*
X61546521Y-42513976D02*
X61641759Y-42418738D01*
X61641759Y-42418738D02*
X61736997Y-42371119D01*
X63117949Y-43371119D02*
X62546521Y-43371119D01*
X62832235Y-43371119D02*
X62832235Y-42371119D01*
X62832235Y-42371119D02*
X62736997Y-42513976D01*
X62736997Y-42513976D02*
X62641759Y-42609214D01*
X62641759Y-42609214D02*
X62546521Y-42656833D01*
X63451283Y-42371119D02*
X64070330Y-42371119D01*
X64070330Y-42371119D02*
X63736997Y-42752071D01*
X63736997Y-42752071D02*
X63879854Y-42752071D01*
X63879854Y-42752071D02*
X63975092Y-42799690D01*
X63975092Y-42799690D02*
X64022711Y-42847309D01*
X64022711Y-42847309D02*
X64070330Y-42942547D01*
X64070330Y-42942547D02*
X64070330Y-43180642D01*
X64070330Y-43180642D02*
X64022711Y-43275880D01*
X64022711Y-43275880D02*
X63975092Y-43323500D01*
X63975092Y-43323500D02*
X63879854Y-43371119D01*
X63879854Y-43371119D02*
X63594140Y-43371119D01*
X63594140Y-43371119D02*
X63498902Y-43323500D01*
X63498902Y-43323500D02*
X63451283Y-43275880D01*
X59844140Y-33668738D02*
X59748902Y-33621119D01*
X59748902Y-33621119D02*
X59606045Y-33621119D01*
X59606045Y-33621119D02*
X59463188Y-33668738D01*
X59463188Y-33668738D02*
X59367950Y-33763976D01*
X59367950Y-33763976D02*
X59320331Y-33859214D01*
X59320331Y-33859214D02*
X59272712Y-34049690D01*
X59272712Y-34049690D02*
X59272712Y-34192547D01*
X59272712Y-34192547D02*
X59320331Y-34383023D01*
X59320331Y-34383023D02*
X59367950Y-34478261D01*
X59367950Y-34478261D02*
X59463188Y-34573500D01*
X59463188Y-34573500D02*
X59606045Y-34621119D01*
X59606045Y-34621119D02*
X59701283Y-34621119D01*
X59701283Y-34621119D02*
X59844140Y-34573500D01*
X59844140Y-34573500D02*
X59891759Y-34525880D01*
X59891759Y-34525880D02*
X59891759Y-34192547D01*
X59891759Y-34192547D02*
X59701283Y-34192547D01*
X60320331Y-34621119D02*
X60320331Y-33621119D01*
X60320331Y-33621119D02*
X60701283Y-33621119D01*
X60701283Y-33621119D02*
X60796521Y-33668738D01*
X60796521Y-33668738D02*
X60844140Y-33716357D01*
X60844140Y-33716357D02*
X60891759Y-33811595D01*
X60891759Y-33811595D02*
X60891759Y-33954452D01*
X60891759Y-33954452D02*
X60844140Y-34049690D01*
X60844140Y-34049690D02*
X60796521Y-34097309D01*
X60796521Y-34097309D02*
X60701283Y-34144928D01*
X60701283Y-34144928D02*
X60320331Y-34144928D01*
X61320331Y-34621119D02*
X61320331Y-33621119D01*
X61986997Y-33621119D02*
X62177473Y-33621119D01*
X62177473Y-33621119D02*
X62272711Y-33668738D01*
X62272711Y-33668738D02*
X62367949Y-33763976D01*
X62367949Y-33763976D02*
X62415568Y-33954452D01*
X62415568Y-33954452D02*
X62415568Y-34287785D01*
X62415568Y-34287785D02*
X62367949Y-34478261D01*
X62367949Y-34478261D02*
X62272711Y-34573500D01*
X62272711Y-34573500D02*
X62177473Y-34621119D01*
X62177473Y-34621119D02*
X61986997Y-34621119D01*
X61986997Y-34621119D02*
X61891759Y-34573500D01*
X61891759Y-34573500D02*
X61796521Y-34478261D01*
X61796521Y-34478261D02*
X61748902Y-34287785D01*
X61748902Y-34287785D02*
X61748902Y-33954452D01*
X61748902Y-33954452D02*
X61796521Y-33763976D01*
X61796521Y-33763976D02*
X61891759Y-33668738D01*
X61891759Y-33668738D02*
X61986997Y-33621119D01*
X63367949Y-34621119D02*
X62796521Y-34621119D01*
X63082235Y-34621119D02*
X63082235Y-33621119D01*
X63082235Y-33621119D02*
X62986997Y-33763976D01*
X62986997Y-33763976D02*
X62891759Y-33859214D01*
X62891759Y-33859214D02*
X62796521Y-33906833D01*
X63748902Y-33716357D02*
X63796521Y-33668738D01*
X63796521Y-33668738D02*
X63891759Y-33621119D01*
X63891759Y-33621119D02*
X64129854Y-33621119D01*
X64129854Y-33621119D02*
X64225092Y-33668738D01*
X64225092Y-33668738D02*
X64272711Y-33716357D01*
X64272711Y-33716357D02*
X64320330Y-33811595D01*
X64320330Y-33811595D02*
X64320330Y-33906833D01*
X64320330Y-33906833D02*
X64272711Y-34049690D01*
X64272711Y-34049690D02*
X63701283Y-34621119D01*
X63701283Y-34621119D02*
X64320330Y-34621119D01*
X89570331Y-36237365D02*
X89903664Y-36237365D01*
X90046521Y-36761175D02*
X89570331Y-36761175D01*
X89570331Y-36761175D02*
X89570331Y-35761175D01*
X89570331Y-35761175D02*
X90046521Y-35761175D01*
X90427474Y-36713556D02*
X90570331Y-36761175D01*
X90570331Y-36761175D02*
X90808426Y-36761175D01*
X90808426Y-36761175D02*
X90903664Y-36713556D01*
X90903664Y-36713556D02*
X90951283Y-36665936D01*
X90951283Y-36665936D02*
X90998902Y-36570698D01*
X90998902Y-36570698D02*
X90998902Y-36475460D01*
X90998902Y-36475460D02*
X90951283Y-36380222D01*
X90951283Y-36380222D02*
X90903664Y-36332603D01*
X90903664Y-36332603D02*
X90808426Y-36284984D01*
X90808426Y-36284984D02*
X90617950Y-36237365D01*
X90617950Y-36237365D02*
X90522712Y-36189746D01*
X90522712Y-36189746D02*
X90475093Y-36142127D01*
X90475093Y-36142127D02*
X90427474Y-36046889D01*
X90427474Y-36046889D02*
X90427474Y-35951651D01*
X90427474Y-35951651D02*
X90475093Y-35856413D01*
X90475093Y-35856413D02*
X90522712Y-35808794D01*
X90522712Y-35808794D02*
X90617950Y-35761175D01*
X90617950Y-35761175D02*
X90856045Y-35761175D01*
X90856045Y-35761175D02*
X90998902Y-35808794D01*
X91427474Y-36761175D02*
X91427474Y-35761175D01*
X91427474Y-35761175D02*
X91808426Y-35761175D01*
X91808426Y-35761175D02*
X91903664Y-35808794D01*
X91903664Y-35808794D02*
X91951283Y-35856413D01*
X91951283Y-35856413D02*
X91998902Y-35951651D01*
X91998902Y-35951651D02*
X91998902Y-36094508D01*
X91998902Y-36094508D02*
X91951283Y-36189746D01*
X91951283Y-36189746D02*
X91903664Y-36237365D01*
X91903664Y-36237365D02*
X91808426Y-36284984D01*
X91808426Y-36284984D02*
X91427474Y-36284984D01*
X92332236Y-35761175D02*
X92951283Y-35761175D01*
X92951283Y-35761175D02*
X92617950Y-36142127D01*
X92617950Y-36142127D02*
X92760807Y-36142127D01*
X92760807Y-36142127D02*
X92856045Y-36189746D01*
X92856045Y-36189746D02*
X92903664Y-36237365D01*
X92903664Y-36237365D02*
X92951283Y-36332603D01*
X92951283Y-36332603D02*
X92951283Y-36570698D01*
X92951283Y-36570698D02*
X92903664Y-36665936D01*
X92903664Y-36665936D02*
X92856045Y-36713556D01*
X92856045Y-36713556D02*
X92760807Y-36761175D01*
X92760807Y-36761175D02*
X92475093Y-36761175D01*
X92475093Y-36761175D02*
X92379855Y-36713556D01*
X92379855Y-36713556D02*
X92332236Y-36665936D01*
X93332236Y-35856413D02*
X93379855Y-35808794D01*
X93379855Y-35808794D02*
X93475093Y-35761175D01*
X93475093Y-35761175D02*
X93713188Y-35761175D01*
X93713188Y-35761175D02*
X93808426Y-35808794D01*
X93808426Y-35808794D02*
X93856045Y-35856413D01*
X93856045Y-35856413D02*
X93903664Y-35951651D01*
X93903664Y-35951651D02*
X93903664Y-36046889D01*
X93903664Y-36046889D02*
X93856045Y-36189746D01*
X93856045Y-36189746D02*
X93284617Y-36761175D01*
X93284617Y-36761175D02*
X93903664Y-36761175D01*
X94332236Y-36380222D02*
X95094141Y-36380222D01*
X95570331Y-36761175D02*
X95570331Y-35761175D01*
X95570331Y-36237365D02*
X96141759Y-36237365D01*
X96141759Y-36761175D02*
X96141759Y-35761175D01*
X96570331Y-35856413D02*
X96617950Y-35808794D01*
X96617950Y-35808794D02*
X96713188Y-35761175D01*
X96713188Y-35761175D02*
X96951283Y-35761175D01*
X96951283Y-35761175D02*
X97046521Y-35808794D01*
X97046521Y-35808794D02*
X97094140Y-35856413D01*
X97094140Y-35856413D02*
X97141759Y-35951651D01*
X97141759Y-35951651D02*
X97141759Y-36046889D01*
X97141759Y-36046889D02*
X97094140Y-36189746D01*
X97094140Y-36189746D02*
X96522712Y-36761175D01*
X96522712Y-36761175D02*
X97141759Y-36761175D01*
X89522712Y-38323500D02*
X89665569Y-38371119D01*
X89665569Y-38371119D02*
X89903664Y-38371119D01*
X89903664Y-38371119D02*
X89998902Y-38323500D01*
X89998902Y-38323500D02*
X90046521Y-38275880D01*
X90046521Y-38275880D02*
X90094140Y-38180642D01*
X90094140Y-38180642D02*
X90094140Y-38085404D01*
X90094140Y-38085404D02*
X90046521Y-37990166D01*
X90046521Y-37990166D02*
X89998902Y-37942547D01*
X89998902Y-37942547D02*
X89903664Y-37894928D01*
X89903664Y-37894928D02*
X89713188Y-37847309D01*
X89713188Y-37847309D02*
X89617950Y-37799690D01*
X89617950Y-37799690D02*
X89570331Y-37752071D01*
X89570331Y-37752071D02*
X89522712Y-37656833D01*
X89522712Y-37656833D02*
X89522712Y-37561595D01*
X89522712Y-37561595D02*
X89570331Y-37466357D01*
X89570331Y-37466357D02*
X89617950Y-37418738D01*
X89617950Y-37418738D02*
X89713188Y-37371119D01*
X89713188Y-37371119D02*
X89951283Y-37371119D01*
X89951283Y-37371119D02*
X90094140Y-37418738D01*
X90951283Y-37704452D02*
X90951283Y-38371119D01*
X90522712Y-37704452D02*
X90522712Y-38228261D01*
X90522712Y-38228261D02*
X90570331Y-38323500D01*
X90570331Y-38323500D02*
X90665569Y-38371119D01*
X90665569Y-38371119D02*
X90808426Y-38371119D01*
X90808426Y-38371119D02*
X90903664Y-38323500D01*
X90903664Y-38323500D02*
X90951283Y-38275880D01*
X91427474Y-37704452D02*
X91427474Y-38704452D01*
X91427474Y-37752071D02*
X91522712Y-37704452D01*
X91522712Y-37704452D02*
X91713188Y-37704452D01*
X91713188Y-37704452D02*
X91808426Y-37752071D01*
X91808426Y-37752071D02*
X91856045Y-37799690D01*
X91856045Y-37799690D02*
X91903664Y-37894928D01*
X91903664Y-37894928D02*
X91903664Y-38180642D01*
X91903664Y-38180642D02*
X91856045Y-38275880D01*
X91856045Y-38275880D02*
X91808426Y-38323500D01*
X91808426Y-38323500D02*
X91713188Y-38371119D01*
X91713188Y-38371119D02*
X91522712Y-38371119D01*
X91522712Y-38371119D02*
X91427474Y-38323500D01*
X92713188Y-38323500D02*
X92617950Y-38371119D01*
X92617950Y-38371119D02*
X92427474Y-38371119D01*
X92427474Y-38371119D02*
X92332236Y-38323500D01*
X92332236Y-38323500D02*
X92284617Y-38228261D01*
X92284617Y-38228261D02*
X92284617Y-37847309D01*
X92284617Y-37847309D02*
X92332236Y-37752071D01*
X92332236Y-37752071D02*
X92427474Y-37704452D01*
X92427474Y-37704452D02*
X92617950Y-37704452D01*
X92617950Y-37704452D02*
X92713188Y-37752071D01*
X92713188Y-37752071D02*
X92760807Y-37847309D01*
X92760807Y-37847309D02*
X92760807Y-37942547D01*
X92760807Y-37942547D02*
X92284617Y-38037785D01*
X93189379Y-38371119D02*
X93189379Y-37704452D01*
X93189379Y-37894928D02*
X93236998Y-37799690D01*
X93236998Y-37799690D02*
X93284617Y-37752071D01*
X93284617Y-37752071D02*
X93379855Y-37704452D01*
X93379855Y-37704452D02*
X93475093Y-37704452D01*
X93808427Y-38371119D02*
X93808427Y-37704452D01*
X93808427Y-37799690D02*
X93856046Y-37752071D01*
X93856046Y-37752071D02*
X93951284Y-37704452D01*
X93951284Y-37704452D02*
X94094141Y-37704452D01*
X94094141Y-37704452D02*
X94189379Y-37752071D01*
X94189379Y-37752071D02*
X94236998Y-37847309D01*
X94236998Y-37847309D02*
X94236998Y-38371119D01*
X94236998Y-37847309D02*
X94284617Y-37752071D01*
X94284617Y-37752071D02*
X94379855Y-37704452D01*
X94379855Y-37704452D02*
X94522712Y-37704452D01*
X94522712Y-37704452D02*
X94617951Y-37752071D01*
X94617951Y-37752071D02*
X94665570Y-37847309D01*
X94665570Y-37847309D02*
X94665570Y-38371119D01*
X95141760Y-38371119D02*
X95141760Y-37704452D01*
X95141760Y-37371119D02*
X95094141Y-37418738D01*
X95094141Y-37418738D02*
X95141760Y-37466357D01*
X95141760Y-37466357D02*
X95189379Y-37418738D01*
X95189379Y-37418738D02*
X95141760Y-37371119D01*
X95141760Y-37371119D02*
X95141760Y-37466357D01*
X95617950Y-37704452D02*
X95617950Y-38371119D01*
X95617950Y-37799690D02*
X95665569Y-37752071D01*
X95665569Y-37752071D02*
X95760807Y-37704452D01*
X95760807Y-37704452D02*
X95903664Y-37704452D01*
X95903664Y-37704452D02*
X95998902Y-37752071D01*
X95998902Y-37752071D02*
X96046521Y-37847309D01*
X96046521Y-37847309D02*
X96046521Y-38371119D01*
X96522712Y-38371119D02*
X96522712Y-37704452D01*
X96522712Y-37371119D02*
X96475093Y-37418738D01*
X96475093Y-37418738D02*
X96522712Y-37466357D01*
X96522712Y-37466357D02*
X96570331Y-37418738D01*
X96570331Y-37418738D02*
X96522712Y-37371119D01*
X96522712Y-37371119D02*
X96522712Y-37466357D01*
D11*
X59982933Y-57642231D02*
X59982933Y-56118422D01*
X59357768Y-54232933D02*
X60881578Y-54232933D01*
X60119673Y-54994838D02*
X60119673Y-53471028D01*
D10*
X58347309Y-57596335D02*
X58394928Y-57453478D01*
X58394928Y-57453478D02*
X58442547Y-57405859D01*
X58442547Y-57405859D02*
X58537785Y-57358240D01*
X58537785Y-57358240D02*
X58680642Y-57358240D01*
X58680642Y-57358240D02*
X58775880Y-57405859D01*
X58775880Y-57405859D02*
X58823500Y-57453478D01*
X58823500Y-57453478D02*
X58871119Y-57548716D01*
X58871119Y-57548716D02*
X58871119Y-57929668D01*
X58871119Y-57929668D02*
X57871119Y-57929668D01*
X57871119Y-57929668D02*
X57871119Y-57596335D01*
X57871119Y-57596335D02*
X57918738Y-57501097D01*
X57918738Y-57501097D02*
X57966357Y-57453478D01*
X57966357Y-57453478D02*
X58061595Y-57405859D01*
X58061595Y-57405859D02*
X58156833Y-57405859D01*
X58156833Y-57405859D02*
X58252071Y-57453478D01*
X58252071Y-57453478D02*
X58299690Y-57501097D01*
X58299690Y-57501097D02*
X58347309Y-57596335D01*
X58347309Y-57596335D02*
X58347309Y-57929668D01*
X58871119Y-56501097D02*
X58347309Y-56501097D01*
X58347309Y-56501097D02*
X58252071Y-56548716D01*
X58252071Y-56548716D02*
X58204452Y-56643954D01*
X58204452Y-56643954D02*
X58204452Y-56834430D01*
X58204452Y-56834430D02*
X58252071Y-56929668D01*
X58823500Y-56501097D02*
X58871119Y-56596335D01*
X58871119Y-56596335D02*
X58871119Y-56834430D01*
X58871119Y-56834430D02*
X58823500Y-56929668D01*
X58823500Y-56929668D02*
X58728261Y-56977287D01*
X58728261Y-56977287D02*
X58633023Y-56977287D01*
X58633023Y-56977287D02*
X58537785Y-56929668D01*
X58537785Y-56929668D02*
X58490166Y-56834430D01*
X58490166Y-56834430D02*
X58490166Y-56596335D01*
X58490166Y-56596335D02*
X58442547Y-56501097D01*
X58204452Y-56167763D02*
X58204452Y-55786811D01*
X57871119Y-56024906D02*
X58728261Y-56024906D01*
X58728261Y-56024906D02*
X58823500Y-55977287D01*
X58823500Y-55977287D02*
X58871119Y-55882049D01*
X58871119Y-55882049D02*
X58871119Y-55786811D01*
X58204452Y-55596334D02*
X58204452Y-55215382D01*
X57871119Y-55453477D02*
X58728261Y-55453477D01*
X58728261Y-55453477D02*
X58823500Y-55405858D01*
X58823500Y-55405858D02*
X58871119Y-55310620D01*
X58871119Y-55310620D02*
X58871119Y-55215382D01*
X58823500Y-54501096D02*
X58871119Y-54596334D01*
X58871119Y-54596334D02*
X58871119Y-54786810D01*
X58871119Y-54786810D02*
X58823500Y-54882048D01*
X58823500Y-54882048D02*
X58728261Y-54929667D01*
X58728261Y-54929667D02*
X58347309Y-54929667D01*
X58347309Y-54929667D02*
X58252071Y-54882048D01*
X58252071Y-54882048D02*
X58204452Y-54786810D01*
X58204452Y-54786810D02*
X58204452Y-54596334D01*
X58204452Y-54596334D02*
X58252071Y-54501096D01*
X58252071Y-54501096D02*
X58347309Y-54453477D01*
X58347309Y-54453477D02*
X58442547Y-54453477D01*
X58442547Y-54453477D02*
X58537785Y-54929667D01*
X58871119Y-54024905D02*
X58204452Y-54024905D01*
X58394928Y-54024905D02*
X58299690Y-53977286D01*
X58299690Y-53977286D02*
X58252071Y-53929667D01*
X58252071Y-53929667D02*
X58204452Y-53834429D01*
X58204452Y-53834429D02*
X58204452Y-53739191D01*
X58204452Y-53501095D02*
X58871119Y-53263000D01*
X58204452Y-53024905D02*
X58871119Y-53263000D01*
X58871119Y-53263000D02*
X59109214Y-53358238D01*
X59109214Y-53358238D02*
X59156833Y-53405857D01*
X59156833Y-53405857D02*
X59204452Y-53501095D01*
X58871119Y-48679668D02*
X57871119Y-48679668D01*
X57871119Y-48679668D02*
X57871119Y-48298716D01*
X57871119Y-48298716D02*
X57918738Y-48203478D01*
X57918738Y-48203478D02*
X57966357Y-48155859D01*
X57966357Y-48155859D02*
X58061595Y-48108240D01*
X58061595Y-48108240D02*
X58204452Y-48108240D01*
X58204452Y-48108240D02*
X58299690Y-48155859D01*
X58299690Y-48155859D02*
X58347309Y-48203478D01*
X58347309Y-48203478D02*
X58394928Y-48298716D01*
X58394928Y-48298716D02*
X58394928Y-48679668D01*
X58204452Y-47251097D02*
X58871119Y-47251097D01*
X58204452Y-47679668D02*
X58728261Y-47679668D01*
X58728261Y-47679668D02*
X58823500Y-47632049D01*
X58823500Y-47632049D02*
X58871119Y-47536811D01*
X58871119Y-47536811D02*
X58871119Y-47393954D01*
X58871119Y-47393954D02*
X58823500Y-47298716D01*
X58823500Y-47298716D02*
X58775880Y-47251097D01*
X58871119Y-46632049D02*
X58823500Y-46727287D01*
X58823500Y-46727287D02*
X58728261Y-46774906D01*
X58728261Y-46774906D02*
X57871119Y-46774906D01*
X58823500Y-46298715D02*
X58871119Y-46203477D01*
X58871119Y-46203477D02*
X58871119Y-46013001D01*
X58871119Y-46013001D02*
X58823500Y-45917763D01*
X58823500Y-45917763D02*
X58728261Y-45870144D01*
X58728261Y-45870144D02*
X58680642Y-45870144D01*
X58680642Y-45870144D02*
X58585404Y-45917763D01*
X58585404Y-45917763D02*
X58537785Y-46013001D01*
X58537785Y-46013001D02*
X58537785Y-46155858D01*
X58537785Y-46155858D02*
X58490166Y-46251096D01*
X58490166Y-46251096D02*
X58394928Y-46298715D01*
X58394928Y-46298715D02*
X58347309Y-46298715D01*
X58347309Y-46298715D02*
X58252071Y-46251096D01*
X58252071Y-46251096D02*
X58204452Y-46155858D01*
X58204452Y-46155858D02*
X58204452Y-46013001D01*
X58204452Y-46013001D02*
X58252071Y-45917763D01*
X58823500Y-45060620D02*
X58871119Y-45155858D01*
X58871119Y-45155858D02*
X58871119Y-45346334D01*
X58871119Y-45346334D02*
X58823500Y-45441572D01*
X58823500Y-45441572D02*
X58728261Y-45489191D01*
X58728261Y-45489191D02*
X58347309Y-45489191D01*
X58347309Y-45489191D02*
X58252071Y-45441572D01*
X58252071Y-45441572D02*
X58204452Y-45346334D01*
X58204452Y-45346334D02*
X58204452Y-45155858D01*
X58204452Y-45155858D02*
X58252071Y-45060620D01*
X58252071Y-45060620D02*
X58347309Y-45013001D01*
X58347309Y-45013001D02*
X58442547Y-45013001D01*
X58442547Y-45013001D02*
X58537785Y-45489191D01*
X58871119Y-39929668D02*
X57871119Y-39929668D01*
X57871119Y-39929668D02*
X57871119Y-39548716D01*
X57871119Y-39548716D02*
X57918738Y-39453478D01*
X57918738Y-39453478D02*
X57966357Y-39405859D01*
X57966357Y-39405859D02*
X58061595Y-39358240D01*
X58061595Y-39358240D02*
X58204452Y-39358240D01*
X58204452Y-39358240D02*
X58299690Y-39405859D01*
X58299690Y-39405859D02*
X58347309Y-39453478D01*
X58347309Y-39453478D02*
X58394928Y-39548716D01*
X58394928Y-39548716D02*
X58394928Y-39929668D01*
X58204452Y-38501097D02*
X58871119Y-38501097D01*
X58204452Y-38929668D02*
X58728261Y-38929668D01*
X58728261Y-38929668D02*
X58823500Y-38882049D01*
X58823500Y-38882049D02*
X58871119Y-38786811D01*
X58871119Y-38786811D02*
X58871119Y-38643954D01*
X58871119Y-38643954D02*
X58823500Y-38548716D01*
X58823500Y-38548716D02*
X58775880Y-38501097D01*
X58871119Y-37882049D02*
X58823500Y-37977287D01*
X58823500Y-37977287D02*
X58728261Y-38024906D01*
X58728261Y-38024906D02*
X57871119Y-38024906D01*
X58823500Y-37548715D02*
X58871119Y-37453477D01*
X58871119Y-37453477D02*
X58871119Y-37263001D01*
X58871119Y-37263001D02*
X58823500Y-37167763D01*
X58823500Y-37167763D02*
X58728261Y-37120144D01*
X58728261Y-37120144D02*
X58680642Y-37120144D01*
X58680642Y-37120144D02*
X58585404Y-37167763D01*
X58585404Y-37167763D02*
X58537785Y-37263001D01*
X58537785Y-37263001D02*
X58537785Y-37405858D01*
X58537785Y-37405858D02*
X58490166Y-37501096D01*
X58490166Y-37501096D02*
X58394928Y-37548715D01*
X58394928Y-37548715D02*
X58347309Y-37548715D01*
X58347309Y-37548715D02*
X58252071Y-37501096D01*
X58252071Y-37501096D02*
X58204452Y-37405858D01*
X58204452Y-37405858D02*
X58204452Y-37263001D01*
X58204452Y-37263001D02*
X58252071Y-37167763D01*
X58823500Y-36310620D02*
X58871119Y-36405858D01*
X58871119Y-36405858D02*
X58871119Y-36596334D01*
X58871119Y-36596334D02*
X58823500Y-36691572D01*
X58823500Y-36691572D02*
X58728261Y-36739191D01*
X58728261Y-36739191D02*
X58347309Y-36739191D01*
X58347309Y-36739191D02*
X58252071Y-36691572D01*
X58252071Y-36691572D02*
X58204452Y-36596334D01*
X58204452Y-36596334D02*
X58204452Y-36405858D01*
X58204452Y-36405858D02*
X58252071Y-36310620D01*
X58252071Y-36310620D02*
X58347309Y-36263001D01*
X58347309Y-36263001D02*
X58442547Y-36263001D01*
X58442547Y-36263001D02*
X58537785Y-36739191D01*
X68623500Y-39827287D02*
X68671119Y-39684430D01*
X68671119Y-39684430D02*
X68671119Y-39446335D01*
X68671119Y-39446335D02*
X68623500Y-39351097D01*
X68623500Y-39351097D02*
X68575880Y-39303478D01*
X68575880Y-39303478D02*
X68480642Y-39255859D01*
X68480642Y-39255859D02*
X68385404Y-39255859D01*
X68385404Y-39255859D02*
X68290166Y-39303478D01*
X68290166Y-39303478D02*
X68242547Y-39351097D01*
X68242547Y-39351097D02*
X68194928Y-39446335D01*
X68194928Y-39446335D02*
X68147309Y-39636811D01*
X68147309Y-39636811D02*
X68099690Y-39732049D01*
X68099690Y-39732049D02*
X68052071Y-39779668D01*
X68052071Y-39779668D02*
X67956833Y-39827287D01*
X67956833Y-39827287D02*
X67861595Y-39827287D01*
X67861595Y-39827287D02*
X67766357Y-39779668D01*
X67766357Y-39779668D02*
X67718738Y-39732049D01*
X67718738Y-39732049D02*
X67671119Y-39636811D01*
X67671119Y-39636811D02*
X67671119Y-39398716D01*
X67671119Y-39398716D02*
X67718738Y-39255859D01*
X68575880Y-38255859D02*
X68623500Y-38303478D01*
X68623500Y-38303478D02*
X68671119Y-38446335D01*
X68671119Y-38446335D02*
X68671119Y-38541573D01*
X68671119Y-38541573D02*
X68623500Y-38684430D01*
X68623500Y-38684430D02*
X68528261Y-38779668D01*
X68528261Y-38779668D02*
X68433023Y-38827287D01*
X68433023Y-38827287D02*
X68242547Y-38874906D01*
X68242547Y-38874906D02*
X68099690Y-38874906D01*
X68099690Y-38874906D02*
X67909214Y-38827287D01*
X67909214Y-38827287D02*
X67813976Y-38779668D01*
X67813976Y-38779668D02*
X67718738Y-38684430D01*
X67718738Y-38684430D02*
X67671119Y-38541573D01*
X67671119Y-38541573D02*
X67671119Y-38446335D01*
X67671119Y-38446335D02*
X67718738Y-38303478D01*
X67718738Y-38303478D02*
X67766357Y-38255859D01*
X68671119Y-37351097D02*
X68671119Y-37827287D01*
X68671119Y-37827287D02*
X67671119Y-37827287D01*
X73623500Y-39927287D02*
X73671119Y-39784430D01*
X73671119Y-39784430D02*
X73671119Y-39546335D01*
X73671119Y-39546335D02*
X73623500Y-39451097D01*
X73623500Y-39451097D02*
X73575880Y-39403478D01*
X73575880Y-39403478D02*
X73480642Y-39355859D01*
X73480642Y-39355859D02*
X73385404Y-39355859D01*
X73385404Y-39355859D02*
X73290166Y-39403478D01*
X73290166Y-39403478D02*
X73242547Y-39451097D01*
X73242547Y-39451097D02*
X73194928Y-39546335D01*
X73194928Y-39546335D02*
X73147309Y-39736811D01*
X73147309Y-39736811D02*
X73099690Y-39832049D01*
X73099690Y-39832049D02*
X73052071Y-39879668D01*
X73052071Y-39879668D02*
X72956833Y-39927287D01*
X72956833Y-39927287D02*
X72861595Y-39927287D01*
X72861595Y-39927287D02*
X72766357Y-39879668D01*
X72766357Y-39879668D02*
X72718738Y-39832049D01*
X72718738Y-39832049D02*
X72671119Y-39736811D01*
X72671119Y-39736811D02*
X72671119Y-39498716D01*
X72671119Y-39498716D02*
X72718738Y-39355859D01*
X73671119Y-38927287D02*
X72671119Y-38927287D01*
X72671119Y-38927287D02*
X72671119Y-38689192D01*
X72671119Y-38689192D02*
X72718738Y-38546335D01*
X72718738Y-38546335D02*
X72813976Y-38451097D01*
X72813976Y-38451097D02*
X72909214Y-38403478D01*
X72909214Y-38403478D02*
X73099690Y-38355859D01*
X73099690Y-38355859D02*
X73242547Y-38355859D01*
X73242547Y-38355859D02*
X73433023Y-38403478D01*
X73433023Y-38403478D02*
X73528261Y-38451097D01*
X73528261Y-38451097D02*
X73623500Y-38546335D01*
X73623500Y-38546335D02*
X73671119Y-38689192D01*
X73671119Y-38689192D02*
X73671119Y-38927287D01*
X73385404Y-37974906D02*
X73385404Y-37498716D01*
X73671119Y-38070144D02*
X72671119Y-37736811D01*
X72671119Y-37736811D02*
X73671119Y-37403478D01*
X71123500Y-30027287D02*
X71171119Y-29884430D01*
X71171119Y-29884430D02*
X71171119Y-29646335D01*
X71171119Y-29646335D02*
X71123500Y-29551097D01*
X71123500Y-29551097D02*
X71075880Y-29503478D01*
X71075880Y-29503478D02*
X70980642Y-29455859D01*
X70980642Y-29455859D02*
X70885404Y-29455859D01*
X70885404Y-29455859D02*
X70790166Y-29503478D01*
X70790166Y-29503478D02*
X70742547Y-29551097D01*
X70742547Y-29551097D02*
X70694928Y-29646335D01*
X70694928Y-29646335D02*
X70647309Y-29836811D01*
X70647309Y-29836811D02*
X70599690Y-29932049D01*
X70599690Y-29932049D02*
X70552071Y-29979668D01*
X70552071Y-29979668D02*
X70456833Y-30027287D01*
X70456833Y-30027287D02*
X70361595Y-30027287D01*
X70361595Y-30027287D02*
X70266357Y-29979668D01*
X70266357Y-29979668D02*
X70218738Y-29932049D01*
X70218738Y-29932049D02*
X70171119Y-29836811D01*
X70171119Y-29836811D02*
X70171119Y-29598716D01*
X70171119Y-29598716D02*
X70218738Y-29455859D01*
X71075880Y-28455859D02*
X71123500Y-28503478D01*
X71123500Y-28503478D02*
X71171119Y-28646335D01*
X71171119Y-28646335D02*
X71171119Y-28741573D01*
X71171119Y-28741573D02*
X71123500Y-28884430D01*
X71123500Y-28884430D02*
X71028261Y-28979668D01*
X71028261Y-28979668D02*
X70933023Y-29027287D01*
X70933023Y-29027287D02*
X70742547Y-29074906D01*
X70742547Y-29074906D02*
X70599690Y-29074906D01*
X70599690Y-29074906D02*
X70409214Y-29027287D01*
X70409214Y-29027287D02*
X70313976Y-28979668D01*
X70313976Y-28979668D02*
X70218738Y-28884430D01*
X70218738Y-28884430D02*
X70171119Y-28741573D01*
X70171119Y-28741573D02*
X70171119Y-28646335D01*
X70171119Y-28646335D02*
X70218738Y-28503478D01*
X70218738Y-28503478D02*
X70266357Y-28455859D01*
X71171119Y-27551097D02*
X71171119Y-28027287D01*
X71171119Y-28027287D02*
X70171119Y-28027287D01*
X68523500Y-30027287D02*
X68571119Y-29884430D01*
X68571119Y-29884430D02*
X68571119Y-29646335D01*
X68571119Y-29646335D02*
X68523500Y-29551097D01*
X68523500Y-29551097D02*
X68475880Y-29503478D01*
X68475880Y-29503478D02*
X68380642Y-29455859D01*
X68380642Y-29455859D02*
X68285404Y-29455859D01*
X68285404Y-29455859D02*
X68190166Y-29503478D01*
X68190166Y-29503478D02*
X68142547Y-29551097D01*
X68142547Y-29551097D02*
X68094928Y-29646335D01*
X68094928Y-29646335D02*
X68047309Y-29836811D01*
X68047309Y-29836811D02*
X67999690Y-29932049D01*
X67999690Y-29932049D02*
X67952071Y-29979668D01*
X67952071Y-29979668D02*
X67856833Y-30027287D01*
X67856833Y-30027287D02*
X67761595Y-30027287D01*
X67761595Y-30027287D02*
X67666357Y-29979668D01*
X67666357Y-29979668D02*
X67618738Y-29932049D01*
X67618738Y-29932049D02*
X67571119Y-29836811D01*
X67571119Y-29836811D02*
X67571119Y-29598716D01*
X67571119Y-29598716D02*
X67618738Y-29455859D01*
X68571119Y-29027287D02*
X67571119Y-29027287D01*
X67571119Y-29027287D02*
X67571119Y-28789192D01*
X67571119Y-28789192D02*
X67618738Y-28646335D01*
X67618738Y-28646335D02*
X67713976Y-28551097D01*
X67713976Y-28551097D02*
X67809214Y-28503478D01*
X67809214Y-28503478D02*
X67999690Y-28455859D01*
X67999690Y-28455859D02*
X68142547Y-28455859D01*
X68142547Y-28455859D02*
X68333023Y-28503478D01*
X68333023Y-28503478D02*
X68428261Y-28551097D01*
X68428261Y-28551097D02*
X68523500Y-28646335D01*
X68523500Y-28646335D02*
X68571119Y-28789192D01*
X68571119Y-28789192D02*
X68571119Y-29027287D01*
X68285404Y-28074906D02*
X68285404Y-27598716D01*
X68571119Y-28170144D02*
X67571119Y-27836811D01*
X67571119Y-27836811D02*
X68571119Y-27503478D01*
X101272712Y-52395595D02*
X101272712Y-51595595D01*
X101272712Y-51595595D02*
X101463188Y-51595595D01*
X101463188Y-51595595D02*
X101577474Y-51633690D01*
X101577474Y-51633690D02*
X101653664Y-51709880D01*
X101653664Y-51709880D02*
X101691759Y-51786071D01*
X101691759Y-51786071D02*
X101729855Y-51938452D01*
X101729855Y-51938452D02*
X101729855Y-52052738D01*
X101729855Y-52052738D02*
X101691759Y-52205119D01*
X101691759Y-52205119D02*
X101653664Y-52281309D01*
X101653664Y-52281309D02*
X101577474Y-52357500D01*
X101577474Y-52357500D02*
X101463188Y-52395595D01*
X101463188Y-52395595D02*
X101272712Y-52395595D01*
X102606045Y-52471785D02*
X102529855Y-52433690D01*
X102529855Y-52433690D02*
X102453664Y-52357500D01*
X102453664Y-52357500D02*
X102339378Y-52243214D01*
X102339378Y-52243214D02*
X102263188Y-52205119D01*
X102263188Y-52205119D02*
X102186997Y-52205119D01*
X102225093Y-52395595D02*
X102148902Y-52357500D01*
X102148902Y-52357500D02*
X102072712Y-52281309D01*
X102072712Y-52281309D02*
X102034616Y-52128928D01*
X102034616Y-52128928D02*
X102034616Y-51862261D01*
X102034616Y-51862261D02*
X102072712Y-51709880D01*
X102072712Y-51709880D02*
X102148902Y-51633690D01*
X102148902Y-51633690D02*
X102225093Y-51595595D01*
X102225093Y-51595595D02*
X102377474Y-51595595D01*
X102377474Y-51595595D02*
X102453664Y-51633690D01*
X102453664Y-51633690D02*
X102529855Y-51709880D01*
X102529855Y-51709880D02*
X102567950Y-51862261D01*
X102567950Y-51862261D02*
X102567950Y-52128928D01*
X102567950Y-52128928D02*
X102529855Y-52281309D01*
X102529855Y-52281309D02*
X102453664Y-52357500D01*
X102453664Y-52357500D02*
X102377474Y-52395595D01*
X102377474Y-52395595D02*
X102225093Y-52395595D01*
X101441759Y-54133690D02*
X101365569Y-54095595D01*
X101365569Y-54095595D02*
X101251283Y-54095595D01*
X101251283Y-54095595D02*
X101136997Y-54133690D01*
X101136997Y-54133690D02*
X101060807Y-54209880D01*
X101060807Y-54209880D02*
X101022712Y-54286071D01*
X101022712Y-54286071D02*
X100984616Y-54438452D01*
X100984616Y-54438452D02*
X100984616Y-54552738D01*
X100984616Y-54552738D02*
X101022712Y-54705119D01*
X101022712Y-54705119D02*
X101060807Y-54781309D01*
X101060807Y-54781309D02*
X101136997Y-54857500D01*
X101136997Y-54857500D02*
X101251283Y-54895595D01*
X101251283Y-54895595D02*
X101327474Y-54895595D01*
X101327474Y-54895595D02*
X101441759Y-54857500D01*
X101441759Y-54857500D02*
X101479855Y-54819404D01*
X101479855Y-54819404D02*
X101479855Y-54552738D01*
X101479855Y-54552738D02*
X101327474Y-54552738D01*
X101822712Y-54895595D02*
X101822712Y-54095595D01*
X101822712Y-54095595D02*
X102279855Y-54895595D01*
X102279855Y-54895595D02*
X102279855Y-54095595D01*
X102660807Y-54895595D02*
X102660807Y-54095595D01*
X102660807Y-54095595D02*
X102851283Y-54095595D01*
X102851283Y-54095595D02*
X102965569Y-54133690D01*
X102965569Y-54133690D02*
X103041759Y-54209880D01*
X103041759Y-54209880D02*
X103079854Y-54286071D01*
X103079854Y-54286071D02*
X103117950Y-54438452D01*
X103117950Y-54438452D02*
X103117950Y-54552738D01*
X103117950Y-54552738D02*
X103079854Y-54705119D01*
X103079854Y-54705119D02*
X103041759Y-54781309D01*
X103041759Y-54781309D02*
X102965569Y-54857500D01*
X102965569Y-54857500D02*
X102851283Y-54895595D01*
X102851283Y-54895595D02*
X102660807Y-54895595D01*
X100908426Y-56345595D02*
X101175093Y-57145595D01*
X101175093Y-57145595D02*
X101441759Y-56345595D01*
X102165569Y-57069404D02*
X102127473Y-57107500D01*
X102127473Y-57107500D02*
X102013188Y-57145595D01*
X102013188Y-57145595D02*
X101936997Y-57145595D01*
X101936997Y-57145595D02*
X101822711Y-57107500D01*
X101822711Y-57107500D02*
X101746521Y-57031309D01*
X101746521Y-57031309D02*
X101708426Y-56955119D01*
X101708426Y-56955119D02*
X101670330Y-56802738D01*
X101670330Y-56802738D02*
X101670330Y-56688452D01*
X101670330Y-56688452D02*
X101708426Y-56536071D01*
X101708426Y-56536071D02*
X101746521Y-56459880D01*
X101746521Y-56459880D02*
X101822711Y-56383690D01*
X101822711Y-56383690D02*
X101936997Y-56345595D01*
X101936997Y-56345595D02*
X102013188Y-56345595D01*
X102013188Y-56345595D02*
X102127473Y-56383690D01*
X102127473Y-56383690D02*
X102165569Y-56421785D01*
X102965569Y-57069404D02*
X102927473Y-57107500D01*
X102927473Y-57107500D02*
X102813188Y-57145595D01*
X102813188Y-57145595D02*
X102736997Y-57145595D01*
X102736997Y-57145595D02*
X102622711Y-57107500D01*
X102622711Y-57107500D02*
X102546521Y-57031309D01*
X102546521Y-57031309D02*
X102508426Y-56955119D01*
X102508426Y-56955119D02*
X102470330Y-56802738D01*
X102470330Y-56802738D02*
X102470330Y-56688452D01*
X102470330Y-56688452D02*
X102508426Y-56536071D01*
X102508426Y-56536071D02*
X102546521Y-56459880D01*
X102546521Y-56459880D02*
X102622711Y-56383690D01*
X102622711Y-56383690D02*
X102736997Y-56345595D01*
X102736997Y-56345595D02*
X102813188Y-56345595D01*
X102813188Y-56345595D02*
X102927473Y-56383690D01*
X102927473Y-56383690D02*
X102965569Y-56421785D01*
D12*
X72750714Y-46254819D02*
X72845952Y-46254819D01*
X72845952Y-46254819D02*
X72941190Y-46302438D01*
X72941190Y-46302438D02*
X72988809Y-46350057D01*
X72988809Y-46350057D02*
X73036428Y-46445295D01*
X73036428Y-46445295D02*
X73084047Y-46635771D01*
X73084047Y-46635771D02*
X73084047Y-46873866D01*
X73084047Y-46873866D02*
X73036428Y-47064342D01*
X73036428Y-47064342D02*
X72988809Y-47159580D01*
X72988809Y-47159580D02*
X72941190Y-47207200D01*
X72941190Y-47207200D02*
X72845952Y-47254819D01*
X72845952Y-47254819D02*
X72750714Y-47254819D01*
X72750714Y-47254819D02*
X72655476Y-47207200D01*
X72655476Y-47207200D02*
X72607857Y-47159580D01*
X72607857Y-47159580D02*
X72560238Y-47064342D01*
X72560238Y-47064342D02*
X72512619Y-46873866D01*
X72512619Y-46873866D02*
X72512619Y-46635771D01*
X72512619Y-46635771D02*
X72560238Y-46445295D01*
X72560238Y-46445295D02*
X72607857Y-46350057D01*
X72607857Y-46350057D02*
X72655476Y-46302438D01*
X72655476Y-46302438D02*
X72750714Y-46254819D01*
X73560238Y-47207200D02*
X73560238Y-47254819D01*
X73560238Y-47254819D02*
X73512619Y-47350057D01*
X73512619Y-47350057D02*
X73465000Y-47397676D01*
X74512618Y-47254819D02*
X73941190Y-47254819D01*
X74226904Y-47254819D02*
X74226904Y-46254819D01*
X74226904Y-46254819D02*
X74131666Y-46397676D01*
X74131666Y-46397676D02*
X74036428Y-46492914D01*
X74036428Y-46492914D02*
X73941190Y-46540533D01*
X74941190Y-46588152D02*
X74941190Y-47588152D01*
X75417380Y-47111961D02*
X75464999Y-47207200D01*
X75464999Y-47207200D02*
X75560237Y-47254819D01*
X74941190Y-47111961D02*
X74988809Y-47207200D01*
X74988809Y-47207200D02*
X75084047Y-47254819D01*
X75084047Y-47254819D02*
X75274523Y-47254819D01*
X75274523Y-47254819D02*
X75369761Y-47207200D01*
X75369761Y-47207200D02*
X75417380Y-47111961D01*
X75417380Y-47111961D02*
X75417380Y-46588152D01*
X76322142Y-46731009D02*
X75988809Y-46731009D01*
X75988809Y-47254819D02*
X75988809Y-46254819D01*
X75988809Y-46254819D02*
X76464999Y-46254819D01*
X72404819Y-57841666D02*
X72404819Y-58413094D01*
X72404819Y-58127380D02*
X71404819Y-58127380D01*
X71404819Y-58127380D02*
X71547676Y-58222618D01*
X71547676Y-58222618D02*
X71642914Y-58317856D01*
X71642914Y-58317856D02*
X71690533Y-58413094D01*
X71738152Y-57413094D02*
X72738152Y-57413094D01*
X72261961Y-56936904D02*
X72357200Y-56889285D01*
X72357200Y-56889285D02*
X72404819Y-56794047D01*
X72261961Y-57413094D02*
X72357200Y-57365475D01*
X72357200Y-57365475D02*
X72404819Y-57270237D01*
X72404819Y-57270237D02*
X72404819Y-57079761D01*
X72404819Y-57079761D02*
X72357200Y-56984523D01*
X72357200Y-56984523D02*
X72261961Y-56936904D01*
X72261961Y-56936904D02*
X71738152Y-56936904D01*
X71881009Y-56032142D02*
X71881009Y-56365475D01*
X72404819Y-56365475D02*
X71404819Y-56365475D01*
X71404819Y-56365475D02*
X71404819Y-55889285D01*
X76234819Y-58889285D02*
X76234819Y-58794047D01*
X76234819Y-58794047D02*
X76282438Y-58698809D01*
X76282438Y-58698809D02*
X76330057Y-58651190D01*
X76330057Y-58651190D02*
X76425295Y-58603571D01*
X76425295Y-58603571D02*
X76615771Y-58555952D01*
X76615771Y-58555952D02*
X76853866Y-58555952D01*
X76853866Y-58555952D02*
X77044342Y-58603571D01*
X77044342Y-58603571D02*
X77139580Y-58651190D01*
X77139580Y-58651190D02*
X77187200Y-58698809D01*
X77187200Y-58698809D02*
X77234819Y-58794047D01*
X77234819Y-58794047D02*
X77234819Y-58889285D01*
X77234819Y-58889285D02*
X77187200Y-58984523D01*
X77187200Y-58984523D02*
X77139580Y-59032142D01*
X77139580Y-59032142D02*
X77044342Y-59079761D01*
X77044342Y-59079761D02*
X76853866Y-59127380D01*
X76853866Y-59127380D02*
X76615771Y-59127380D01*
X76615771Y-59127380D02*
X76425295Y-59079761D01*
X76425295Y-59079761D02*
X76330057Y-59032142D01*
X76330057Y-59032142D02*
X76282438Y-58984523D01*
X76282438Y-58984523D02*
X76234819Y-58889285D01*
X77187200Y-58079761D02*
X77234819Y-58079761D01*
X77234819Y-58079761D02*
X77330057Y-58127380D01*
X77330057Y-58127380D02*
X77377676Y-58174999D01*
X77234819Y-57127381D02*
X77234819Y-57698809D01*
X77234819Y-57413095D02*
X76234819Y-57413095D01*
X76234819Y-57413095D02*
X76377676Y-57508333D01*
X76377676Y-57508333D02*
X76472914Y-57603571D01*
X76472914Y-57603571D02*
X76520533Y-57698809D01*
X76568152Y-56698809D02*
X77568152Y-56698809D01*
X77091961Y-56222619D02*
X77187200Y-56175000D01*
X77187200Y-56175000D02*
X77234819Y-56079762D01*
X77091961Y-56698809D02*
X77187200Y-56651190D01*
X77187200Y-56651190D02*
X77234819Y-56555952D01*
X77234819Y-56555952D02*
X77234819Y-56365476D01*
X77234819Y-56365476D02*
X77187200Y-56270238D01*
X77187200Y-56270238D02*
X77091961Y-56222619D01*
X77091961Y-56222619D02*
X76568152Y-56222619D01*
X76711009Y-55317857D02*
X76711009Y-55651190D01*
X77234819Y-55651190D02*
X76234819Y-55651190D01*
X76234819Y-55651190D02*
X76234819Y-55175000D01*
X78433333Y-47754819D02*
X77861905Y-47754819D01*
X78147619Y-47754819D02*
X78147619Y-46754819D01*
X78147619Y-46754819D02*
X78052381Y-46897676D01*
X78052381Y-46897676D02*
X77957143Y-46992914D01*
X77957143Y-46992914D02*
X77861905Y-47040533D01*
X78861905Y-47088152D02*
X78861905Y-48088152D01*
X79338095Y-47611961D02*
X79385714Y-47707200D01*
X79385714Y-47707200D02*
X79480952Y-47754819D01*
X78861905Y-47611961D02*
X78909524Y-47707200D01*
X78909524Y-47707200D02*
X79004762Y-47754819D01*
X79004762Y-47754819D02*
X79195238Y-47754819D01*
X79195238Y-47754819D02*
X79290476Y-47707200D01*
X79290476Y-47707200D02*
X79338095Y-47611961D01*
X79338095Y-47611961D02*
X79338095Y-47088152D01*
X80242857Y-47231009D02*
X79909524Y-47231009D01*
X79909524Y-47754819D02*
X79909524Y-46754819D01*
X79909524Y-46754819D02*
X80385714Y-46754819D01*
X72404819Y-52341666D02*
X72404819Y-52913094D01*
X72404819Y-52627380D02*
X71404819Y-52627380D01*
X71404819Y-52627380D02*
X71547676Y-52722618D01*
X71547676Y-52722618D02*
X71642914Y-52817856D01*
X71642914Y-52817856D02*
X71690533Y-52913094D01*
X71738152Y-51913094D02*
X72738152Y-51913094D01*
X72261961Y-51436904D02*
X72357200Y-51389285D01*
X72357200Y-51389285D02*
X72404819Y-51294047D01*
X72261961Y-51913094D02*
X72357200Y-51865475D01*
X72357200Y-51865475D02*
X72404819Y-51770237D01*
X72404819Y-51770237D02*
X72404819Y-51579761D01*
X72404819Y-51579761D02*
X72357200Y-51484523D01*
X72357200Y-51484523D02*
X72261961Y-51436904D01*
X72261961Y-51436904D02*
X71738152Y-51436904D01*
X71881009Y-50532142D02*
X71881009Y-50865475D01*
X72404819Y-50865475D02*
X71404819Y-50865475D01*
X71404819Y-50865475D02*
X71404819Y-50389285D01*
X84154819Y-60714285D02*
X84154819Y-60619047D01*
X84154819Y-60619047D02*
X84202438Y-60523809D01*
X84202438Y-60523809D02*
X84250057Y-60476190D01*
X84250057Y-60476190D02*
X84345295Y-60428571D01*
X84345295Y-60428571D02*
X84535771Y-60380952D01*
X84535771Y-60380952D02*
X84773866Y-60380952D01*
X84773866Y-60380952D02*
X84964342Y-60428571D01*
X84964342Y-60428571D02*
X85059580Y-60476190D01*
X85059580Y-60476190D02*
X85107200Y-60523809D01*
X85107200Y-60523809D02*
X85154819Y-60619047D01*
X85154819Y-60619047D02*
X85154819Y-60714285D01*
X85154819Y-60714285D02*
X85107200Y-60809523D01*
X85107200Y-60809523D02*
X85059580Y-60857142D01*
X85059580Y-60857142D02*
X84964342Y-60904761D01*
X84964342Y-60904761D02*
X84773866Y-60952380D01*
X84773866Y-60952380D02*
X84535771Y-60952380D01*
X84535771Y-60952380D02*
X84345295Y-60904761D01*
X84345295Y-60904761D02*
X84250057Y-60857142D01*
X84250057Y-60857142D02*
X84202438Y-60809523D01*
X84202438Y-60809523D02*
X84154819Y-60714285D01*
X85107200Y-59904761D02*
X85154819Y-59904761D01*
X85154819Y-59904761D02*
X85250057Y-59952380D01*
X85250057Y-59952380D02*
X85297676Y-59999999D01*
X85154819Y-58952381D02*
X85154819Y-59523809D01*
X85154819Y-59238095D02*
X84154819Y-59238095D01*
X84154819Y-59238095D02*
X84297676Y-59333333D01*
X84297676Y-59333333D02*
X84392914Y-59428571D01*
X84392914Y-59428571D02*
X84440533Y-59523809D01*
X84488152Y-58523809D02*
X85488152Y-58523809D01*
X85011961Y-58047619D02*
X85107200Y-58000000D01*
X85107200Y-58000000D02*
X85154819Y-57904762D01*
X85011961Y-58523809D02*
X85107200Y-58476190D01*
X85107200Y-58476190D02*
X85154819Y-58380952D01*
X85154819Y-58380952D02*
X85154819Y-58190476D01*
X85154819Y-58190476D02*
X85107200Y-58095238D01*
X85107200Y-58095238D02*
X85011961Y-58047619D01*
X85011961Y-58047619D02*
X84488152Y-58047619D01*
X84631009Y-57142857D02*
X84631009Y-57476190D01*
X85154819Y-57476190D02*
X84154819Y-57476190D01*
X84154819Y-57476190D02*
X84154819Y-57000000D01*
X88704819Y-54525595D02*
X88704819Y-55097023D01*
X88704819Y-54811309D02*
X87704819Y-54811309D01*
X87704819Y-54811309D02*
X87847676Y-54906547D01*
X87847676Y-54906547D02*
X87942914Y-55001785D01*
X87942914Y-55001785D02*
X87990533Y-55097023D01*
X87704819Y-53906547D02*
X87704819Y-53811309D01*
X87704819Y-53811309D02*
X87752438Y-53716071D01*
X87752438Y-53716071D02*
X87800057Y-53668452D01*
X87800057Y-53668452D02*
X87895295Y-53620833D01*
X87895295Y-53620833D02*
X88085771Y-53573214D01*
X88085771Y-53573214D02*
X88323866Y-53573214D01*
X88323866Y-53573214D02*
X88514342Y-53620833D01*
X88514342Y-53620833D02*
X88609580Y-53668452D01*
X88609580Y-53668452D02*
X88657200Y-53716071D01*
X88657200Y-53716071D02*
X88704819Y-53811309D01*
X88704819Y-53811309D02*
X88704819Y-53906547D01*
X88704819Y-53906547D02*
X88657200Y-54001785D01*
X88657200Y-54001785D02*
X88609580Y-54049404D01*
X88609580Y-54049404D02*
X88514342Y-54097023D01*
X88514342Y-54097023D02*
X88323866Y-54144642D01*
X88323866Y-54144642D02*
X88085771Y-54144642D01*
X88085771Y-54144642D02*
X87895295Y-54097023D01*
X87895295Y-54097023D02*
X87800057Y-54049404D01*
X87800057Y-54049404D02*
X87752438Y-54001785D01*
X87752438Y-54001785D02*
X87704819Y-53906547D01*
X87704819Y-52954166D02*
X87704819Y-52858928D01*
X87704819Y-52858928D02*
X87752438Y-52763690D01*
X87752438Y-52763690D02*
X87800057Y-52716071D01*
X87800057Y-52716071D02*
X87895295Y-52668452D01*
X87895295Y-52668452D02*
X88085771Y-52620833D01*
X88085771Y-52620833D02*
X88323866Y-52620833D01*
X88323866Y-52620833D02*
X88514342Y-52668452D01*
X88514342Y-52668452D02*
X88609580Y-52716071D01*
X88609580Y-52716071D02*
X88657200Y-52763690D01*
X88657200Y-52763690D02*
X88704819Y-52858928D01*
X88704819Y-52858928D02*
X88704819Y-52954166D01*
X88704819Y-52954166D02*
X88657200Y-53049404D01*
X88657200Y-53049404D02*
X88609580Y-53097023D01*
X88609580Y-53097023D02*
X88514342Y-53144642D01*
X88514342Y-53144642D02*
X88323866Y-53192261D01*
X88323866Y-53192261D02*
X88085771Y-53192261D01*
X88085771Y-53192261D02*
X87895295Y-53144642D01*
X87895295Y-53144642D02*
X87800057Y-53097023D01*
X87800057Y-53097023D02*
X87752438Y-53049404D01*
X87752438Y-53049404D02*
X87704819Y-52954166D01*
X88704819Y-52239880D02*
X88704819Y-52001785D01*
X88704819Y-52001785D02*
X88514342Y-52001785D01*
X88514342Y-52001785D02*
X88466723Y-52097023D01*
X88466723Y-52097023D02*
X88371485Y-52192261D01*
X88371485Y-52192261D02*
X88228628Y-52239880D01*
X88228628Y-52239880D02*
X87990533Y-52239880D01*
X87990533Y-52239880D02*
X87847676Y-52192261D01*
X87847676Y-52192261D02*
X87752438Y-52097023D01*
X87752438Y-52097023D02*
X87704819Y-51954166D01*
X87704819Y-51954166D02*
X87704819Y-51763690D01*
X87704819Y-51763690D02*
X87752438Y-51620833D01*
X87752438Y-51620833D02*
X87847676Y-51525595D01*
X87847676Y-51525595D02*
X87990533Y-51477976D01*
X87990533Y-51477976D02*
X88228628Y-51477976D01*
X88228628Y-51477976D02*
X88371485Y-51525595D01*
X88371485Y-51525595D02*
X88466723Y-51620833D01*
X88466723Y-51620833D02*
X88514342Y-51716071D01*
X88514342Y-51716071D02*
X88704819Y-51716071D01*
X88704819Y-51716071D02*
X88704819Y-51477976D01*
X76454819Y-53714285D02*
X76454819Y-53619047D01*
X76454819Y-53619047D02*
X76502438Y-53523809D01*
X76502438Y-53523809D02*
X76550057Y-53476190D01*
X76550057Y-53476190D02*
X76645295Y-53428571D01*
X76645295Y-53428571D02*
X76835771Y-53380952D01*
X76835771Y-53380952D02*
X77073866Y-53380952D01*
X77073866Y-53380952D02*
X77264342Y-53428571D01*
X77264342Y-53428571D02*
X77359580Y-53476190D01*
X77359580Y-53476190D02*
X77407200Y-53523809D01*
X77407200Y-53523809D02*
X77454819Y-53619047D01*
X77454819Y-53619047D02*
X77454819Y-53714285D01*
X77454819Y-53714285D02*
X77407200Y-53809523D01*
X77407200Y-53809523D02*
X77359580Y-53857142D01*
X77359580Y-53857142D02*
X77264342Y-53904761D01*
X77264342Y-53904761D02*
X77073866Y-53952380D01*
X77073866Y-53952380D02*
X76835771Y-53952380D01*
X76835771Y-53952380D02*
X76645295Y-53904761D01*
X76645295Y-53904761D02*
X76550057Y-53857142D01*
X76550057Y-53857142D02*
X76502438Y-53809523D01*
X76502438Y-53809523D02*
X76454819Y-53714285D01*
X77407200Y-52904761D02*
X77454819Y-52904761D01*
X77454819Y-52904761D02*
X77550057Y-52952380D01*
X77550057Y-52952380D02*
X77597676Y-52999999D01*
X77454819Y-51952381D02*
X77454819Y-52523809D01*
X77454819Y-52238095D02*
X76454819Y-52238095D01*
X76454819Y-52238095D02*
X76597676Y-52333333D01*
X76597676Y-52333333D02*
X76692914Y-52428571D01*
X76692914Y-52428571D02*
X76740533Y-52523809D01*
X76788152Y-51523809D02*
X77788152Y-51523809D01*
X77311961Y-51047619D02*
X77407200Y-51000000D01*
X77407200Y-51000000D02*
X77454819Y-50904762D01*
X77311961Y-51523809D02*
X77407200Y-51476190D01*
X77407200Y-51476190D02*
X77454819Y-51380952D01*
X77454819Y-51380952D02*
X77454819Y-51190476D01*
X77454819Y-51190476D02*
X77407200Y-51095238D01*
X77407200Y-51095238D02*
X77311961Y-51047619D01*
X77311961Y-51047619D02*
X76788152Y-51047619D01*
X76931009Y-50142857D02*
X76931009Y-50476190D01*
X77454819Y-50476190D02*
X76454819Y-50476190D01*
X76454819Y-50476190D02*
X76454819Y-50000000D01*
%TO.C,U3*%
D13*
X84947363Y-25559822D02*
X101947363Y-25559822D01*
X101947363Y-49559822D01*
X84947363Y-49559822D01*
X84947363Y-25559822D01*
D14*
%TO.C,J1*%
X107865000Y-37140000D02*
X106715000Y-37140000D01*
X106715000Y-37140000D02*
X106715000Y-38190000D01*
X106715000Y-38190000D02*
X105725000Y-38190000D01*
X109835000Y-38310000D02*
X109835000Y-44190000D01*
X107865000Y-45360000D02*
X106715000Y-45360000D01*
X106715000Y-45360000D02*
X106715000Y-44310000D01*
%TO.C,0\u002C1\u00B5F*%
X74465000Y-43963748D02*
X74465000Y-44486252D01*
X75935000Y-43963748D02*
X75935000Y-44486252D01*
%TO.C,1\u00B5F*%
X69190000Y-56463748D02*
X69190000Y-57886252D01*
X71010000Y-56463748D02*
X71010000Y-57886252D01*
%TO.C,J6*%
X60120000Y-44080000D02*
X61500000Y-44080000D01*
X60120000Y-45460000D02*
X60120000Y-44080000D01*
X60120000Y-46730000D02*
X60120000Y-49380000D01*
X60120000Y-46730000D02*
X62880000Y-46730000D01*
X60120000Y-49380000D02*
X62880000Y-49380000D01*
X62880000Y-46730000D02*
X62880000Y-49380000D01*
%TO.C,J8*%
X103470000Y-50620000D02*
X103470000Y-58460000D01*
X103470000Y-52800000D02*
X104070000Y-52800000D01*
X103470000Y-55340000D02*
X104070000Y-55340000D01*
X103470000Y-57880000D02*
X104070000Y-57880000D01*
X103470000Y-58460000D02*
X109490000Y-58460000D01*
X104070000Y-51200000D02*
X103470000Y-51200000D01*
X104070000Y-52800000D02*
X104070000Y-51200000D01*
X104070000Y-53740000D02*
X103470000Y-53740000D01*
X104070000Y-55340000D02*
X104070000Y-53740000D01*
X104070000Y-56280000D02*
X103470000Y-56280000D01*
X104070000Y-57880000D02*
X104070000Y-56280000D01*
X104500000Y-58750000D02*
X108500000Y-58750000D01*
X107960000Y-52250000D02*
X108490000Y-52000000D01*
X107960000Y-56830000D02*
X107960000Y-52250000D01*
X108490000Y-52000000D02*
X109490000Y-52000000D01*
X108490000Y-57080000D02*
X107960000Y-56830000D01*
X108490000Y-57080000D02*
X108490000Y-52000000D01*
X109490000Y-50620000D02*
X103470000Y-50620000D01*
X109490000Y-52250000D02*
X108490000Y-52250000D01*
X109490000Y-56830000D02*
X108490000Y-56830000D01*
X109490000Y-57080000D02*
X108490000Y-57080000D01*
X109490000Y-58460000D02*
X109490000Y-50620000D01*
%TO.C,J3*%
X60020000Y-35345000D02*
X61400000Y-35345000D01*
X60020000Y-36725000D02*
X60020000Y-35345000D01*
X60020000Y-37995000D02*
X60020000Y-40645000D01*
X60020000Y-37995000D02*
X62780000Y-37995000D01*
X60020000Y-40645000D02*
X62780000Y-40645000D01*
X62780000Y-37995000D02*
X62780000Y-40645000D01*
%TO.C,0\u002C1\u00B5F*%
X74365000Y-56913748D02*
X74365000Y-57436252D01*
X75835000Y-56913748D02*
X75835000Y-57436252D01*
%TO.C,1\u00B5F*%
X78290000Y-43513748D02*
X78290000Y-44936252D01*
X80110000Y-43513748D02*
X80110000Y-44936252D01*
X69190000Y-50963748D02*
X69190000Y-52386252D01*
X71010000Y-50963748D02*
X71010000Y-52386252D01*
%TO.C,0\u002C1\u00B5F*%
X85890000Y-58938748D02*
X85890000Y-59461252D01*
X87360000Y-58938748D02*
X87360000Y-59461252D01*
D15*
%TO.C,Q1*%
X91970000Y-57760000D02*
X96470000Y-57760000D01*
X91970000Y-60790000D02*
X96470000Y-60790000D01*
D11*
X89880000Y-57900000D02*
G75*
G02*
X89680000Y-57900000I-100000J0D01*
G01*
X89680000Y-57900000D02*
G75*
G02*
X89880000Y-57900000I100000J0D01*
G01*
D14*
%TO.C,U2*%
X79040000Y-52877500D02*
X80040000Y-52877500D01*
X79040000Y-54397500D02*
X79040000Y-52877500D01*
X79090000Y-54397500D02*
X79040000Y-54397500D01*
X80990000Y-54397500D02*
X80210000Y-54397500D01*
X81160000Y-52877500D02*
X82160000Y-52877500D01*
X82160000Y-52877500D02*
X82160000Y-54397500D01*
X82160000Y-54397500D02*
X82110000Y-54397500D01*
X80550000Y-55177500D02*
X80220000Y-54937500D01*
X80550000Y-54697500D01*
X80550000Y-55177500D01*
G36*
X80550000Y-55177500D02*
G01*
X80220000Y-54937500D01*
X80550000Y-54697500D01*
X80550000Y-55177500D01*
G37*
%TO.C,J7*%
X66880000Y-34420000D02*
X66880000Y-37180000D01*
X74610000Y-34420000D02*
X66880000Y-34420000D01*
X74610000Y-34420000D02*
X74610000Y-37180000D01*
X74610000Y-37180000D02*
X66880000Y-37180000D01*
X75880000Y-34420000D02*
X77260000Y-34420000D01*
X77260000Y-34420000D02*
X77260000Y-35800000D01*
%TO.C,J4*%
X61370000Y-53080000D02*
X62750000Y-53080000D01*
X61370000Y-54460000D02*
X61370000Y-53080000D01*
X61370000Y-55730000D02*
X61370000Y-58380000D01*
X61370000Y-55730000D02*
X64130000Y-55730000D01*
X61370000Y-58380000D02*
X64130000Y-58380000D01*
X64130000Y-55730000D02*
X64130000Y-58380000D01*
%TO.C,J10*%
X66910000Y-30420000D02*
X66910000Y-33180000D01*
X74640000Y-30420000D02*
X66910000Y-30420000D01*
X74640000Y-30420000D02*
X74640000Y-33180000D01*
X74640000Y-33180000D02*
X66910000Y-33180000D01*
X75910000Y-30420000D02*
X77290000Y-30420000D01*
X77290000Y-30420000D02*
X77290000Y-31800000D01*
%TO.C,100\u03A9*%
X85865000Y-53060436D02*
X85865000Y-53514564D01*
X87335000Y-53060436D02*
X87335000Y-53514564D01*
%TO.C,0\u002C1\u00B5F*%
X74365000Y-51413748D02*
X74365000Y-51936252D01*
X75835000Y-51413748D02*
X75835000Y-51936252D01*
%TO.C,U1*%
X92827500Y-51590000D02*
X94647500Y-51590000D01*
X92827500Y-51640000D02*
X92827500Y-51590000D01*
X92827500Y-54710000D02*
X92827500Y-54660000D01*
X94647500Y-51590000D02*
X94647500Y-51640000D01*
X94647500Y-54660000D02*
X94647500Y-54710000D01*
X94647500Y-54710000D02*
X92827500Y-54710000D01*
X95427500Y-54990000D02*
X94947500Y-54990000D01*
X95187500Y-54660000D01*
X95427500Y-54990000D01*
G36*
X95427500Y-54990000D02*
G01*
X94947500Y-54990000D01*
X95187500Y-54660000D01*
X95427500Y-54990000D01*
G37*
%TD*%
M02*
