M48
; DRILL file {KiCad 9.0.5} date 2025-11-19T14:44:01+0100
; FORMAT={-:-/ absolute / metric / decimal}
; #@! TF.CreationDate,2025-11-19T14:44:01+01:00
; #@! TF.GenerationSoftware,Kicad,Pcbnew,9.0.5
; #@! TF.FileFunction,Plated,1,2,PTH
FMAT,2
METRIC
; #@! TA.AperFunction,Plated,PTH,ViaDrill
T1C0.300
; #@! TA.AperFunction,Plated,PTH,ComponentDrill
T2C1.000
; #@! TA.AperFunction,Plated,PTH,ComponentDrill
T3C1.190
%
G90
G05
T1
X64.0Y-29.25
X64.0Y-33.0
X66.0Y-39.7
X67.1Y-56.7
X68.5Y-48.0
X74.2Y-40.1
X76.6Y-41.5
X80.0Y-33.5
X81.5Y-37.3
X81.55Y-54.575
X81.7Y-48.1
X82.25Y-28.5
X82.25Y-31.0
X83.6Y-57.2
X84.0Y-54.0
X87.8Y-56.2
X87.9Y-63.5
X92.1Y-56.2
X92.5Y-34.9
X92.5Y-40.1
X92.5Y-45.5
X94.15Y-60.15
X95.1Y-56.7
X95.9Y-53.1
X98.0Y-56.7
X100.1Y-51.8
X103.2Y-62.4
X103.75Y-36.5
X104.168Y-34.0
X105.75Y-48.0
X107.5Y-45.0
X108.0Y-34.25
X109.0Y-41.0
X109.5Y-46.75
T2
X61.4Y-36.725
X61.4Y-39.265
X61.5Y-45.46
X61.5Y-48.0
X62.75Y-54.46
X62.75Y-57.0
X68.26Y-35.8
X68.29Y-31.8
X70.8Y-35.8
X70.83Y-31.8
X73.34Y-35.8
X73.37Y-31.8
X75.88Y-35.8
X75.91Y-31.8
X85.797Y-30.06
X85.797Y-32.6
X85.797Y-35.14
X85.797Y-37.68
X85.797Y-40.22
X85.797Y-42.76
X85.797Y-45.3
X85.797Y-47.84
X101.136Y-30.032
X101.136Y-32.572
X101.136Y-35.112
X101.136Y-37.652
X101.136Y-40.192
X101.136Y-42.732
X101.136Y-45.272
X101.136Y-47.812
T3
X106.5Y-52.0
X106.5Y-54.54
X106.5Y-57.08
M30
